<?xml version="1.0"?>
<svg xmlns="http://www.w3.org/2000/svg" xmlns:xlink="http://www.w3.org/1999/xlink" xmlns:svgjs="http://svgjs.com/svgjs" version="1.1" width="512" height="512" x="0" y="0" viewBox="0 0 512 512" style="enable-background:new 0 0 512 512" xml:space="preserve"><g>
<g xmlns="http://www.w3.org/2000/svg">
	<g>
		<path d="M480,149.333h-10.667V96c0-29.397-23.936-53.333-53.333-53.333H96c-29.397,0-53.333,23.936-53.333,53.333v53.333H32    c-17.643,0-32,14.357-32,32v213.333c0,17.643,14.357,32,32,32h10.667v32c0,5.888,4.779,10.667,10.667,10.667h85.333    c5.888,0,10.667-4.779,10.667-10.667v-32h213.333v32c0,5.888,4.779,10.667,10.667,10.667h85.333    c5.888,0,10.667-4.779,10.667-10.667v-32H480c17.643,0,32-14.357,32-32V181.333C512,163.691,497.643,149.333,480,149.333z M64,96    c0-17.643,14.357-32,32-32h320c17.643,0,32,14.357,32,32v53.333h-10.667c-17.643,0-32,14.357-32,32V256H106.667v-74.667    c0-17.643-14.357-32-32-32H64V96z M405.333,277.333V320H106.667v-42.667H405.333z M128,448H64v-21.333h64V448z M448,448h-64    v-21.333h64V448z M490.667,394.667c0,5.888-4.779,10.667-10.667,10.667h-21.333h-85.333H138.667H53.333H32    c-5.888,0-10.667-4.779-10.667-10.667V181.333c0-5.888,4.779-10.667,10.667-10.667h42.667c5.888,0,10.667,4.779,10.667,10.667    v85.333v64c0,5.888,4.779,10.667,10.667,10.667h320c5.888,0,10.667-4.779,10.667-10.667v-64v-85.333    c0-5.888,4.779-10.667,10.667-10.667H480c5.888,0,10.667,4.779,10.667,10.667V394.667z" fill="#ffffff" data-original="#000000" style=""/>
	</g>
</g>
<g xmlns="http://www.w3.org/2000/svg">
</g>
<g xmlns="http://www.w3.org/2000/svg">
</g>
<g xmlns="http://www.w3.org/2000/svg">
</g>
<g xmlns="http://www.w3.org/2000/svg">
</g>
<g xmlns="http://www.w3.org/2000/svg">
</g>
<g xmlns="http://www.w3.org/2000/svg">
</g>
<g xmlns="http://www.w3.org/2000/svg">
</g>
<g xmlns="http://www.w3.org/2000/svg">
</g>
<g xmlns="http://www.w3.org/2000/svg">
</g>
<g xmlns="http://www.w3.org/2000/svg">
</g>
<g xmlns="http://www.w3.org/2000/svg">
</g>
<g xmlns="http://www.w3.org/2000/svg">
</g>
<g xmlns="http://www.w3.org/2000/svg">
</g>
<g xmlns="http://www.w3.org/2000/svg">
</g>
<g xmlns="http://www.w3.org/2000/svg">
</g>
</g></svg>
