<svg width="8" height="7" viewBox="0 0 8 7" fill="none" xmlns="http://www.w3.org/2000/svg">
<path fill-rule="evenodd" clip-rule="evenodd" d="M0.000854492 3.50066C0.000854492 3.57642 0.0309514 3.64908 0.0845244 3.70266C0.138097 3.75623 0.210758 3.78633 0.286521 3.78633L7.02426 3.78633L5.22627 5.58374C5.17263 5.63738 5.1425 5.71013 5.1425 5.78599C5.1425 5.86185 5.17263 5.93461 5.22627 5.98825C5.27991 6.04189 5.35267 6.07202 5.42853 6.07202C5.50439 6.07202 5.57714 6.04189 5.63078 5.98825L7.91611 3.70291C7.94272 3.67637 7.96382 3.64485 7.97823 3.61015C7.99263 3.57544 8.00004 3.53823 8.00004 3.50066C8.00004 3.46308 7.99263 3.42588 7.97823 3.39117C7.96382 3.35647 7.94272 3.32494 7.91611 3.29841L5.63078 1.01307C5.57714 0.95943 5.50439 0.929296 5.42853 0.929296C5.35267 0.929296 5.27991 0.95943 5.22627 1.01307C5.17263 1.06671 5.1425 1.13946 5.1425 1.21532C5.1425 1.29118 5.17263 1.36393 5.22627 1.41758L7.02426 3.21499L0.286521 3.21499C0.210758 3.21499 0.138097 3.24509 0.0845244 3.29866C0.0309514 3.35223 0.000854492 3.4249 0.000854492 3.50066Z" fill="#E31A20"/>
</svg>
