<svg xmlns="http://www.w3.org/2000/svg" viewBox="0 0 50 50">
  <path d="M16.3125 0C15.550781 0 14.941406 0.300781 14.28125 0.6875C13.621094 1.074219 12.964844 1.589844 12.4375 2.15625C11.183594 3.5 10.777344 4.542969 10.53125 5.5625C10.226563 6.824219 10.691406 8.058594 11.40625 9.03125C11.945313 9.769531 12.648438 10.394531 13.4375 10.84375C13.160156 11.851563 13 12.90625 13 14C13 15.835938 13.414063 17.566406 14.15625 19.125C13.222656 19.617188 5.628906 23.613281 3.84375 24.53125C2.894531 25.019531 1.980469 25.6875 1.40625 26.6875C0.832031 27.6875 0.730469 29.027344 1.34375 30.375C1.976563 31.769531 3.15625 32.519531 4.25 32.6875C5.34375 32.855469 6.328125 32.574219 7.03125 32.3125C8.4375 31.785156 11.097656 30.644531 12.625 30L12.1875 33.65625C8.972656 35.214844 7.308594 39.265625 8.25 43.25C9.316406 47.753906 13.394531 50.792969 17.46875 49.8125C19.347656 49.359375 20.851563 48.152344 21.8125 46.53125C22.835938 46.683594 23.898438 46.78125 25 46.78125C26.105469 46.78125 27.164063 46.683594 28.1875 46.53125C29.148438 48.152344 30.652344 49.359375 32.53125 49.8125C36.605469 50.792969 40.683594 47.753906 41.75 43.25C42.695313 39.253906 41.011719 35.207031 37.78125 33.65625L37.34375 30C38.859375 30.636719 41.554688 31.785156 42.96875 32.3125C43.671875 32.574219 44.65625 32.855469 45.75 32.6875C46.84375 32.519531 48.023438 31.769531 48.65625 30.375C49.269531 29.027344 49.167969 27.6875 48.59375 26.6875C48.019531 25.6875 47.105469 25.019531 46.15625 24.53125C44.367188 23.613281 36.707031 19.507813 35.875 19.0625C36.597656 17.523438 37 15.808594 37 14C37 12.90625 36.839844 11.851563 36.5625 10.84375C37.351563 10.394531 38.054688 9.769531 38.59375 9.03125C39.308594 8.058594 39.773438 6.824219 39.46875 5.5625C39.222656 4.542969 38.816406 3.5 37.5625 2.15625C37.035156 1.589844 36.378906 1.074219 35.71875 0.6875C35.058594 0.300781 34.449219 0 33.6875 0C31.65625 0 29.851563 1.035156 28.8125 2.625C27.613281 2.21875 26.335938 2 25 2C23.664063 2 22.386719 2.21875 21.1875 2.625C20.148438 1.035156 18.34375 0 16.3125 0 Z M 16.3125 2C17.523438 2 18.582031 2.570313 19.28125 3.4375C17.03125 4.660156 15.214844 6.609375 14.125 8.9375C13.710938 8.648438 13.320313 8.273438 13.03125 7.875C12.554688 7.226563 12.347656 6.539063 12.46875 6.03125C12.691406 5.101563 12.828125 4.65625 13.90625 3.5C14.273438 3.105469 14.789063 2.695313 15.28125 2.40625C15.773438 2.117188 16.269531 2 16.3125 2 Z M 33.6875 2C33.730469 2 34.226563 2.117188 34.71875 2.40625C35.210938 2.695313 35.726563 3.105469 36.09375 3.5C37.171875 4.65625 37.308594 5.101563 37.53125 6.03125C37.652344 6.539063 37.445313 7.226563 36.96875 7.875C36.679688 8.273438 36.289063 8.648438 35.875 8.9375C34.785156 6.609375 32.96875 4.660156 30.71875 3.4375C31.417969 2.570313 32.476563 2 33.6875 2 Z M 25 4C29.210938 4 32.804688 6.578125 34.28125 10.25C34.257813 10.539063 34.359375 10.824219 34.5625 11.03125C34.855469 11.972656 35 12.960938 35 14C35 16.5 34.074219 18.78125 32.5625 20.53125C32.832031 19.734375 33 18.886719 33 18C33 14.96875 31.304688 12.324219 28.8125 10.96875C29.496094 10.828125 30 10.222656 30 9.5C30 8.671875 29.328125 8 28.5 8C27.671875 8 27 8.671875 27 9.5C27 9.808594 27.089844 10.105469 27.25 10.34375C26.535156 10.132813 25.78125 10 25 10C24.21875 10 23.464844 10.132813 22.75 10.34375C22.910156 10.105469 23 9.808594 23 9.5C23 8.671875 22.328125 8 21.5 8C20.671875 8 20 8.671875 20 9.5C20 10.222656 20.503906 10.828125 21.1875 10.96875C18.695313 12.324219 17 14.96875 17 18C17 18.886719 17.167969 19.734375 17.4375 20.53125C15.925781 18.78125 15 16.5 15 14C15 12.960938 15.144531 11.972656 15.4375 11.03125C15.640625 10.824219 15.742188 10.539063 15.71875 10.25C17.195313 6.578125 20.789063 4 25 4 Z M 25 12C28.324219 12 31 14.675781 31 18C31 21.097656 28.691406 23.632813 25.6875 23.96875C25.464844 23.992188 25.230469 24 25 24C24.792969 24 24.578125 23.988281 24.375 23.96875C24.355469 23.96875 24.332031 23.96875 24.3125 23.96875C21.308594 23.632813 19 21.097656 19 18C19 14.675781 21.675781 12 25 12 Z M 25 13C23.34375 13 22 14.34375 22 16C22 17.65625 23.34375 19 25 19C26.65625 19 28 17.65625 28 16C28 14.34375 26.65625 13 25 13 Z M 34.875 20.8125C35.617188 21.207031 43.371094 25.347656 45.25 26.3125C45.996094 26.695313 46.59375 27.195313 46.875 27.6875C47.15625 28.179688 47.21875 28.667969 46.8125 29.5625C46.414063 30.4375 45.992188 30.601563 45.4375 30.6875C44.882813 30.773438 44.175781 30.632813 43.65625 30.4375C42.011719 29.824219 36.53125 27.5 36.53125 27.5C36.207031 27.367188 35.832031 27.414063 35.550781 27.625C35.269531 27.835938 35.117188 28.179688 35.15625 28.53125L35.6875 33.0625C34.9375 32.972656 34.1875 32.992188 33.46875 33.15625C32.917969 33.28125 32.386719 33.496094 31.875 33.75C31.28125 30.492188 28.425781 28 25 28C21.574219 28 18.71875 30.492188 18.125 33.75C17.613281 33.496094 17.082031 33.28125 16.53125 33.15625C16.046875 33.046875 15.5625 32.996094 15.0625 33C14.8125 33.003906 14.570313 33.03125 14.3125 33.0625L14.84375 28.53125C14.882813 28.179688 14.730469 27.835938 14.449219 27.625C14.167969 27.414063 13.792969 27.367188 13.46875 27.5C13.46875 27.5 7.988281 29.824219 6.34375 30.4375C5.824219 30.632813 5.117188 30.773438 4.5625 30.6875C4.007813 30.601563 3.585938 30.40625 3.1875 29.53125C2.78125 28.636719 2.84375 28.179688 3.125 27.6875C3.40625 27.195313 4.035156 26.695313 4.78125 26.3125C6.640625 25.359375 14.328125 21.28125 15.15625 20.84375C17.164063 23.722656 20.398438 25.6875 24.09375 25.96875C24.125 25.972656 24.15625 25.964844 24.1875 25.96875C24.457031 25.996094 24.722656 26 25 26C25.308594 26 25.609375 26.003906 25.90625 25.96875C29.617188 25.6875 32.867188 23.710938 34.875 20.8125 Z M 25 30C27.773438 30 30 32.234375 30 35C30 35.011719 30 35.019531 30 35.03125C28.703125 36.21875 27.699219 37.847656 27.25 39.75C26.816406 41.589844 26.925781 43.449219 27.5 45.0625C26.695313 45.15625 25.863281 45.21875 25 45.21875C24.132813 45.21875 23.308594 45.15625 22.5 45.0625C23.074219 43.449219 23.183594 41.589844 22.75 39.75C22.300781 37.847656 21.296875 36.21875 20 35.03125C20 35.019531 20 35.011719 20 35C20 32.234375 22.226563 30 25 30 Z M 15.0625 35C16.144531 35.003906 17.222656 35.402344 18.15625 36.09375C18.269531 36.292969 18.445313 36.445313 18.65625 36.53125C18.660156 36.535156 18.683594 36.527344 18.6875 36.53125C19.664063 37.4375 20.421875 38.691406 20.78125 40.21875C21.632813 43.828125 19.84375 47.191406 17 47.875C14.15625 48.558594 11.070313 46.390625 10.21875 42.78125C9.367188 39.171875 11.15625 35.808594 14 35.125C14.355469 35.039063 14.703125 35 15.0625 35 Z M 34.9375 35C35.292969 35 35.644531 35.039063 36 35.125C38.84375 35.808594 40.632813 39.171875 39.78125 42.78125C38.929688 46.390625 35.84375 48.558594 33 47.875C30.15625 47.191406 28.367188 43.828125 29.21875 40.21875C29.609375 38.570313 30.472656 37.226563 31.5625 36.3125C31.59375 36.292969 31.625 36.273438 31.65625 36.25C31.679688 36.230469 31.695313 36.207031 31.71875 36.1875C32.378906 35.667969 33.109375 35.304688 33.875 35.125C34.226563 35.042969 34.582031 35 34.9375 35Z" fill="#FFFFFF" />
</svg>