<svg id="Capa_1" data-name="Capa 1" xmlns="http://www.w3.org/2000/svg" viewBox="0 0 368.16 277.16"><defs><style>.cls-1{fill:#2f3a96;}.cls-2{fill:#cb5b4a;}.cls-3{fill:#fe725c;}.cls-4{fill:#da624f;}.cls-5{fill:#ef6b57;}.cls-6{fill:#fd725c;}.cls-7{fill:#ca5b4a;}.cls-8{fill:#dd6c5a;}.cls-9{fill:none;stroke:#2f3a96;stroke-linecap:round;stroke-miterlimit:10;stroke-width:4px;}</style></defs><title>baby-shower-2</title><path class="cls-1" d="M-702-192.85q0,65.35,0,130.7c0,12.2-7.33,22.16-18.77,25.51a17.69,17.69,0,0,1-4.8.95q-31.73.06-63.46,0c-1.37-1.57-.94-3.48-0.94-5.27q0-59.82,0-119.64c0-9.27,0-18.54,0-27.81,0-1.53-.18-3.11.82-4.47,1.22-1,2.71-.9,4.14-0.91q39.49,0,79,0C-704.71-193.82-703.2-194-702-192.85Z" transform="translate(1004.83 312.76)"/><path class="cls-1" d="M-841.36-35.72c-20.87,0-41.75.32-62.62-.06-13.63-.24-24.34-12-24.39-26-0.09-23.78,0-47.55,0-71.33q0-29.86,0-59.73c1.08-1.09,2.49-.94,3.82-0.95q39.71,0,79.42,0c1.34,0,2.73-.07,3.89.83,1,1.22.9,2.72,0.9,4.15q0,74.5,0,149C-840.42-38.41-840.22-36.91-841.36-35.72Z" transform="translate(1004.83 312.76)"/><path class="cls-1" d="M-702-192.85l-87,0-0.43-.39a7.38,7.38,0,0,1-.62-4q0-30.57,0-61.13c0-1.43-.15-2.92.73-4.21a3.62,3.62,0,0,1,2.42-.81c4.25-.12,8.49-0.1,12.74,0a3.61,3.61,0,0,1,2.42.8H-709a26.51,26.51,0,0,1,24.37,27.32c-0.38,11-.07,22-0.08,33,0,5.92-3.42,9.36-9.25,9.39Z" transform="translate(1004.83 312.76)"/><path class="cls-1" d="M-841.46-192.88h-87c-2.9,0-5.8,0-8.69,0a8.51,8.51,0,0,1-8.64-8.65c-0.07-12-.16-24,0-35.92s9.31-22.37,21.16-24.53l3.13-.56,62.7,0a3.26,3.26,0,0,1,2.12-.78q6.62-.18,13.23,0a3.56,3.56,0,0,1,2.16.7c0.9,1.16.8,2.54,0.8,3.88q0,30.93,0,61.86a9.53,9.53,0,0,1-.33,3.15A2,2,0,0,1-841.46-192.88Z" transform="translate(1004.83 312.76)"/><path class="cls-2" d="M-841.36-35.72q0-77.28,0-154.56c0-.87-0.07-1.74-0.11-2.6h0.21a3.09,3.09,0,0,1,2.37-.86c7.3-.07,14.6-0.16,21.91,0a3.82,3.82,0,0,1,1.39.35,1.94,1.94,0,0,1,.81.81,10.58,10.58,0,0,1,.47,4.29q0,73.91,0,147.83c0,1.61.32,3.32-.92,4.7h-26.13Z" transform="translate(1004.83 312.76)"/><path class="cls-2" d="M-815.23-35.72q0-78.57,0-157.14c0.88-1,2.07-.92,3.21-0.93q9.78-.07,19.55,0a4.08,4.08,0,0,1,3.22.93l0.23,0c0,0.87-.11,1.73-0.11,2.6q0,77.29,0,154.58h-26.11Z" transform="translate(1004.83 312.76)"/><path class="cls-2" d="M-815.23-262.53l26.16,0q0,32.94-.06,65.89c0,1.25-.07,2.5-0.11,3.75h-26l0,0c-1-1.11-.91-2.5-0.92-3.84q0-31,0-61.92c0-1.34-.07-2.73.93-3.84Z" transform="translate(1004.83 312.76)"/><path class="cls-2" d="M-815.25-262.51q0,34.8,0,69.61l-26,0q-0.05-24.51-.11-49,0-10.3-.05-20.59h26.15Z" transform="translate(1004.83 312.76)"/><path class="cls-3" d="M-800.32-292.73l5.82-4.25c8.52-5.58,17.06-11.14,27.19-13.43,13-2.94,21.78,1.68,26.92,14a62.62,62.62,0,0,1-.48,39.92c-5.51,13-15.92,16.25-29.27,13.87l-4.4-.8c-4.21.37-7.69-1.88-11.2-3.54-5.89-2.79-11.67-5.91-16.07-11a3.25,3.25,0,0,1-.38-1.22c-0.34-10.34,0-20.68.3-31A2.59,2.59,0,0,1-800.32-292.73Z" transform="translate(1004.83 312.76)"/><path class="cls-4" d="M-800.79-257.36c6.38,4.86,13,9.27,20.64,12l5.61,2,20.23,32.46c-5-1.12-9.51-2.11-14-3.12-3.13-.71-6.27-1.35-9.36-2.21-2-.55-2.67.2-3.1,2-1.54,6.45-3.18,12.87-4.8,19.3-0.15.59-.37,1.17-0.79,2.49l-9.35-18.87-20.64-39.76c1.25-1.18,2.82-.77,4.28-0.81,3.69-.1,7-0.88,9-4.42C-802.59-257.14-802-258.12-800.79-257.36Z" transform="translate(1004.83 312.76)"/><path class="cls-3" d="M-892.23-258.56a66.17,66.17,0,0,1,.45-39.47c3.21-7.34,8-13,16.35-14.4,5.79-1,11.28.37,16.63,2.48,7.43,2.93,14.1,7.22,20.55,11.86,0.6,0.43,1.07,1,1.91,1l4.47,3.94c1.52,0.76,1.58,2.21,1.56,3.59-0.11,10,0,20.07-.5,30.1a4.72,4.72,0,0,1-2.08,3.09,67.78,67.78,0,0,1-22.93,11.75,4.5,4.5,0,0,1-3.13.1,43.53,43.53,0,0,1-14.31,1.07c-7.67-.82-13.44-4.52-17.09-11.39C-891-256.08-891.6-257.32-892.23-258.56Z" transform="translate(1004.83 312.76)"/><path class="cls-4" d="M-858.95-244.55a69.71,69.71,0,0,0,27.26-13.84c1.16-.15,1.37.84,1.74,1.54,1.8,3.38,4.75,4.67,8.41,4.82,1.55,0.06,3.23-.36,4.55.91-6.35,12.12-12.89,24.14-19.74,36l-11.7,22c-1.76-7.75-3.48-14.62-4.82-21.57-0.5-2.61-1.36-3-3.82-2.4-7.37,1.66-14.82,3-22.88,4.6,2.49-3.77,4.66-7,6.79-10.29C-868.45-230.08-863.24-237-858.95-244.55Z" transform="translate(1004.83 312.76)"/><path class="cls-5" d="M-817-251.12c-1.9,0-3.8,0-5.7-.1-4.7-.24-7.36-3.08-9-7.17q0.2-15.37.4-30.74c0-1.38.19-2.79-.59-4.05,1.32-2.36,1.08-5.33,3.27-7.43a9,9,0,0,1,6.86-2.76c3.84,0.12,7.69.1,11.53,0.18,5.87,0.12,8.68,2.78,9.26,8.74a2.07,2.07,0,0,0,.63,1.72,5.68,5.68,0,0,0-.7,3.08q-0.17,14.6-.39,29.2a5.74,5.74,0,0,0,.62,3.09,0.61,0.61,0,0,0-.31.06c-3.31,6.42-9.14,6.63-15.24,6.19H-817Z" transform="translate(1004.83 312.76)"/><path class="cls-6" d="M-687.33-207.44c-4.2-2.64-8.49-5.16-12.42-8.21-10.4-8.06-19.06-17.54-23.84-30-5.15-13.4-5.53-26.89,1.16-39.87,7.54-14.65,19.75-22.93,36.21-24.79a32.4,32.4,0,0,1,8.91.05c0.59,0.42,1.32,0,1.93.3l0,0c1,0.33,2.17.36,3.2,0.75,6.44,1.73,11.62,5.48,16,10.35a48.48,48.48,0,0,1,11.93,27,60,60,0,0,1-2,23.93,67.4,67.4,0,0,1-15.62,27.45,71,71,0,0,1-14.77,12.57,6.36,6.36,0,0,1-.82.72c-3,.53-6,0.24-9,0.18A1.06,1.06,0,0,1-687.33-207.44Z" transform="translate(1004.83 312.76)"/><path class="cls-7" d="M-677.3-207.71a87.17,87.17,0,0,0,13-10.72c7.4-7.62,13.26-16.26,16.67-26.4a66,66,0,0,0,3.09-15.27,52.83,52.83,0,0,0-3.61-25c-4-9.91-10.5-17.74-20.34-22.44-1.22-.58-2.53-1-3.79-1.45-0.06-.34,0-0.51.41-0.37a41.77,41.77,0,0,1,17.43,8.19,44.12,44.12,0,0,1,17.26,29.58c1.67,11.95-.87,23.19-6.9,33.62-6.82,11.8-16.64,20.61-28.07,27.76a32.05,32.05,0,0,1-4.48,2.56A0.53,0.53,0,0,1-677.3-207.71Z" transform="translate(1004.83 312.76)"/><path class="cls-8" d="M-671.86-309.36l-0.41.37a17.84,17.84,0,0,1-3.14-1A9.07,9.07,0,0,1-671.86-309.36Z" transform="translate(1004.83 312.76)"/><path class="cls-9" d="M-681.92-194.19s5.13,13.45-.1,24.93,1.18,22.05,1.18,22.05,6.77,10-1,24.77,12.74,22.35,12.74,22.35" transform="translate(1004.83 312.76)"/><path class="cls-6" d="M-679.51-193.54h-13.8l8.55-8.83a6.6,6.6,0,0,1,5.48,0l8.75,8.07-0.47.75h-8.51Z" transform="translate(1004.83 312.76)"/><path class="cls-1" d="M-679.28-202.36h-5.48l-1.7,0c-1.83,0-2.88-.76-3.08-2.17s0.54-2.26,2.22-2.88c2.91,0,5.82,0,8.72,0a1.4,1.4,0,0,0,1.3-.29l0.67,0.07,0.9,0.58a2.39,2.39,0,0,1,1.15,2.79A2.39,2.39,0,0,1-677-202.4C-677.72-202.36-678.5-202.37-679.28-202.36Z" transform="translate(1004.83 312.76)"/><path class="cls-6" d="M-964.7-180.1c-4.2-2.64-8.49-5.16-12.42-8.21-10.4-8.06-19.06-17.54-23.84-30-5.15-13.4-5.53-26.89,1.16-39.87,7.54-14.65,19.75-22.93,36.21-24.79a32.4,32.4,0,0,1,8.91.05c0.59,0.42,1.32,0,1.93.3l0,0c1,0.33,2.17.36,3.2,0.75,6.44,1.73,11.62,5.48,16,10.35a48.48,48.48,0,0,1,11.93,27,60,60,0,0,1-2,23.93,67.4,67.4,0,0,1-15.62,27.45A71,71,0,0,1-954-180.59a6.36,6.36,0,0,1-.82.72c-3,.53-6,0.24-9,0.18A1.06,1.06,0,0,1-964.7-180.1Z" transform="translate(1004.83 312.76)"/><path class="cls-7" d="M-954.67-180.38a87.17,87.17,0,0,0,13-10.72c7.4-7.62,13.26-16.26,16.67-26.4a66,66,0,0,0,3.09-15.27,52.83,52.83,0,0,0-3.61-25c-4-9.91-10.5-17.74-20.34-22.44-1.22-.58-2.53-1-3.79-1.45-0.06-.34,0-0.51.41-0.37a41.77,41.77,0,0,1,17.43,8.19,44.12,44.12,0,0,1,17.26,29.58c1.67,11.95-.87,23.19-6.9,33.62-6.82,11.8-16.64,20.61-28.07,27.76a32.05,32.05,0,0,1-4.48,2.56A0.53,0.53,0,0,1-954.67-180.38Z" transform="translate(1004.83 312.76)"/><path class="cls-8" d="M-949.23-282l-0.41.37a17.84,17.84,0,0,1-3.14-1A9.07,9.07,0,0,1-949.23-282Z" transform="translate(1004.83 312.76)"/><path class="cls-9" d="M-958.63-166.86s-5.13,13.45.1,24.93-1.18,22.05-1.18,22.05-6.77,10,1,24.77-12.74,22.35-12.74,22.35" transform="translate(1004.83 312.76)"/><path class="cls-6" d="M-956.89-166.2h-13.8l8.55-8.83a6.6,6.6,0,0,1,5.48,0l8.75,8.07-0.47.75h-8.51Z" transform="translate(1004.83 312.76)"/><path class="cls-1" d="M-956.65-175h-5.48l-1.7,0c-1.83,0-2.88-.76-3.08-2.17s0.54-2.26,2.22-2.88c2.91,0,5.82,0,8.72,0a1.4,1.4,0,0,0,1.3-.29l0.67,0.07,0.9,0.58a2.39,2.39,0,0,1,1.15,2.79,2.39,2.39,0,0,1-2.38,1.87C-955.1-175-955.88-175-956.65-175Z" transform="translate(1004.83 312.76)"/></svg>