<svg id="Capa_1" data-name="Capa 1" xmlns="http://www.w3.org/2000/svg" viewBox="0 0 383.42 384"><defs><style>.cls-1{fill:#fff;}</style></defs><title>baby-shower</title><path class="cls-1" d="M538.81-293.27c-0.3,10.85-5.11,18.8-15.09,23.41a56.21,56.21,0,0,1-7.9,3.34c-10.31,2.95-14.2,10.54-15.21,20.36-0.65,6.34-3.06,9.13-7.37,8.54s-6.15-4.23-5.3-10.27a54,54,0,0,1,2.77-11.61,28.84,28.84,0,0,1,17.23-17.59c3-1.17,6-2.53,9-3.67,6.26-2.34,9.17-6.77,9.17-13.46,0-5.25,3.72-8.25,8.18-7.07C537.48-300.44,538.91-297.9,538.81-293.27Z" transform="translate(-213 442)"/><path class="cls-1" d="M474.93-256.79a6.57,6.57,0,0,1-6.46,6.44,6.32,6.32,0,0,1-6.28-6.14,6.25,6.25,0,0,1,6.17-6.6A6.49,6.49,0,0,1,474.93-256.79Z" transform="translate(-213 442)"/><path class="cls-1" d="M558-288.7a6.63,6.63,0,0,1-6.28-6.65,6.4,6.4,0,0,1,6.73-6.08,6.14,6.14,0,0,1,6,6.34A6.4,6.4,0,0,1,558-288.7Z" transform="translate(-213 442)"/><path class="cls-1" d="M595.25-285.77c-2.38-3.52-6.24-3.76-10.4-.57q-38.76,29.79-77.47,59.62a8.26,8.26,0,0,1-5.4,2c-26.24-.07-52.48,0-78.72-0.08-0.87,0-2,.56-2.58-0.41,2.9-4.34,5.82-8.54,8.55-12.85a77.8,77.8,0,0,0,7-13.59c1.11-2.88,2.25-3.71,5.39-2.51,6.45,2.46,9.64.37,10.75-6.44,0.83-5,1.67-10.09,2.46-15.15,0.3-1.91.76-3,3.25-2.86a63.63,63.63,0,0,0,30.43-6.5c38.35-18.41,59.34-67.1,46.65-108.52-7.2-23.49-21.72-39.89-46-46.74-2.7-.76-5.6-0.64-8.17-1.64H466.76a43.5,43.5,0,0,0-15.58,3.18c-15.37,5.93-27.54,15.82-37.47,28.75-2.56,3.34-2.58,4.42-5.82-.13a80,80,0,0,0-16.51-17.07C380.64-435.57,368.86-442,355-442H340.74a32.07,32.07,0,0,0-8.17.78,59.62,59.62,0,0,0-28.73,16.87c-13.73,14.6-20.64,32.3-21.77,52.17A95.19,95.19,0,0,0,294-319.9c9.38,17,22.47,30.16,40.52,37.93a63,63,0,0,0,19.13,5c5.25,0.49,5.91,1.12,6.2,6.4,0.2,3.62.87,7.18,1,10.82,0.16,7.62,5.78,11.12,11.74,8.67,2.76-1.14,4.16,0,5.07,2.58a113,113,0,0,0,5.61,12.67c1.6,3.21,3.74,6.13,5.27,9.52a4,4,0,0,1-2.32.47q-39,0-78,0a10.83,10.83,0,0,1-6.89-2.45q-22.12-17-44.25-34.05c-10.9-8.37-21.47-16.84-32.45-25.11-5-3.76-9.64-2.7-11.64,2.6v4.5c0,2.38,2,4,3.89,5.55C224.26-269,231.57-263.3,239-257.6c17.43,13.38,34.74,26.85,52.22,40.17,1.71,1.31,3.4,2.66,3.45,5,0.2,8.74.06,17.48,0,26.22,0,1.67-.81,2.26-2.42,1.73a61.69,61.69,0,0,0-6.1-1.83c-9.28-2-18.33-2.06-25.74,4.86S250.16-165,249.91-155a7.38,7.38,0,0,0,7.06,7.8c4,0.21,6.82-2.45,7.53-7.2,0.54-3.58.9-7.2,2.31-10.58,2-4.72,5.51-7.51,10.61-7.59a21.63,21.63,0,0,1,11.8,3.08c3.84,2.35,5.67,5.32,5.62,10.09-0.22,22.35-.1,44.88-0.1,67.23,0,18.44,10,30.16,28,34.16H485.51c1.11-2,2.75-.87,4.12-1.26A32,32,0,0,0,513.24-90c0.13-23.24.26-46.53-.12-69.76-0.09-5.44,2.17-8.37,6.3-10.69a25.92,25.92,0,0,1,4.79-2.08c11.19-3.57,18.64,1,20.51,12.63,0.28,1.72.47,3.46,0.64,5.2,0.42,4.24,2.89,6.79,6.52,6.7,3.8-.09,6.41-3,6.23-7.38a41.76,41.76,0,0,0-4.27-17.3c-5.07-10-13.69-14.69-24.82-13.61a47.5,47.5,0,0,0-15.73,4.45c0-10.38.07-20.32-.06-30.27a5.46,5.46,0,0,1,2.44-5Q539-234.88,562.3-252.87c10.19-7.84,20.41-15.65,30.57-23.54C596.61-279.31,597.37-282.63,595.25-285.77ZM442.63-279.3c-0.25,1.43-.46,2.52-0.63,3.63-1.29,8.45-1.69,8.63-9.63,5-1.42-.65-1.35-1.33-0.71-2.45,1.23-2.15,2.4-4.34,3.58-6.51a4.38,4.38,0,0,1,7-1.37A1.63,1.63,0,0,1,442.63-279.3Zm3.7-142.3c31.19-18.13,66.23-3.86,76.63,31.24a77.23,77.23,0,0,1,2.19,9.46,59.51,59.51,0,0,1,1,12c-1.08,28-11.55,51.3-35.13,67.63-29.07,20.14-64.93,9.21-78.07-23.62C399.27-359,414.49-403.11,446.32-421.61Zm-36,117.85a60.5,60.5,0,0,0,14,13.79c1.6,1.09.83,2,.25,3.1-2.68,4.92-5.4,9.82-8,14.76-2.84,5.32-1.52,8.72,4.09,10.78,5.25,1.93,5.22,1.91,2.77,7.16A104.21,104.21,0,0,1,407-229.31c-1.39,1.58-2.11,1.89-3.51-.08a106.68,106.68,0,0,1-13.33-25c-0.69-1.86-.68-2.76,1.53-2.94a12.32,12.32,0,0,0,2.87-.8c4.51-1.53,6.19-5,4.3-9.44q-3.43-8.07-7.25-16c-0.83-1.72-.64-2.55,1-3.57A64.15,64.15,0,0,0,410.33-303.75ZM376-266.26c-1.5.26-2-.09-2.15-1.56-0.17-2.36-.42-4.71-0.69-7.05-0.44-3.91.87-5.39,4.77-5.37,1-.28,1.28.57,1.6,1.19,0.57,1.1,1,2.25,1.55,3.38C384.72-267.8,384.68-267.78,376-266.26ZM332-298.68c-19.33-12.06-30-30.11-34.67-52a65.76,65.76,0,0,1-1.6-14.44c0-13.22,2.34-24.35,7.57-34.8,14.81-29.6,47.8-38.32,75.31-19.89a74.21,74.21,0,0,1,23.83,26.45,4.59,4.59,0,0,1,.2,4.49c-9.72,23.59-10.2,47.28-.35,71,0.86,2.07,0,3.29-.9,4.72C386.12-289.67,356.57-283.34,332-298.68ZM420.57-71c-10.74-.17-21.49-0.14-32.23,0-2.43,0-3.21-.57-3.15-3.08,0.17-7.12.06-14.24,0.06-21.36s0.05-14.24,0-21.36a5.72,5.72,0,0,1,1.8-4.62c5.29-5.13,10.52-10.33,15.63-15.64,1.53-1.59,2.36-1.41,3.79.07,5.13,5.29,10.36,10.48,15.63,15.63a5.41,5.41,0,0,1,1.72,4.28c-0.06,14.24-.1,28.48,0,42.72C423.83-71.88,423.3-71,420.57-71Zm-35.25-95.81c0.07-4.13,2.48-6.58,6.58-6.66,8.36-.17,16.73-0.13,25.09,0,3.51,0,6.38,1.83,6.49,5.45,0.29,9.78.1,19.58,0.1,30.6-5-5.13-9.15-9.53-13.44-13.83-4.13-4.14-7.11-4.14-11.19-.08-4.32,4.3-8.57,8.67-12.85,13l-0.82-.48C385.27-148.2,385.17-157.53,385.32-166.85ZM500.5-92c0,12.88-7.93,20.87-20.69,20.89-13.25,0-26.49-.11-39.74.09-3.11,0-3.57-1-3.56-3.76q0.14-44.8.05-89.6c0-14.32-7.66-22-21.93-22-7.25,0-14.5,0-21.74,0-12.33.1-20.41,8.12-20.43,20.47-0.06,30.24-.09,60.48.07,90.72,0,3.56-1.06,4.2-4.32,4.16-13-.18-26-0.06-39-0.08-12.78,0-20.72-8-20.72-20.86,0-38.74,0-77.48-.08-116.21,0-3.08.68-3.9,3.84-3.88,30.74,0.13,61.48.08,92.22,0.08s61.48,0.05,92.22-.08c3.1,0,3.89.7,3.88,3.84C500.46-169.48,500.51-130.75,500.5-92Z" transform="translate(-213 442)"/><path class="cls-1" d="M270.19-300c-0.06-4.77,2.18-7.72,6-7.93s6.71,2.79,6.71,7.71c0,6.41,3,10.61,8.8,13,3,1.21,5.95,2.56,9,3.67,12,4.39,17.49,13.76,19.74,25.6a40.37,40.37,0,0,1,.75,7.8A6.15,6.15,0,0,1,315-244a6.39,6.39,0,0,1-6.47-5.57c-0.12-.74-0.07-1.5-0.14-2.24-0.92-10.22-4.7-18.27-15.61-21.22a49.65,49.65,0,0,1-7.2-3.07C275.32-280.74,270.39-288.85,270.19-300Z" transform="translate(-213 442)"/><path class="cls-1" d="M244.64-301.51a6.6,6.6,0,0,1-6.55-6.37,6.33,6.33,0,0,1,6.08-6.35,6.17,6.17,0,0,1,6.65,6.06A6.44,6.44,0,0,1,244.64-301.51Z" transform="translate(-213 442)"/><path class="cls-1" d="M340.45-250.32a6.34,6.34,0,0,1,6.38,6.43,6.29,6.29,0,0,1-6.47,6.32,6.52,6.52,0,0,1-6.27-6.22A6.53,6.53,0,0,1,340.45-250.32Z" transform="translate(-213 442)"/></svg>