<svg id="Capa_1" data-name="Capa 1" xmlns="http://www.w3.org/2000/svg" viewBox="0 0 325.11 305.86"><defs><style>.cls-1{fill:#7d8494;}.cls-2{fill:#e77186;}.cls-3{fill:#7fa9fe;}.cls-4{fill:#f2cd7d;}.cls-5{fill:#9fe9e9;}.cls-6{fill:#b2d0e6;}.cls-7{fill:#606772;}.cls-8{fill:#89aec3;}.cls-9{fill:#6790d2;}.cls-10{fill:#99c4a0;}.cls-11{fill:#afb4c9;}.cls-12{fill:#c5a566;}.cls-13{fill:#c5a666;}.cls-14{fill:#a5c5c8;}.cls-15{fill:#fed7b6;}.cls-16{fill:#d7b9a2;}.cls-17{fill:#6d7486;}.cls-18{fill:#f2f6fa;}.cls-19{fill:#d8baa4;}.cls-20{fill:#9b989c;}.cls-21{fill:#ab9f9d;}.cls-22{fill:#c35f74;}.cls-23{fill:#f3f7fb;}.cls-24{fill:#5779aa;}.cls-25{fill:#e77187;}.cls-26{fill:#f3f7fa;}.cls-27{fill:#7bb1b0;}.cls-28{fill:#c3ced2;}.cls-29{fill:#e1c5af;}.cls-30{fill:#6e7486;}.cls-31{fill:#d4e0f3;}.cls-32{fill:#d3e0f3;}</style></defs><title>baby-shower-3</title><path class="cls-1" d="M306.68-516.61c7.18,0.48,12.63,3.35,14.53,10.83a20.72,20.72,0,0,1,.39,5q0,50.13,0,100.25c0,14.32-8.06,22.46-22.43,22.5-20.32.06-40.64,0-61,0-2.93,0-5.86.06-8.8,0.1-10.72-2.73-16.46-10-16.51-21.19-0.07-14.08,0-28.16,0-42.25a27.21,27.21,0,0,0-.61-6.37c2.62-3.56,2.74-7.64,2.66-11.84-0.13-7.52-.08-15,0-22.55a18,18,0,0,0-1.57-8.17,21.64,21.64,0,0,1-.55-4.3,1.61,1.61,0,0,1,.14-1c2.3-3,2.12-6,0-8.93,1.5-5.51,4.14-10.05,10-11.85,3.86,0.87,5.72,3.58,6.51,7.2,0.26,1.19.19,2.46,1.12,3.42,1.27,1.4,3,1.54,4.68,1.55q24,0.06,48.06,0c3.87,0,4.61-.74,5.8-4.79A12.41,12.41,0,0,1,306.68-516.61Z" transform="translate(3.5 683.57)"/><path class="cls-2" d="M51.1-648.8c-0.11-9.2,2.3-17.54,8.13-24.83,9.85-12.29,26.83-13.35,38-2.26,0.48,0.48,1,1,1.4,1.47,2,2.32,3.81,2.34,5.88,0a25.9,25.9,0,0,1,13.36-8.15c11.17-2.75,22.6,2.8,28.88,13.87,3.73,6.56,5.08,13.65,5,21.1,0.85,1.35.63,2.79,0.39,4.25a39.93,39.93,0,0,1-14,24.36c-3.4,2.93-6.74,6-10.38,8.6-7.14,5.72-14.56,11.07-22.08,16.27-4.73,4.6-9.36,3.93-13.91-.28-4.91-5.2-10.58-9.53-16-14.16-6-6-12.89-11.19-18.08-18.07a38.84,38.84,0,0,1-7.16-17.59A6.45,6.45,0,0,1,51.1-648.8Z" transform="translate(3.5 683.57)"/><path class="cls-3" d="M306.68-516.61c-3.13.28-6.27-.25-9.41,0.44-3.83.83-6.11,2.95-7,6.8-1.35,6.11-1.74,6.35-8.18,6.35H234.89c-2.27,0-4.61.08-5.46-2.77-0.28-3.79-1.14-7.52-1.07-11.36,0.12-6.2.38-6.55,6.45-6.56h48.25a34.29,34.29,0,0,0,4.7-.13c1.71-.52,3.59-0.91,3.68-3.21,0.08-2-1.29-2.92-3-3.41-17.69-.32-35.37,0-53-0.13a38.81,38.81,0,0,1-4.05-.11c-1.93-.21-2.72-1.42-2.72-3.23s0.81-3,2.73-3.21a39.79,39.79,0,0,1,4.05-.1c17.68-.08,35.36.16,53-0.14,1.61-.45,3-1.2,3.05-3.1,0.09-2.09-1.36-2.92-3.06-3.49-8.58-.38-17.15-0.1-25.71-0.15-9.81-.06-19.62,0-29.43,0-3.89,0-4.75-.75-4.78-4.45-0.12-11.39-.16-22.78,0-34.16,0.08-5.1,2.16-7.51,7-9,20.73,0,41.46-.12,62.19-0.06,5.51,0,9,3.74,9,9.28Q306.73-549.57,306.68-516.61Z" transform="translate(3.5 683.57)"/><path class="cls-4" d="M51.1-648.8c0,14.9,8.71,24.89,19.15,33.89a42.52,42.52,0,0,1,6.19,6.12c0.91,2.07-.39,3.7-1.17,5.37-4.88,10.41-11,20.09-17.35,29.64-0.43.65-.86,1.3-1.3,1.93-3.09,4.44-6.55,4.76-10.73,1-11.36-4-23-7.47-33.68-13.11-15.28-8-20.63-30.13-10.59-43.51,5.78-7.7,15.78-10,25.23-5.76,3.76,1.68,4,1.54,5.72-2.3,3.22-7,8.28-11.71,16.24-12.69A17.31,17.31,0,0,0,51.1-648.8Z" transform="translate(3.5 683.57)"/><path class="cls-4" d="M127.26-610.9c5-4.21,10.14-8.16,14.58-12.94,6.21-6.7,9.19-14.75,9.89-23.75,8.28,1,14.6,5,18.44,12.53,1.26,2.47,2.62,2.92,5.07,1.56,13.81-7.64,28.34.47,31.18,15.95a31.39,31.39,0,0,1-17.19,34.22c-9.47,4.77-19.55,8-29.68,11.08-1.16.35-2.45,0.46-3.36,1.42-1.52,1.32-3.48,1.4-5.29,1.87a3.57,3.57,0,0,1-4.27-1.79c-0.92-1.53-1.92-3-2.92-4.48-5-9.12-10.66-17.9-14.49-27.63C128.2-605.44,126.77-607.94,127.26-610.9Z" transform="translate(3.5 683.57)"/><path class="cls-5" d="M86.55-453.55c-10.49,7.11-21.3,13.46-34,15.89-9.39,1.79-18.33-1.3-22.25-8.28a21.93,21.93,0,0,1-1.46-18.92,20.57,20.57,0,0,0-.27-16.26c-2.89-6.64-1.58-13.29,1.59-19.52,4-7.78,11.14-10.21,20.82-7.38,11.27,3.3,20.63,9.92,29.69,17,1.84,1.45,3.95,2.65,5.23,4.73-0.61,3.34-1.08,6.71-1.74,10-1.27,1.06-2.6.34-3.85,0q-4.78-1.13-9.59-2.09c-2-.41-4.09-0.18-4.61,2.22s1.23,3.4,3.29,3.87c1.76,0.4,3.53.76,5.25,1.31,0.84,0.27,1.88.48,1.93,1.61s-1,1.45-1.78,1.76c-3.06,1.15-6.2,2.1-9.3,3.15-0.85.29-1.72,0.56-2.56,0.87-2,.74-4.06,1.66-3.13,4.29s3.11,2.26,5.16,1.65c4.87-1.45,9.64-3.2,14.48-4.74,1.47-.47,2.95-1.32,4.54-0.32C85.05-459.63,84.95-456.35,86.55-453.55Z" transform="translate(3.5 683.57)"/><path class="cls-5" d="M119-486.76c9-9.54,18.83-17.67,31.8-21.21,15.87-4.34,27.89,12.58,24.71,25-1.61,6.29-2,12.08.2,18.43A20.51,20.51,0,0,1,174-446.65c-4.26,6.89-11.16,8.89-18.39,8.35-13.95-1-26-7.45-37.33-15.22a16.94,16.94,0,0,0,1.92-8.66,2.85,2.85,0,0,1,1.12-2.66c1.9-.91,3.76-0.19,5.62.15,3.55,0.65,7.06,1.46,10.61,2.08,2.19,0.38,4.45.6,5.28-2.16,0.59-1.95-1.1-3.52-4.31-4.12a67.59,67.59,0,0,1-6.95-1.42c-0.72-.21-1.68-0.39-1.67-1.37,0-.72.76-1.06,1.33-1.42a0.83,0.83,0,0,1,.3-0.15c1.87-.93,4-1.91,2.91-4.48s-3.39-1.94-5.56-1.43c-2.68.62-5.07,2.57-8.06,1.78A90.14,90.14,0,0,1,119-486.76Z" transform="translate(3.5 683.57)"/><path class="cls-6" d="M113-452.85c1.56,6.82,4.36,13.23,6.59,19.82,4.52,13.33,9.25,26.58,13.81,39.9,1.41,4.13-.44,7.56-4.63,8.52-9.19,2.11-18.4,4.17-27.65,6-6.66,1.34-9.53-1.33-9.16-8.16,0.09-1.79.44-3.56,0.66-5.34-1-1-.81-2.27-0.64-3.52,2.56-18.08,5.31-36.12,7.83-54.2a6.43,6.43,0,0,1,1-2.86,2.68,2.68,0,0,1,1-.82C105.53-454,109.36-455,113-452.85Z" transform="translate(3.5 683.57)"/><path class="cls-7" d="M213-495.14c1.49,1.16.64,2.81,0.87,4.22-5.08,1.78-5.09,1.78-5.1,7.39,0,9.33.11,18.66-.06,28-0.06,3.41.51,6.21,3.73,7.93,2.23,0.5,1.39,2.31,1.39,3.59,0.06,14.75,0,29.5,0,44.25,0,10.57,4.25,16.86,14.14,21a8.68,8.68,0,0,1,1.38.91c-4.85,0-9.74.41-14.54-.06-10.3-1-17.91-9.84-17.91-20.37,0-34.08.19-68.16-.15-102.23-0.09-8.92,5.74-16.65,15.67-16.19,3.51-1.18,7-2.15,10.22.77-4.86,2.45-7.32,6.87-9.52,11.52-2.27,1.11-5.15,1.5-4.54,5.32C209.09-496.4,211.33-496.19,213-495.14Z" transform="translate(3.5 683.57)"/><path class="cls-8" d="M101.4-452.27c-0.9,5.72-1.83,11.43-2.68,17.16q-2.27,15.21-4.46,30.43c-0.6,4.19-1.1,8.4-1.64,12.6-10.48.31-21-.22-31.46,0.58-3.15.24-6.09-.35-7.77-3.58s-0.38-5.61,1.48-8.08q18.55-24.56,37.07-49.14A10.55,10.55,0,0,1,101.4-452.27Z" transform="translate(3.5 683.57)"/><path class="cls-9" d="M222.71-516c-3.32-1.42-6.83-.3-10.22-0.77q0-32.59,0-65.18c0-6.9,3-9.94,9.81-9.93,4.39,0,8.78.06,13.17,0.1-4.69,2.32-6.27,6.08-6.13,11.27,0.28,10.57.21,21.17,0,31.74-0.06,3.09,1,3.72,3.84,3.7,17.56-.13,35.12-0.07,52.69,0,1.3,0,2.72-.48,3.86.62-1.6,1.49-3.61,1.06-5.48,1.07-16.69,0-33.37,0-50.06,0a16.05,16.05,0,0,0-4.7.38,2.37,2.37,0,0,0-1.89,2.13,2.35,2.35,0,0,0,1.94,2.43,16.07,16.07,0,0,0,4.7.36c16.69,0,33.37,0,50.06,0,1.86,0,3.88-.43,5.46,1.1-1.16,1.06-2.58.61-3.88,0.61q-26.56,0-53.12,0c-1.66,0-3.4-.41-3.4,2.36s1.75,2.36,3.4,2.36q26.56,0,53.12,0c1.31,0,2.73-.45,3.89.6-1.57,1.56-3.59,1.12-5.46,1.12-16.6,0-33.19,0-49.79,0a28.18,28.18,0,0,0-4.39.18c-1.33.21-2.49,0.75-2.56,2.24-0.08,1.65,1.09,2.35,2.54,2.65a20,20,0,0,0,4.05.23c16.48,0,33,0,49.45,0,1.87,0,3.88-.43,5.47,1.11-1.17,1-2.59.58-3.9,0.58-17.26,0-34.53.11-51.79-.06-3.35,0-4.24,1-4,4.2,0.26,4.27,0,8.57,0,12.86-1-.88-0.5-2.1-0.71-3.16A9.19,9.19,0,0,0,222.71-516Z" transform="translate(3.5 683.57)"/><path class="cls-10" d="M113-452.85l-11.55-.08a35.91,35.91,0,0,1-9.63,0c-1.78-.09-3.61.25-5.28-0.66-3.39-2.27-2.54-5.83-2.73-9.06a18.81,18.81,0,0,1,0-13.46c0.17-3.5-.47-7.16,2.1-10.17L89-487.63c2.56-1.64,5.4-.74,8.12-0.87s5.39-.09,8.08,0a16.07,16.07,0,0,0,1.86-.06c2.66,0.23,5.46-.64,8,0.95,1.42-.17,2.68.46,4,0.84,2.13,2.8,2.14,6.06,2.07,9.35,1.78,4.19,1,8.52.64,12.82-1.2,1.59-.58,3.43-0.56,5.13,0,2.53-.69,4.55-2.88,5.94C116.62-452.69,114.79-453,113-452.85Z" transform="translate(3.5 683.57)"/><path class="cls-11" d="M97.37-487.56L89-487.63l-27.56-53c-1.77-3.4-3.52-6.8-5.31-10.19-0.51-1-.74-2.18-2-2.53,2.11-2.53,4.95-3.63,8.1-4.13a5.1,5.1,0,0,1,2,2.61c6.92,13.88,14.27,27.54,21.4,41.32,4,7.68,8,15.32,11.81,23.1C97.6-489.51,98.17-488.51,97.37-487.56Z" transform="translate(3.5 683.57)"/><path class="cls-11" d="M115.06-487.61l-8.21,0c-1.49-.77-1.14-1.93-0.67-3.12,10.12-20.68,21.22-40.86,31.41-61.5,0.54-1.09,1-2.33,2.31-2.78,3,0.5,5.51,1.74,7,4.55Q131.24-520,115.6-489.51A10.08,10.08,0,0,0,115.06-487.61Z" transform="translate(3.5 683.57)"/><path class="cls-12" d="M146.89-550.41a36.9,36.9,0,0,0-6.88-4.2c-0.5-.27-1.09-0.19-1.62-0.43-5.3-2.39-5.7-3.75-2.57-8.62,2.06-3.23,4.08-6.48,6.21-9.67,0.6-.9.92-2.12,2.3-2.24,2.39,5.51,6.44,6.84,11.87,4.73-1.24,6.7-2.68,13.37-3.64,20.11-0.47,3.31-1.56,3-3.62,1.46A16,16,0,0,0,146.89-550.41Z" transform="translate(3.5 683.57)"/><path class="cls-13" d="M62.22-557.15l-8.08,3.76c-1.95.88-3.94,1.69-5.84,2.68s-2.31.46-2.3-1.5c0-6.21-.06-12.42-0.11-18.63,8.64,2.25,6,3.81,11.41-3.37,2.37,0.9,2.84,3.35,4.12,5.12a64,64,0,0,1,4.26,6.9C67.52-558.75,66.41-557.18,62.22-557.15Z" transform="translate(3.5 683.57)"/><path class="cls-14" d="M91.83-452.89l9.63,0q0,0.33-.06.66l-9.45,0Q91.9-452.59,91.83-452.89Z" transform="translate(3.5 683.57)"/><path class="cls-15" d="M266.74-475.95c18.72,4.12,30.88,19.64,30.6,39.09-0.25,17.7-13.31,33.4-30.59,36.76-4.71.51-8.36-2.17-12.1-4.25A35,35,0,0,1,241.87-417a6.75,6.75,0,0,1-1.42-4.06,1.84,1.84,0,0,1,.18-0.64c3.57-6.21,3.17-7.24-3.6-9.41a1.35,1.35,0,0,1-.66-0.73c-0.54-3.13-.87-6.26.37-9.32,2-2.06,4.12-3.79,7.3-3.32,1.87,0.28,3.82.15,4.49-2,0.77-2.43-1.26-3.29-2.95-4.2a7,7,0,0,0-.94-0.37c-6.44-1.17-6.6-1.54-3-7.33,0.92-1.48,1.64-3.27,3.9-3.1,1.39,0.53,1.84,1.91,2.63,3,4,5.36,9,7.35,14.65,5.71,5.83-1.7,9.21-8.45,6.87-13.7a7.94,7.94,0,0,0-9-4.39c-2,.51-3.25,1.69-3.06,3.83s1.51,2.89,3.5,2.83c1,0,2.14-.3,2.56,1s-0.36,2.15-1.18,3a4.54,4.54,0,0,1-5,1.19,7.26,7.26,0,0,1-5.09-5.39c-1.11-5.09.57-7.47,6.52-9.59C261.56-474.76,264-476.05,266.74-475.95Z" transform="translate(3.5 683.57)"/><path class="cls-16" d="M237.64-441.36c-1.52,3.23-.35,6.65-0.71,10a4.84,4.84,0,0,1-1.18,1.59c-2.63,3.27-1.38,6.85,2.72,7.78,0.86,0.19,1.79.12,2.46,0.86,2.73,7.41,8.12,12.49,14.67,16.44a38.7,38.7,0,0,0,11.15,4.63c-9.64,2.74-18.67.69-27.15-3.93a36.39,36.39,0,0,1-19.21-26.73c-3.36-19.62,6.81-36.88,24.71-43.78a4.81,4.81,0,0,1,1.34-.11,1.61,1.61,0,0,1,.31,1.56,19.8,19.8,0,0,0-.62,9.85,2.22,2.22,0,0,1-.47,2.17c-3.5,1.4-4.18,4.9-5.67,7.75-0.44.85,0.59,0.92,1.25,1,1.3,0.13,2.69-.4,3.86.57-1,1.32-2.43,1-3.72,1a8.93,8.93,0,0,0-6.1,2.46c-2.7,2.54-2.38,4.55,1,6A2.58,2.58,0,0,1,237.64-441.36Z" transform="translate(3.5 683.57)"/><path class="cls-17" d="M245.66-461.08c-1.23-4.61-1.29-9.16.78-13.58a10.45,10.45,0,0,0,4.7-1.33,3.89,3.89,0,0,1,3.35-.05c1,0,2,.31,2.78-0.61,1-.68,2.14-0.3,3.23-0.28,1.32,1.81-.07,2.67-1.26,3.6-6.08,2.57-7.11,3.94-6,8.69a6.41,6.41,0,0,0,5.25,5.07,3.76,3.76,0,0,0,4.28-1.92c0.36-.57.78-1.2,0.3-1.85s-1-.16-1.53,0c-2.68.56-4.43-.52-5-3.16s1.43-4.9,4.36-5.39a9.11,9.11,0,0,1,10.27,11.38,12.49,12.49,0,0,1-20,6.6A17,17,0,0,1,245.66-461.08Z" transform="translate(3.5 683.57)"/><path class="cls-18" d="M212.47-447.61c-3.39.1-4.95-1.62-4.94-4.94,0-11.26,0-22.53,0-33.79,0-4.31,2-5.67,6.35-4.58a7.49,7.49,0,0,1,1.84,5.25q0,16.16,0,32.33C215.73-450.78,214.91-448.74,212.47-447.61Z" transform="translate(3.5 683.57)"/><path class="cls-18" d="M213-495.14c-4,.17-5.52-1.16-5.49-4.78s1.48-4.75,5.66-4.53C216.59-501.45,216.53-498.2,213-495.14Z" transform="translate(3.5 683.57)"/><path class="cls-19" d="M259.24-473.33a7.94,7.94,0,0,0,1.39-3.36,0.43,0.43,0,0,1,.69-0.08,13.6,13.6,0,0,1,5.42.81Z" transform="translate(3.5 683.57)"/><path class="cls-20" d="M261.32-476.76l-0.69.08-3.36,0L256-476.8C257.78-477.15,259.57-477.93,261.32-476.76Z" transform="translate(3.5 683.57)"/><path class="cls-21" d="M254.5-476l-3.35.05A2.23,2.23,0,0,1,254.5-476Z" transform="translate(3.5 683.57)"/><path class="cls-22" d="M92.68-574.41c-2.48.59-3.14-.42-2.8-2.82,0.82-5.78,1.47-11.58,2.19-17.37,1.46-.87,2,0.52,2.74,1.2,2.47,2.28,4.89,3,7.68.42a4.52,4.52,0,0,1,2.9-1.58c1.41,5.07,2.62,10.2,4.31,15.18,1.1,3.23,0,4-2.92,3.8a14,14,0,0,0-2,.12,9.92,9.92,0,0,1-8.1,1.21A9.13,9.13,0,0,0,92.68-574.41Z" transform="translate(3.5 683.57)"/><path class="cls-23" d="M69.63-651.38c-0.11.55-.3,1.31-0.43,2.09a14.38,14.38,0,0,0,4.63,13.44c2,1.9,3,4.08,1.05,6.54-1.69,2.15-4.08,2-6.73-.6-6.36-6.24-8.7-13.77-6.6-22.52,0.56-2.34,2.19-3.84,4.65-3.51C68.5-655.66,69.62-654,69.63-651.38Z" transform="translate(3.5 683.57)"/><path class="cls-24" d="M289.14-523.38l-56.9-.07a16.4,16.4,0,0,1-2.71,0c-2.15-.37-3.46-1.66-3.4-3.91a3.33,3.33,0,0,1,3.4-3.48c0.9-.08,1.81,0,2.71,0l57.58-.06c2.13,0.54,2.7,2.16,2.63,4.06A3.5,3.5,0,0,1,289.14-523.38Z" transform="translate(3.5 683.57)"/><path class="cls-24" d="M289.82-536.93c-19.62,0-39.25-.06-58.87,0-2.32,0-4-.7-4.73-2.92-0.61-1.92.56-3.23,2.07-4.21,1-.65,2.2-0.35,3.31-0.35q29.1,0,58.2,0C293.53-542,293.55-539.12,289.82-536.93Z" transform="translate(3.5 683.57)"/><path class="cls-25" d="M254.76-576.36c2.83,2.25,6,.85,9.65-0.21s7.48,4.61,6.76,9-3.93,6.63-7,9.14c-5,4.09-4.93,4.08-9.83,0-3.64-3.06-7.54-5.89-6.65-11.59C248.29-573.78,250.74-576.32,254.76-576.36Z" transform="translate(3.5 683.57)"/><path class="cls-26" d="M14-610.48c-1.44,4,.28,7.13,3.19,10.08,1.52,1.55,1.32,3.53-.16,5.19a3.67,3.67,0,0,1-4.9.74C7-597.21,3.62-607.69,6.34-612.76a3.88,3.88,0,0,1,4.86-2.06C13.13-614.26,14.08-612.78,14-610.48Z" transform="translate(3.5 683.57)"/><path class="cls-23" d="M195.64-612a15.9,15.9,0,0,1-5,12.4c-2.09,2.14-5,2.33-6.56.46-1.72-2.09-1.24-4.15.62-6a9.32,9.32,0,0,0,2.78-7.63c-0.25-4.51.82-6.19,3.63-6.24s4.35,2,4.48,6.28C195.65-612.36,195.64-612,195.64-612Z" transform="translate(3.5 683.57)"/><path class="cls-27" d="M83.79-476.08l0,13.46q-8.17,2.62-16.35,5.24c-1.28.41-2.57,0.81-3.88,1.08-2.4.51-4.28-.17-4.9-2.76s0.35-4.09,2.82-4.9a112.36,112.36,0,0,0,14.61-5.65c-2.31-.55-4.6-1.16-6.92-1.65-3-.64-4.72-2.56-4.3-5s2.82-3.72,5.85-3C75.12-478.31,79.45-477.16,83.79-476.08Z" transform="translate(3.5 683.57)"/><path class="cls-27" d="M121.74-464.6c-1.41-4.21-.34-8.55-0.64-12.82,2.87-1,5.72-2,8.61-2.88s5.36,0,6,2.52c0.74,2.9-.9,4.38-3.46,5.18-0.61.19-1.19,0.5-2.51,1.07,3.32,0.64,5.89,1.11,8.45,1.62a14.13,14.13,0,0,1,3.25.79c2,0.95,3.23,2.52,2.47,4.88s-2.69,3.22-5,2.81C133.16-462.42,127.45-463.53,121.74-464.6Z" transform="translate(3.5 683.57)"/><path class="cls-11" d="M92.68-574.41c4-1.07,8.11-.07,12.09-1-1.35,4.86-.75,9.85-0.41,14.71,0.66,9.44.12,18.88,0.55,28.3,0.55,12.24.66,24.48,0.64,36.73a21.36,21.36,0,0,1,0,8.13l-8.15,0-0.68-2.67c0.47,0.1,1.17.61,1.09-.45-0.78-10.23,0-20.5-.57-30.72-0.7-11.59-.16-23.19-0.69-34.77-0.23-4.95-.59-9.89-0.41-14.83C96.21-573.74,95.18-574.63,92.68-574.41Z" transform="translate(3.5 683.57)"/><path class="cls-28" d="M105.51-487.58q0-4.06,0-8.13c1.45,1.58-.37,3.94,1.3,5.47a2.23,2.23,0,0,0,0,2.68Z" transform="translate(3.5 683.57)"/><path class="cls-29" d="M257.8-413.67c-4.14.5-6.81-2.29-9.38-5.18-1.34-1.5-.46-3,0.45-4.29a3.34,3.34,0,0,1,4.79-1c3.34,2.62,6.21,2.73,9.58.11,1.64-1.28,3.19.19,4.33,1.45a3.2,3.2,0,0,1,.24,4.57A11.57,11.57,0,0,1,257.8-413.67Z" transform="translate(3.5 683.57)"/><path class="cls-30" d="M272.25-443.9c-1.22.2-2.21,0.44-3.2,0.5a3.7,3.7,0,0,1-4-2.91c-0.59-1.89.33-3.29,1.78-4.33,4.06-2.89,12.49-.86,14.92,3.55a3.59,3.59,0,0,1-.65,4.61,3.83,3.83,0,0,1-4.93.6C274.82-442.62,273.67-443.78,272.25-443.9Z" transform="translate(3.5 683.57)"/><path class="cls-17" d="M237.64-441.36c-2.29.16-4.29-.25-5.07-2.81-0.74-2.41.89-3.73,2.38-5.11,2.92-2.71,6.58-2.46,10.16-2.49a16.6,16.6,0,0,1,2.75,1.19,3.62,3.62,0,0,1,1.78,4.31c-0.6,1.87-2.09,3.37-4,2.78C242.35-444.49,240-443,237.64-441.36Z" transform="translate(3.5 683.57)"/><path class="cls-31" d="M284.33-426.1a5.31,5.31,0,0,1-5.66,5,5.28,5.28,0,0,1-5.14-5.16c0-2.75,3.11-5.81,5.66-5.62S284.42-428.66,284.33-426.1Z" transform="translate(3.5 683.57)"/><path class="cls-32" d="M240.94-421.18c-5.58.15-7.67-1.54-7.46-5.9a4.42,4.42,0,0,1,3.45-4.32,4.57,4.57,0,0,1,6,2.06c1.31,2.24,1.46,4.63-.67,6.67C241.77-422.22,241.37-421.68,240.94-421.18Z" transform="translate(3.5 683.57)"/></svg>