<svg id="Capa_1" data-name="Capa 1" xmlns="http://www.w3.org/2000/svg" viewBox="0 0 302.57 305.86"><defs><style>.cls-1{fill:#2f3a96;}.cls-2{fill:#fe725c;}.cls-3{fill:#cb5b4a;}.cls-4{fill:#fbbd01;}.cls-5{fill:#fbbe03;}</style></defs><title>boda3</title><path class="cls-1" d="M780.7-560.77a99.59,99.59,0,0,1,37,12.74c1,0.6,1.93,1.5,3.27,1.3a1.51,1.51,0,0,1-.91,1.58c-4.14,2.62-7.7,6-11.81,8.69a7.78,7.78,0,0,0-3.85,3.41c-1.82,3.19-4.67,5.49-7.1,8.15a1.59,1.59,0,0,1-1.76.58c-25.7-10.57-49.57-7.46-71.24,10C710.15-503,702.7-487.93,700.65-470c-3.89,34.14,19.8,67.71,56,73.47,13.39,2.13,26.43.78,38.79-5.19,6.55-2.82,12.21-7,17.8-11.38a8.36,8.36,0,0,0,4.56-4.53,11.11,11.11,0,0,1,1.88-2.78c6.95-7.67,11-16.8,13.52-26.7,3.87-15.27,1.92-30-4.35-44.29a56.41,56.41,0,0,0-9.21-14.33c-0.48-1,.12-1.68.74-2.29,5.36-5.25,10.41-10.89,17.12-14.53,2.32-1.26,4.5-3.11,7.45-2.74,7.09,7.83,11.91,17,15.69,26.75a96.34,96.34,0,0,1,6.52,40.89,98.91,98.91,0,0,1-18.33,52.3,22.38,22.38,0,0,0-3.13,5,131.34,131.34,0,0,1-19.89,18.47c-1.5,1.08-2.91,2.35-4.82,2.72a4.12,4.12,0,0,0-2.73.93c-18.48,11-38.52,15.19-59.86,13.58-42-3.18-79.78-36.93-87.38-78.45-6.64-36.28,3.4-67.44,30.3-92.74,14.93-14,32.94-22.12,53.27-24.93,1.39-1.28,3.17-1.42,4.9-1.46q8.17-.21,16.34,0C777.54-562.21,779.31-562.07,780.7-560.77Z" transform="translate(-669.02 670.03)"/><path class="cls-1" d="M813.66-412.63c-5.48,4.41-10.87,9-17.72,11.19-1.66.15-2.21-1.26-2.94-2.24a97.56,97.56,0,0,1-19.06-48.62c-2.44-22.35,2.46-43,13.82-62.32a72.31,72.31,0,0,1,5.61-8.09c0.65-.82,1.18-1.92,2.54-1.77,2.48-3.18,5.87-5.56,7.93-9.11,1.41-1,2.46-2.46,4-3.37l13.12-9.79c56.55-35.79,133.35-4,148,61.31,12.33,54.77-21.5,107.8-76.47,119.1-25.36,5.21-49.4.93-71.54-12.85,4.67-3.85,9.66-7.29,14.13-11.43a87.27,87.27,0,0,0,6.07-6.31c1.19-1.34,2.22-3,4.27-3.34,1.85-.76,3.43.3,5,0.85a66.44,66.44,0,0,0,44.82-.05c19.67-7,33.51-20.31,40.6-39.86,9.35-25.79,4.63-49.46-13.82-69.65-12.47-13.65-28.49-20.74-47.27-21.26a69,69,0,0,0-26.09,4.33c-1.3.48-2.6,1.27-4.11,0.78-10.22,3.9-17.71,11.37-24.94,19.16,0.09,2.31-1.6,3.77-2.73,5.44a66.72,66.72,0,0,0-11.49,38.08,64.42,64.42,0,0,0,10.75,36c1.34,2.05,3.4,3.78,3.47,6.53,0,1.15-.93,1.79-1.38,2.69A19.07,19.07,0,0,1,813.66-412.63Z" transform="translate(-669.02 670.03)"/><path class="cls-2" d="M780.7-560.77a129.48,129.48,0,0,0-26.13,0c-5.4-5-10.89-9.83-16.19-14.89-6.52-6.22-11.88-13.21-13.19-22.5-1.93-13.63,6.48-28.3,22.63-29.24,7.31-.42,13.44,2.69,18.15,8.29,1.31,1.56,1.85,1.7,3.32.05,7.57-8.45,17.8-10.62,27.34-6,9.35,4.49,15.18,16.09,13.55,26.64-1.15,7.43-4.69,13.59-9.64,19A172.94,172.94,0,0,1,784-563.89C782.88-562.91,781.81-561.81,780.7-560.77Z" transform="translate(-669.02 670.03)"/><path class="cls-3" d="M920.43-641.56c-0.23,3.58-.58,8.71-0.91,13.84-0.17,2.58-1.33,3.89-4.1,4-8.5.45-17,2-25.51,0.56-9.21-1.6-15.45-10.36-13.18-18.56,1.65-6,6.13-9.47,12.49-9.7,1.46-.05,2.62.25,2.7-2.05,0.24-7.16,3.86-11.82,9.71-13.07A15.29,15.29,0,0,1,918-658.8C920.8-653.86,920.5-648.47,920.43-641.56Z" transform="translate(-669.02 670.03)"/><path class="cls-2" d="M940.49-600.37c0.06-4.64-.31-8.17,1.07-11.52,3-7.23,12-9.28,16.85-3.81a3.32,3.32,0,0,1,1.11,1.58c-0.07,5.08,3.6,5.86,7.36,7.53,6.12,2.72,6.23,11.57.68,15.93a15.38,15.38,0,0,1-8.86,3c-4.83.3-9.59-.68-14.4-0.71-1.93,0-3-.93-3.08-3C941-594.77,940.67-598.14,940.49-600.37Z" transform="translate(-669.02 670.03)"/><path class="cls-4" d="M721.33-644c-1.21,0-2.05-.82-2.91-1.67-3.85-3.86-7.69-7.73-11.57-11.56-1.66-1.64-2.64-3.47-.65-5.34s3.76-.89,5.4.77c4,4,8,8,12,12a3.25,3.25,0,0,1,1,3.84A3.11,3.11,0,0,1,721.33-644Z" transform="translate(-669.02 670.03)"/><path class="cls-4" d="M813.86-644a3.09,3.09,0,0,1-3-1.6,2.87,2.87,0,0,1,.36-3.63c4.43-4.51,8.88-9,13.41-13.41a3,3,0,0,1,4.43,0,2.85,2.85,0,0,1,.25,4.37c-4.39,4.55-8.91,9-13.37,13.45A3.22,3.22,0,0,1,813.86-644Z" transform="translate(-669.02 670.03)"/><path class="cls-4" d="M770.92-660.08c0,2,0,3.94,0,5.91,0,2.2-1,3.6-3.35,3.57-2.12,0-3.18-1.33-3.2-3.38,0-4.27-.06-8.54,0-12.81a3,3,0,0,1,3.32-3.25c2.13,0,3.15,1.34,3.2,3.38S770.92-662.27,770.92-660.08Z" transform="translate(-669.02 670.03)"/><path class="cls-5" d="M840-624h6.21c2,0,3.44.86,3.59,3a3,3,0,0,1-3.11,3.44q-6.68.21-13.37,0a3,3,0,0,1-3.11-3.44c0.15-2.11,1.59-3,3.59-3H840Z" transform="translate(-669.02 670.03)"/><path class="cls-5" d="M696.54-624c1.75,0,3.5,0,5.25,0a3,3,0,0,1,3.28,3,2.94,2.94,0,0,1-2.83,3.38,53.29,53.29,0,0,1-11.45,0,2.91,2.91,0,0,1-2.79-3.4c0.14-2,1.41-2.87,3.29-2.94S694.79-624,696.54-624Z" transform="translate(-669.02 670.03)"/></svg>