<svg id="Capa_1" data-name="Capa 1" xmlns="http://www.w3.org/2000/svg" viewBox="0 0 296 285.12"><defs><style>.cls-1{stroke:#000;stroke-miterlimit:10;}</style></defs><title>carrito</title><path class="cls-1" d="M46.63-358.32c-73.94,0-147.29,0-221.24.06-2.34,0-2.91-.62-3.51-2.89q-6.93-26.17-14-52.27c-1.54-5.66-4.7-7-10.51-7l-37.88-.1v13.8c11,0,21.6.08,31.66-.06,2.29,0,4,.52,4.55,2.85,4.74,18.8,10.17,37.53,15.17,56.26,13.29,49.76,27.26,99.39,40.89,149.06,0.48,1.74.32,2.61-1.3,3.64a31.3,31.3,0,0,0-13.87,34.09c3.8,16.2,19.74,26.59,36.45,23.78,16-2.68,27.49-17.13,25.85-33.3-0.55-5.42-2.47-8.08-5.29-14.08h80.12c-0.52,1-.91.64-1.28,1.29a31.07,31.07,0,0,0,2.82,35.34,31.62,31.62,0,0,0,33.92,10,31.82,31.82,0,0,0,22.25-28C33-184,18.12-200.09-.45-200.11q-65-.07-130,0c-0.77,0-1.53,0-2.3,0a1.23,1.23,0,0,1-1.39-1.08c-1.42-5.38-2.9-10.74-4.44-16.39a42.32,42.32,0,0,0,7.82.72q64.69,0,129.38,0c14.3,0,24.44-7.69,28.15-21.48C35-268.69,41.81-299,50-329.24c1.81-6.68,2.5-13.51,4.5-20v-3.45C52.5-357.17,52-358.32,46.63-358.32ZM0.15-186.48a18.28,18.28,0,0,1,18,18.22A18.14,18.14,0,0,1-.18-150.15a18.17,18.17,0,0,1-18.14-18.3A18.29,18.29,0,0,1,.15-186.48Zm-132.63,0a18.14,18.14,0,0,1,18,18.46,18.06,18.06,0,0,1-18.26,17.88,18,18,0,0,1-18-18.4A18.17,18.17,0,0,1-132.48-186.48ZM40.1-339.68c-8.8,33.05-17.61,65.35-26.41,98.41-2.25,8.44-6.76,11.6-15.43,11.6-42.93,0-85.86-.18-128.78-0.19-7.85,0-12.65-3.68-14.71-11.12-9.3-33.71-18.58-66-27.87-99.67-0.18-.64-0.3.14-0.53-0.86H37.58C41-341.5,41-343,40.1-339.68Z" transform="translate(241 421.03)"/></svg>