<svg width="16" height="16" viewBox="0 0 16 16" fill="none" xmlns="http://www.w3.org/2000/svg">
<path d="M8 0C3.58214 0 0 3.58214 0 8C0 12.4179 3.58214 16 8 16C12.4179 16 16 12.4179 16 8C16 3.58214 12.4179 0 8 0ZM8 14.6429C4.33214 14.6429 1.35714 11.6679 1.35714 8C1.35714 4.33214 4.33214 1.35714 8 1.35714C11.6679 1.35714 14.6429 4.33214 14.6429 8C14.6429 11.6679 11.6679 14.6429 8 14.6429Z" fill="#333333"/>
<path d="M11.1666 10.272L8.62592 8.43168V4.01377C8.62592 3.93523 8.56178 3.87097 8.48339 3.87097H7.62642C7.54803 3.87097 7.48389 3.93523 7.48389 4.01377V8.9297C7.48389 8.97611 7.50527 9.01895 7.54268 9.04572L10.4895 11.1984C10.5537 11.2449 10.6428 11.2306 10.6891 11.1681L11.1986 10.4719C11.2449 10.4059 11.2307 10.3167 11.1666 10.272V10.272Z" fill="#333333"/>
</svg>
