<svg id="Capa_1" data-name="Capa 1" xmlns="http://www.w3.org/2000/svg" viewBox="0 0 140.97 138.31"><defs><style>.cls-1,.cls-2,.cls-4{fill:none;stroke-miterlimit:10;}.cls-1,.cls-4{stroke:#fff;}.cls-1,.cls-2{stroke-width:5px;}.cls-2{stroke:red;}.cls-3{fill:#fff;}.cls-4{stroke-width:4px;}</style></defs><title>combos-white</title><path class="cls-1" d="M265-180.5H214c-5.34,0-9.5-4.83-9.5-10.17V-297.33c0-5.34,4.16-9.17,9.5-9.17h71.33a8.84,8.84,0,0,1,9.17,9.17V-254" transform="translate(-202 309)"/><rect class="cls-1" x="63" y="53" width="75.47" height="82.67" rx="6.48" ry="6.48"/><line class="cls-1" x1="93" y1="36.5" x2="3" y2="36.5"/><path class="cls-2" d="M222-299" transform="translate(-202 309)"/><line class="cls-1" x1="19.5" y1="26" x2="19.5" y2="10"/><line class="cls-1" x1="19.5" y1="46" x2="19.5" y2="66"/><circle class="cls-1" cx="100.73" cy="94.33" r="17.67"/><rect class="cls-3" x="107.35" y="63.12" width="6.62" height="6.62"/><rect class="cls-3" x="120.6" y="63.12" width="6.62" height="6.62"/><rect class="cls-4" x="17" y="129.78" width="15.47" height="6.53" rx="1.13" ry="1.13"/></svg>