<svg id="Capa_1" data-name="Capa 1" xmlns="http://www.w3.org/2000/svg" viewBox="0 0 311.8 287.97"><defs><style>.cls-1{fill:#2f3a96;}.cls-2{fill:#fe725c;}.cls-3{fill:none;stroke:#2f3a96;stroke-linecap:round;stroke-miterlimit:10;stroke-width:6px;}.cls-4{fill:#cb5b4a;}</style></defs><title>combos-2</title><path class="cls-1" d="M736.09-120.57V35.62A17.11,17.11,0,0,0,753.2,52.73h25.41a28.39,28.39,0,0,1-4.73.39H624.69a28.81,28.81,0,0,1-28.81-28.8v-230.4a28.81,28.81,0,0,1,28.81-28.77H773.93A28.81,28.81,0,0,1,802.74-206v68.39H753.25a17.12,17.12,0,0,0-17.16,17.08h0Z" transform="translate(-595.58 234.85)"/><rect class="cls-1" x="141.81" y="98.98" width="169.99" height="187.64" rx="17.12" ry="17.12"/><rect class="cls-2" y="81.07" width="207.15" height="15.13"/><rect class="cls-2" x="37.51" y="24.93" width="15.13" height="40.53"/><rect class="cls-2" x="37.51" y="111.34" width="15.13" height="55.92"/><path class="cls-2" d="M862.2-10.49a41.7,41.7,0,0,1-37.94,24.37,41.7,41.7,0,0,1-41.7-41.69,41.71,41.71,0,0,1,41.7-41.7A41.7,41.7,0,0,1,862.2-45.14a21.92,21.92,0,0,0-8.45,17.33A21.88,21.88,0,0,0,862.2-10.49Z" transform="translate(-595.58 234.85)"/><path class="cls-3" d="M796.23-36.4a29.71,29.71,0,0,1,18.3-22.07" transform="translate(-595.58 234.85)"/><path class="cls-2" d="M752.92-135.87h139a15.49,15.49,0,0,1,15.46,15.5V-100h-170v-20.36A15.53,15.53,0,0,1,752.92-135.87Z" transform="translate(-595.58 234.85)"/><path class="cls-4" d="M884.55-122.32h0a7.45,7.45,0,0,1,7.45,7.46h0a7.45,7.45,0,0,1-7.45,7.46h0a7.45,7.45,0,0,1-7.45-7.46h0A7.45,7.45,0,0,1,884.55-122.32Z" transform="translate(-595.58 234.85)"/><path class="cls-4" d="M860.11-122.32h0a7.45,7.45,0,0,1,7.45,7.46h0a7.45,7.45,0,0,1-7.45,7.46h0a7.45,7.45,0,0,1-7.45-7.46h0A7.45,7.45,0,0,1,860.11-122.32Z" transform="translate(-595.58 234.85)"/><rect class="cls-4" x="157.21" y="112.53" width="43.45" height="14.91"/></svg>