<svg xmlns="http://www.w3.org/2000/svg" viewBox="0 0 50 50">
  <path d="M33.65625 4C33.148438 4 32.660156 4.183594 32.28125 4.5625L29.65625 7.1875L28.0625 5.5625C27.683594 5.183594 27.164063 5 26.65625 5C26.148438 5 25.660156 5.183594 25.28125 5.5625L1.5625 29.28125C0.800781 30.042969 0.800781 31.300781 1.5625 32.0625L5.78125 36.25C6.105469 36.574219 6.605469 36.640625 7 36.40625C7.734375 35.964844 8.675781 36.050781 9.3125 36.6875C9.949219 37.324219 10.035156 38.265625 9.59375 39C9.359375 39.394531 9.425781 39.894531 9.75 40.21875L13.9375 44.4375C14.699219 45.199219 15.957031 45.199219 16.71875 44.4375L19.3125 41.8125L20.9375 43.4375C21.699219 44.199219 22.957031 44.199219 23.71875 43.4375L47.4375 19.71875C48.199219 18.957031 48.199219 17.699219 47.4375 16.9375L43.21875 12.75C42.894531 12.425781 42.394531 12.359375 42 12.59375C41.265625 13.035156 40.324219 12.949219 39.6875 12.3125C39.050781 11.675781 38.964844 10.734375 39.40625 10C39.640625 9.605469 39.574219 9.105469 39.25 8.78125L35.0625 4.5625C34.683594 4.183594 34.164063 4 33.65625 4 Z M 33.65625 6L33.6875 6L37.5 9.84375C37.078125 11.1875 37.21875 12.65625 38.28125 13.71875C39.34375 14.78125 40.8125 14.921875 42.15625 14.5L46 18.3125L46 18.34375L22.34375 42L22.3125 42L20.75 40.40625L37.5 23.65625L37.8125 23.96875C38.199219 24.367188 38.835938 24.371094 39.234375 23.984375C39.632813 23.597656 39.636719 22.960938 39.25 22.5625L38.9375 22.25L40.4375 20.71875C41.195313 19.957031 41.199219 18.699219 40.4375 17.9375L36.21875 13.75C35.894531 13.425781 35.394531 13.359375 35 13.59375C34.265625 14.035156 33.324219 13.949219 32.6875 13.3125C32.050781 12.675781 31.964844 11.734375 32.40625 11C32.640625 10.605469 32.574219 10.105469 32.25 9.78125L31.09375 8.59375 Z M 26.65625 7L26.6875 7L28.65625 8.96875C28.753906 9.300781 29.011719 9.558594 29.34375 9.65625L30.5 10.84375C30.078125 12.1875 30.21875 13.65625 31.28125 14.71875C32.34375 15.78125 33.8125 15.921875 35.15625 15.5L39 19.34375L36.96875 21.40625C36.945313 21.425781 36.925781 21.445313 36.90625 21.46875L36.8125 21.53125C36.765625 21.578125 36.722656 21.632813 36.6875 21.6875L18.9375 39.375C18.617188 39.480469 18.371094 39.738281 18.28125 40.0625L15.34375 43L11.5 39.15625C11.921875 37.8125 11.78125 36.34375 10.71875 35.28125C9.65625 34.21875 8.1875 34.078125 6.84375 34.5L3 30.6875L3 30.65625L21.625 12.03125L22.46875 12.34375L23.21875 11.8125L23.25 10.90625L23.03125 10.625 Z M 24.3125 12.46875L23.59375 12.96875L23.5625 13.875L23.75 14.15625L24.46875 14.875L25.3125 15.15625L26.03125 14.65625L26.0625 13.75L25.875 13.46875L25.15625 12.75 Z M 27.15625 15.3125L26.40625 15.8125L26.375 16.71875L26.59375 17L27.28125 17.6875L28.125 18L28.875 17.46875L28.90625 16.5625L28.6875 16.28125L28 15.59375 Z M 29.96875 18.125L29.25 18.625L29.21875 19.53125L29.40625 19.8125L30.125 20.53125L30.96875 20.8125L31.6875 20.3125L31.71875 19.40625L31.53125 19.125L30.8125 18.40625 Z M 32.8125 20.96875L32.0625 21.46875L32.03125 22.375L32.25 22.65625L32.9375 23.375L33.78125 23.65625L34.53125 23.125L34.5625 22.25L34.375 21.9375L33.65625 21.25Z" fill="#FFFFFF" />
</svg>