<svg id="Capa_1" data-name="Capa 1" xmlns="http://www.w3.org/2000/svg" viewBox="0 0 380.57 206.18"><defs><style>.cls-1{fill:#333;}</style></defs><title>eye</title><path class="cls-1" d="M335.75-16.81C230-16.81,147.41,81.07,147.41,81.07a7.91,7.91,0,0,0,0,10.41S230,189.36,335.75,189.36,524.08,91.48,524.08,91.48a7.91,7.91,0,0,0,0-10.41S441.47-16.81,335.75-16.81Zm0,15.86C356.6-1,376.51,3.35,395,10a79.17,79.17,0,1,1-118.7,0C294.8,3.32,314.84-1,335.75-1ZM250,21.6a95.09,95.09,0,1,0,180.9,40.89,95.74,95.74,0,0,0-9.17-40.89c44.79,22.77,77,55.79,85.25,64.68-12.89,13.94-84.22,87.23-171.24,87.23S177.4,100.22,164.51,86.28C172.75,77.35,205.12,44.37,250,21.6Zm85.74,1.24A39.65,39.65,0,1,0,375.4,62.49,39.65,39.65,0,0,0,335.75,22.84Z" transform="translate(-145.46 16.81)"/></svg>