<svg id="Capa_1" data-name="Capa 1" xmlns="http://www.w3.org/2000/svg" viewBox="0 0 236 206.19"><defs><style>.cls-1{fill:#333;}</style></defs><title>favorito-red</title><path class="cls-1" d="M376-290.77c-1-2.46-.62-5-1.19-7.46-3.6-15.69-11.52-28.86-24.13-38.94a67.16,67.16,0,0,0-49.78-14.94,68.22,68.22,0,0,0-28.22,9.1,74.65,74.65,0,0,0-13.35,10.12c-1.14,1.06-2,1.18-3.08,0a28.14,28.14,0,0,0-3-2.54c-17-14.48-36.55-19.79-58.43-15.7a65.84,65.84,0,0,0-38.28,22.07,68.08,68.08,0,0,0-13.13,22.23c-1.85,5.22-3.43,10.55-3.43,16.06V-277c1,0.19.47,0.72,0.53,1.14a83.64,83.64,0,0,0,5.88,21.37c6.84,16.38,17.17,30.46,29,43.48,22.39,24.65,48.46,44.84,76.45,62.7,4.35,2.77,8,2.61,12.24-.15a461.71,461.71,0,0,0,38.06-27.21c18.27-14.66,35.31-30.57,49.52-49.3,9.77-12.88,18-26.71,22-42.56,0.8-3.14.3-6.43,2.3-9.48v-2.76q-1.5-.46,0-0.92v-6.9q-1.5-.46,0-0.92v-2.3Zm-26.14,42.28c-9.69,16.74-22.64,30.79-36.71,43.86A406.36,406.36,0,0,1,259.28-163c-0.94.62-1.61,1-2.79,0.17C229.43-180.66,204-200.42,182.59-225c-10.29-11.84-19.23-24.59-24.38-39.59-8.08-23.5-1.16-47.44,17.72-61.73a53.33,53.33,0,0,1,74.94,10.65c4.34,5.82,9.26,5.68,13.78,0,14.26-17.93,32.78-24.82,55.15-20,20.61,4.45,36.48,21.71,40.08,42.52a51.39,51.39,0,0,1,.85,9.14C360.6-271.11,356.22-259.48,349.86-248.49Z" transform="translate(-140 352.47)"/></svg>