<svg id="Capa_1" data-name="Capa 1" xmlns="http://www.w3.org/2000/svg" viewBox="0 0 93.54 92.65"><defs><style>.cls-1{fill:none;stroke:#232c79;stroke-miterlimit:10;stroke-width:4px;}.cls-2{fill:#232c79;}</style></defs><title>financiamiento</title><path class="cls-1" d="M330.44,49l8.19,7.49a5,5,0,0,0,3.15,1.3l11.09,0.47a5,5,0,0,1,4.73,4.32l1.46,10.85a5,5,0,0,0,1.59,3l8.16,7.41a5,5,0,0,1,.85,6.37l-5.93,9.31a5,5,0,0,0-.74,3.34l1.46,11a5,5,0,0,1-3.44,5.41l-10.57,3.34a5,5,0,0,0-2.71,2.08L341.78,134a5,5,0,0,1-6.11,1.93l-10.25-4.24a5,5,0,0,0-3.41-.15l-10.58,3.35a5,5,0,0,1-5.92-2.45l-5.13-9.83a5,5,0,0,0-2.52-2.3l-10.25-4.23a5,5,0,0,1-3-5.68L287,99.58a5,5,0,0,0-.45-3.38l-5.12-9.81a5,5,0,0,1,1.41-6.28l8.73-6.62a5,5,0,0,0,1.85-2.89l2.37-10.67A5,5,0,0,1,300.9,56L312,56.5a5,5,0,0,0,3.25-1L324,48.71A5,5,0,0,1,330.44,49Z" transform="translate(-278.9 -45.68)"/><path class="cls-2" d="M322,82.84c0,8.84-4.65,13.23-10.07,13.23-5.23,0-9.74-4.19-9.81-12.65s4.58-13.1,10.13-13.1C318.08,70.32,322,74.84,322,82.84Zm-15.36.39c-0.13,5.36,1.87,9.42,5.42,9.42,3.74,0,5.42-4,5.42-9.55,0-5.1-1.48-9.36-5.42-9.36C308.47,73.74,306.6,77.93,306.6,83.22Zm4.9,30.46,24.65-43.36h3.61l-24.65,43.36H311.5Zm37.75-13.49c0,8.84-4.65,13.23-10,13.23s-9.74-4.19-9.81-12.58S334,87.68,339.57,87.68C345.44,87.68,349.25,92.19,349.25,100.19Zm-15.36.39c-0.06,5.36,2,9.42,5.48,9.42,3.74,0,5.42-4,5.42-9.55,0-5.1-1.48-9.36-5.42-9.36C335.83,91.1,333.89,95.29,333.89,100.58Z" transform="translate(-278.9 -45.68)"/></svg>