<svg width="18" height="21" viewBox="0 0 18 21" fill="none" xmlns="http://www.w3.org/2000/svg">
<path d="M3.548 7.36899C3.548 7.36899 1 8.77098 1 13.2C1 17.629 5.259 20.286 8.972 20.286C12.685 20.286 16.944 17.629 16.944 13.2C16.944 8.77098 15.312 6.28899 13.837 5.60699C14.0052 6.92845 13.8156 8.27082 13.288 9.49399C12.5051 9.22602 11.844 8.68667 11.4243 7.97351C11.0046 7.26035 10.8541 6.42051 11 5.60599C11.539 2.67699 8.625 1 8.625 1C8.625 1 9.131 2.69999 7.214 5.60599C5.297 8.51199 6.83 11.582 6.83 12.597C6.826 12.597 2.9 10.692 3.548 7.36899Z" stroke="white" stroke-linejoin="round"/>
</svg>
