<svg id="Capa_1" data-name="Capa 1" xmlns="http://www.w3.org/2000/svg" viewBox="0 0 96.61 96.65"><defs><style>.cls-1{fill:none;stroke:#232c79;stroke-miterlimit:10;stroke-width:4px;}</style></defs><title>garantia</title><circle class="cls-1" cx="48.31" cy="48.17" r="46.17"/><path class="cls-1" d="M71,92V71.5l1.32-.22a34.54,34.54,0,0,1,12.66,0l1,0.22V92" transform="translate(-30.69 -68.38)"/><path class="cls-1" d="M54,124H33.5l-0.22-1a35.53,35.53,0,0,1,0-12.84L33.5,109H54" transform="translate(-30.69 -68.38)"/><path class="cls-1" d="M104,109h20.48l0.22,1.31a33.72,33.72,0,0,1,0,12.66l-0.22,1H104" transform="translate(-30.69 -68.38)"/><path class="cls-1" d="M86,142v20.24l-0.94.21a35.56,35.56,0,0,1-12.85,0L71,162.24V142" transform="translate(-30.69 -68.38)"/><circle class="cls-1" cx="48.31" cy="48.17" r="24.67"/></svg>