<svg xmlns="http://www.w3.org/2000/svg" viewBox="0 0 50 50">
  <path d="M6 8C3.25 8 1 10.25 1 13L1 36C1 38.75 3.25 41 6 41L44 41C46.75 41 49 38.75 49 36L49 13C49 10.25 46.75 8 44 8 Z M 6 10L16 10L16 13.6875C16.347656 13.851563 16.683594 14.042969 17 14.265625C17.316406 14.042969 17.652344 13.851563 18 13.6875L18 10L44 10C45.667969 10 47 11.332031 47 13L47 23L27.320313 23C26.960938 23.753906 26.460938 24.421875 25.871094 25L47 25L47 36C47 37.667969 45.667969 39 44 39L18 39L18 29.28125L17 28.296875L16 29.28125L16 39L6 39C4.332031 39 3 37.667969 3 36L3 25L8.132813 25C7.539063 24.421875 7.039063 23.753906 6.679688 23L3 23L3 13C3 11.332031 4.332031 10 6 10 Z M 13 15C12.828125 15 12.65625 15.007813 12.488281 15.027344C12.324219 15.042969 12.15625 15.070313 11.996094 15.101563C10.042969 15.5 8.5 17.042969 8.101563 18.996094C8.035156 19.320313 8 19.65625 8 20C8 20.34375 8.035156 20.679688 8.101563 21.003906C8.5 22.957031 10.042969 24.5 11.996094 24.898438C12.320313 24.964844 12.65625 25 13 25L14.644531 25L10.296875 29.285156L11.703125 30.714844L17 25.488281L22.296875 30.714844L23.703125 29.285156L19.355469 25L21 25C21.34375 25 21.679688 24.964844 22.003906 24.898438C23.957031 24.5 25.5 22.953125 25.898438 21.003906C25.964844 20.679688 26 20.34375 26 20C26 19.65625 25.964844 19.320313 25.898438 18.996094C25.5 17.042969 23.953125 15.5 22.003906 15.101563C21.679688 15.035156 21.34375 15 21 15C20.804688 15 20.617188 15.011719 20.425781 15.035156C20.382813 15.039063 20.339844 15.050781 20.292969 15.058594C20.167969 15.074219 20.046875 15.097656 19.925781 15.125C19.660156 15.183594 19.40625 15.261719 19.15625 15.363281C19.078125 15.394531 19 15.433594 18.921875 15.46875C18.726563 15.5625 18.535156 15.664063 18.355469 15.78125C18.238281 15.851563 18.128906 15.929688 18.019531 16.011719C17.898438 16.105469 17.78125 16.203125 17.667969 16.308594C17.5625 16.398438 17.460938 16.492188 17.367188 16.59375C17.238281 16.730469 17.113281 16.878906 17 17.03125C16.886719 16.878906 16.761719 16.730469 16.632813 16.59375C16.539063 16.492188 16.4375 16.398438 16.332031 16.308594C16.21875 16.203125 16.101563 16.105469 15.980469 16.011719C15.871094 15.929688 15.761719 15.851563 15.644531 15.78125C15.464844 15.664063 15.273438 15.5625 15.078125 15.46875C15 15.433594 14.921875 15.394531 14.84375 15.363281C14.59375 15.261719 14.339844 15.183594 14.074219 15.125C13.953125 15.097656 13.832031 15.074219 13.707031 15.058594C13.660156 15.050781 13.617188 15.039063 13.574219 15.035156C13.382813 15.011719 13.195313 15 13 15 Z M 13 17C13.207031 17 13.410156 17.019531 13.605469 17.0625C13.605469 17.0625 13.605469 17.058594 13.609375 17.0625C14.972656 17.34375 16 18.554688 16 20L16 23L13 23C12.792969 23 12.589844 22.980469 12.394531 22.9375C11.226563 22.699219 10.300781 21.777344 10.0625 20.609375C10.058594 20.605469 10.0625 20.605469 10.0625 20.605469C10.019531 20.410156 10 20.207031 10 20C10 19.792969 10.019531 19.589844 10.0625 19.394531C10.300781 18.226563 11.222656 17.300781 12.390625 17.0625C12.589844 17.019531 12.792969 17 13 17 Z M 21 17C21.207031 17 21.410156 17.019531 21.605469 17.0625C21.605469 17.0625 21.605469 17.058594 21.609375 17.0625C22.773438 17.300781 23.699219 18.226563 23.9375 19.390625C23.941406 19.394531 23.9375 19.394531 23.9375 19.394531C23.980469 19.589844 24 19.792969 24 20C24 20.207031 23.980469 20.410156 23.9375 20.605469C23.9375 20.605469 23.941406 20.605469 23.9375 20.609375C23.65625 21.972656 22.445313 23 21 23L18 23L18 20C18 19.792969 18.019531 19.589844 18.0625 19.390625C18.300781 18.226563 19.226563 17.300781 20.390625 17.0625C20.589844 17.019531 20.792969 17 21 17 Z M 32 33C31.449219 33 31 33.449219 31 34C31 34.550781 31.449219 35 32 35C32.550781 35 33 34.550781 33 34C33 33.449219 32.550781 33 32 33 Z M 35 33C34.449219 33 34 33.449219 34 34C34 34.550781 34.449219 35 35 35C35.550781 35 36 34.550781 36 34C36 33.449219 35.550781 33 35 33 Z M 38 33C37.449219 33 37 33.449219 37 34C37 34.550781 37.449219 35 38 35C38.550781 35 39 34.550781 39 34C39 33.449219 38.550781 33 38 33 Z M 41 33C40.449219 33 40 33.449219 40 34C40 34.550781 40.449219 35 41 35C41.550781 35 42 34.550781 42 34C42 33.449219 41.550781 33 41 33Z" fill="#FFFFFF" />
</svg>