<svg id="Capa_1" data-name="Capa 1" xmlns="http://www.w3.org/2000/svg" viewBox="0 0 497.92 305.9"><defs><style>.cls-1{fill:#2f3a96;}.cls-2{fill:#cb5b4a;}.cls-3{fill:#fe725c;}.cls-4{fill:#da624f;}.cls-5{fill:#ef6b57;}</style></defs><title>gift-card-1</title><path class="cls-1" d="M729.78-222.92c0,38.82.39,77.64-.05,116.45-0.23,20.29-16.84,36.28-37.18,37.32-2.33.12-4.66,0.08-7,.08H445.64c-2,0-4-.09-6-0.13-1.43-1.88-1.23-4.1-1.23-6.24q-0.06-34.95,0-69.9a12.71,12.71,0,0,1,.9-5.85c3.06-2.49,3.35,1,4,2.22,3.83,7.37,8.19,14.46,12,23,2-7.26,3.54-13.6,4.9-20,0.76-3.58,1.73-7.12,2.67-10.66s3-4.8,6.71-4.06c8.65,1.75,17.26,3.67,25.9,5.5,2.1,0.44,4.17,1,6.91,1.34-3.85-6.05-7.34-11.67-11-17.16-5.65-8.45-11-17.09-16.59-25.56-1.12-1.7-2.92-3.37-1.56-5.8,2.51-1.13,4.89.09,7.31,0.41,6.78,0.89,13.56,1.24,20.27-.41,9.2-2.25,16.21-7.34,20.43-16,1.15-2.37,2.2-4.92,5.13-5.76a29.12,29.12,0,0,1,7-.46q93.95,0,187.89,0C724.14-224.6,727.28-225.26,729.78-222.92Z" transform="translate(-232.03 374.95)"/><path class="cls-1" d="M439.67-374.79c7.16,0,14.32-.13,21.47-0.13q113.9,0,227.81,0c19.47,0,34.38,10.8,39.33,28.41a35.85,35.85,0,0,1,1.53,9.31c0.11,17.65,0,35.3,0,52.95-1.76,2-4.19,1.83-6.49,1.83q-95.66.06-191.33,0a14.39,14.39,0,0,1-5.87-.89,9.08,9.08,0,0,1-3.86-4.42c-8.28-16.16-21.94-21.5-39.22-17.17-10.94,2.74-20.77,8-30.24,13.94-2.67,1.69-5.21,3.6-7.95,5.18-1.69,1-3.5,2.24-5.4.25-1.25-2.32-1-4.85-1-7.32q0-37.37,0-74.73C438.41-370,438-372.59,439.67-374.79Z" transform="translate(-232.03 374.95)"/><path class="cls-1" d="M378-69.22c-36.1,0-72.21.38-108.31,0a38,38,0,0,1-37.48-37.36c-0.38-38.76-.06-77.53,0-116.3a5.16,5.16,0,0,1,4.08-1.56c17.47,0,34.94-.63,52.39.32a6.33,6.33,0,0,1,3.93,3.55c10,19,24.44,20.86,42.88,18.62,2.11-.26,4.17-1.2,6.34-0.38,1.89,2.64-.37,4.38-1.54,6.18l-25.82,39.82a3.83,3.83,0,0,0-1.07,2.49c10.27-2,20.44-4.25,30.61-6.46,6.63-1.44,7.21-1.06,8.91,5.55,2.39,9.32,4.24,18.76,6.84,28.37,5.26-9,9.45-18.22,14.56-26.94,0.86-1.47.92-4.77,4.26-3,1.23,2.33,1,4.86,1,7.33q0,36.11,0,72.22C379.58-74.2,380.07-71.43,378-69.22Z" transform="translate(-232.03 374.95)"/><path class="cls-2" d="M525-284.87c1.73,0.81,3.58.65,5.41,0.65l199.39,0v61.32l-204.71,0c-1.31-1.52-.67-3.15-0.2-4.71,5.21-17.33,4.74-34.67.22-52C524.65-281.34,523.76-283.09,525-284.87Z" transform="translate(-232.03 374.95)"/><path class="cls-1" d="M232.22-284.24c0-17.65-.39-35.31,0-53,0.43-20.48,16.85-37.29,37.38-37.54,36.14-.43,72.28-0.07,108.43,0,1.86,1.88,1.57,4.31,1.58,6.6q0.07,38.72,0,77.44c0,2.46.24,5.06-1.76,7-2.74,1.49-4.72-.25-6.79-1.63-9.85-6.56-19.79-12.95-31-17.05-7.42-2.72-15-4.38-23-3.47-11.36,1.3-18.72,7.91-23.89,17.54-1.17,2.17-1.78,4.77-4.66,5.49-17.45.9-34.89,0.33-52.33,0.3A4.78,4.78,0,0,1,232.22-284.24Z" transform="translate(-232.03 374.95)"/><path class="cls-2" d="M378-69.22q0-41.15-.09-82.31c0-1.73.77-3.68-.84-5.18-0.77-1-.31-1.93.17-2.78,9.59-17.14,18.56-34.61,27.71-52a4.48,4.48,0,0,1,1.73-1.77,2.21,2.21,0,0,1,1.48-.05c3.1,2.49,4.44,6.21,6.2,9.53,8.64,16.33,17,32.78,26.11,48.88,0.55,1,1.31,2,.39,3.2-2.06,1.51-1.06,3.7-1.07,5.54q-0.17,38.47-.16,76.94H378Z" transform="translate(-232.03 374.95)"/><path class="cls-2" d="M376-284c3.22-.85,1.94-3.5,1.95-5.39q0.13-42.69.08-85.37h61.67q0,42.28.13,84.56c0,1.87-.82,4,1.15,5.55-2.21,3.79-5.13,6.58-9.8,6.89-1.46-1.18-1.35-3-1.72-4.55-1.5-6.51-4.7-9.67-11.21-10.12a160.66,160.66,0,0,0-21.44,0c-5.65.37-8.84,4.08-10.69,9.15-0.67,1.84-.53,4-2.23,5.44C379.93-278.26,377-279.9,376-284Z" transform="translate(-232.03 374.95)"/><path class="cls-2" d="M232.22-284.24l57.66,0c1.15,1.55.62,3.23,0.2,4.79a98.29,98.29,0,0,0,.19,51.73c0.43,1.57.93,3.25-.27,4.78l-57.78.06Q232.22-253.58,232.22-284.24Z" transform="translate(-232.03 374.95)"/><path class="cls-3" d="M432-278l8.95-6.72c13.11-8.84,26.25-17.66,41.94-21.43,20.11-4.83,33.86,2.15,42.09,21.23a97.25,97.25,0,0,1,.09,62c-8.29,20.28-24.37,25.57-45.17,22.15-2.28-.38-4.57-0.77-6.85-1.16-6.54.66-12-2.76-17.47-5.26-9.21-4.2-18.24-8.94-25.18-16.71a5.05,5.05,0,0,1-.62-1.89c-0.74-16.05-.39-32.11-0.18-48.17A4,4,0,0,1,432-278Z" transform="translate(-232.03 374.95)"/><path class="cls-4" d="M432-223c10,7.41,20.41,14.12,32.3,18.16l8.75,3,32.09,50c-7.84-1.64-14.82-3.08-21.78-4.56-4.87-1-9.77-2-14.58-3.24-3.08-.82-4.14.37-4.77,3.17-2.26,10-4.67,20-7,30.06-0.22.93-.55,1.83-1.18,3.88l-14.91-29.1L408-213c1.92-1.86,4.36-1.26,6.62-1.35,5.73-.22,10.85-1.51,13.91-7C429.22-222.64,430.07-224.17,432-223Z" transform="translate(-232.03 374.95)"/><path class="cls-3" d="M290-223c-6.16-20.42-6.44-40.86-.12-61.3C294.71-295.75,302-304.6,315-307c9-1.64,17.53.34,25.88,3.5,11.61,4.4,22,10.91,32.15,18,0.95,0.66,1.68,1.6,3,1.47l7,6c2.38,1.14,2.5,3.4,2.5,5.54,0,15.58.35,31.17-.14,46.74-0.25,2.13-1.57,3.56-3.16,4.84a105.26,105.26,0,0,1-35.36,18.72,7,7,0,0,1-4.86.23,67.6,67.6,0,0,1-22.2,2c-11.92-1.11-21-6.74-26.77-17.33C292-219.16,291-221.08,290-223Z" transform="translate(-232.03 374.95)"/><path class="cls-4" d="M342-201.92c15.56-4.4,29.74-11.44,42-22.06,1.79-.25,2.15,1.28,2.74,2.35,2.87,5.21,7.47,7.15,13.16,7.31,2.4,0.07,5-.63,7.09,1.32-9.61,19-19.51,37.75-29.9,56.28L359.4-122.36c-2.9-12-5.71-22.64-7.94-33.39-0.84-4-2.17-4.56-6-3.65-11.42,2.73-22.95,5-35.43,7.63,3.79-5.9,7.1-11,10.32-16.12C327.53-179.26,335.46-190.14,342-201.92Z" transform="translate(-232.03 374.95)"/><path class="cls-5" d="M407-213c-3,0-5.91.08-8.86,0-7.3-.27-11.49-4.63-14.14-11q0-23.87,0-47.74c0-2.15.23-4.33-1-6.28,2-3.7,1.56-8.3,4.92-11.6A14,14,0,0,1,398.51-294c6,0.11,11.94,0,17.91,0,9.12,0.06,13.54,4.13,14.56,13.38,0.11,1,.09,2,1,2.66a8.81,8.81,0,0,0-1,4.79q0,22.67,0,45.34a8.91,8.91,0,0,0,1,4.79,0.94,0.94,0,0,0-.47.09c-5,10-14.06,10.49-23.54,9.93h-1Z" transform="translate(-232.03 374.95)"/></svg>