<svg id="Capa_1" data-name="Capa 1" xmlns="http://www.w3.org/2000/svg" viewBox="0 0 514.8 148.08"><defs><style>.cls-1,.cls-2,.cls-3,.cls-4{fill:none;}.cls-1,.cls-3,.cls-4{stroke:#ffffff4a;stroke-miterlimit:10;stroke-width:2px;}.cls-3,.cls-4{stroke-linecap:round;}.cls-4{stroke-dasharray:12.12 12.12;}</style></defs><title>enviar</title><path d="M-483.5,1046.77" transform="translate(486.33 -969.59)"/><path class="cls-1" d="M27.47,970.67L16.6,1007.2a0.16,0.16,0,0,1-.25.08L1.44,994.82a0.29,0.29,0,0,0-.44.09l-5,9.9a0,0,0,0,1-.09,0l-2.42-13.92-14.67-5.12a0.19,0.19,0,0,1,0-.37l48.52-14.8A0.07,0.07,0,0,1,27.47,970.67Z" transform="translate(486.33 -969.59)"/><path class="cls-1" d="M-6.48,990.88L26.25,971.3a0.14,0.14,0,0,1,.17.23L0.89,995" transform="translate(486.33 -969.59)"/><path class="cls-1" d="M-0.42,995.53" transform="translate(486.33 -969.59)"/><path class="cls-2" d="M-0.42,995.53" transform="translate(486.33 -969.59)"/><path class="cls-2" d="M2.45,994.39" transform="translate(486.33 -969.59)"/><path class="cls-3" d="M-31.67,995.28q-3-.45-6-0.76" transform="translate(486.33 -969.59)"/><path class="cls-4" d="M-49.71,993.8c-67.06-.93-109.84,49.71-109.84,49.71-86.55,120.84-221.92,15.86-221.92,15.86s-32.86-34.7-75.89-12.55c-29.67,15.27-29.63,42.68-26.75,58.24" transform="translate(486.33 -969.59)"/><path class="cls-3" d="M-482.77,1111a53.77,53.77,0,0,0,1.84,5.71" transform="translate(486.33 -969.59)"/></svg>