<svg width="16" height="14" viewBox="0 0 16 14" fill="none" xmlns="http://www.w3.org/2000/svg">
<path d="M0 4.05067V10.6667C0 11.3739 0.280951 12.0522 0.781048 12.5523C1.28115 13.0524 1.95942 13.3333 2.66667 13.3333H13.3333C14.0406 13.3333 14.7189 13.0524 15.219 12.5523C15.719 12.0522 16 11.3739 16 10.6667V2.66667C16 1.95942 15.719 1.28115 15.219 0.781048C14.7189 0.280951 14.0406 0 13.3333 0H2.66667C1.95942 0 1.28115 0.280951 0.781048 0.781048C0.280951 1.28115 0 1.95942 0 2.66667V4.05067ZM2.66667 1.33333H13.3333C13.687 1.33333 14.0261 1.47381 14.2761 1.72386C14.5262 1.97391 14.6667 2.31304 14.6667 2.66667V3.65333L8 7.24267L1.33333 3.65333V2.66667C1.33333 2.31304 1.47381 1.97391 1.72386 1.72386C1.97391 1.47381 2.31304 1.33333 2.66667 1.33333V1.33333ZM1.33333 5.168L7.684 8.58667C7.78112 8.63895 7.8897 8.66632 8 8.66632C8.1103 8.66632 8.21888 8.63895 8.316 8.58667L14.6667 5.168V10.6667C14.6667 11.0203 14.5262 11.3594 14.2761 11.6095C14.0261 11.8595 13.687 12 13.3333 12H2.66667C2.31304 12 1.97391 11.8595 1.72386 11.6095C1.47381 11.3594 1.33333 11.0203 1.33333 10.6667V5.168Z" fill="#333333"/>
</svg>
