<svg id="Capa_1" data-name="Capa 1" xmlns="http://www.w3.org/2000/svg" viewBox="0 0 512 384"><defs><style>.cls-1{fill:#232c79;}</style></defs><title>mail</title><path class="cls-1" d="M1699.19-142.44a6,6,0,0,1,8.42,1,6,6,0,0,1,1.28,3.68V66.76a48,48,0,0,1-48,48h-416a48,48,0,0,1-48-48v-204.4a6,6,0,0,1,6-6,6,6,0,0,1,3.68,1.28c22.4,17.4,52.1,39.5,154.1,113.6,21.1,15.4,56.7,47.8,92.2,47.6,35.7,0.3,72-32.8,92.3-47.6C1647.19-102.84,1676.79-125,1699.19-142.44Zm-246.3,129.2c23.2,0.4,56.6-29.2,73.4-41.4,132.7-96.3,142.8-104.7,173.4-128.7a23.93,23.93,0,0,0,9.2-18.9v-19a48,48,0,0,0-48-48h-416a48,48,0,0,0-48,48v19a24.08,24.08,0,0,0,9.2,18.9c30.6,23.9,40.7,32.4,173.4,128.7,16.8,12.2,50.2,41.8,73.4,41.4h0Z" transform="translate(-1196.89 269.24)"/></svg>