<svg width="16" height="21" viewBox="0 0 16 21" fill="none" xmlns="http://www.w3.org/2000/svg">
<path d="M14.5455 8.01063C14.5455 6.27236 13.8558 4.60529 12.6283 3.37615C11.4008 2.147 9.73596 1.45648 8 1.45648C6.26404 1.45648 4.59918 2.147 3.37166 3.37615C2.14415 4.60529 1.45455 6.27236 1.45455 8.01063C1.45455 10.6993 3.60291 14.2036 8 18.4011C12.3971 14.2036 14.5455 10.6993 14.5455 8.01063ZM8 20.3907C2.66618 15.5363 0 11.4086 0 8.01063C0 5.88608 0.842855 3.84854 2.34315 2.34626C3.84344 0.843975 5.87827 0 8 0C10.1217 0 12.1566 0.843975 13.6569 2.34626C15.1571 3.84854 16 5.88608 16 8.01063C16 11.4086 13.3338 15.5363 8 20.3907Z" fill="#333333"/>
<circle cx="8" cy="8" r="2.4" fill="#C4C4C4" stroke="#333333" stroke-width="1.2"/>
</svg>
