<svg width="100" height="100" viewBox="0 0 100 100" fill="none" xmlns="http://www.w3.org/2000/svg">
<rect width="100" height="100" rx="50" fill="#D9D9D9"/>
<path d="M16.1136 59V41.5455H18.2273V57.125H26.3409V59H16.1136ZM45.1012 50.2727C45.1012 52.1136 44.7688 53.7045 44.1041 55.0455C43.4393 56.3864 42.5274 57.4205 41.3683 58.1477C40.2092 58.875 38.8853 59.2386 37.3967 59.2386C35.908 59.2386 34.5842 58.875 33.4251 58.1477C32.266 57.4205 31.3541 56.3864 30.6893 55.0455C30.0245 53.7045 29.6921 52.1136 29.6921 50.2727C29.6921 48.4318 30.0245 46.8409 30.6893 45.5C31.3541 44.1591 32.266 43.125 33.4251 42.3977C34.5842 41.6705 35.908 41.3068 37.3967 41.3068C38.8853 41.3068 40.2092 41.6705 41.3683 42.3977C42.5274 43.125 43.4393 44.1591 44.1041 45.5C44.7688 46.8409 45.1012 48.4318 45.1012 50.2727ZM43.0558 50.2727C43.0558 48.7614 42.8029 47.4858 42.2972 46.446C41.7972 45.4062 41.1183 44.6193 40.2603 44.0852C39.408 43.5511 38.4535 43.2841 37.3967 43.2841C36.3399 43.2841 35.3825 43.5511 34.5245 44.0852C33.6722 44.6193 32.9933 45.4062 32.4876 46.446C31.9876 47.4858 31.7376 48.7614 31.7376 50.2727C31.7376 51.7841 31.9876 53.0597 32.4876 54.0994C32.9933 55.1392 33.6722 55.9261 34.5245 56.4602C35.3825 56.9943 36.3399 57.2614 37.3967 57.2614C38.4535 57.2614 39.408 56.9943 40.2603 56.4602C41.1183 55.9261 41.7972 55.1392 42.2972 54.0994C42.8029 53.0597 43.0558 51.7841 43.0558 50.2727ZM62.027 47C61.8395 46.4261 61.5924 45.9119 61.2855 45.4574C60.9844 44.9972 60.6236 44.6051 60.2032 44.2812C59.7884 43.9574 59.3168 43.7102 58.7884 43.5398C58.26 43.3693 57.6804 43.2841 57.0497 43.2841C56.0157 43.2841 55.0753 43.5511 54.2287 44.0852C53.3821 44.6193 52.7088 45.4062 52.2088 46.446C51.7088 47.4858 51.4588 48.7614 51.4588 50.2727C51.4588 51.7841 51.7117 53.0597 52.2174 54.0994C52.723 55.1392 53.4077 55.9261 54.2713 56.4602C55.135 56.9943 56.1066 57.2614 57.1861 57.2614C58.1861 57.2614 59.0668 57.0483 59.8282 56.6222C60.5952 56.1903 61.1918 55.5824 61.6179 54.7983C62.0497 54.0085 62.2657 53.0795 62.2657 52.0114L62.9134 52.1477H57.6634V50.2727H64.3111V52.1477C64.3111 53.5852 64.0043 54.8352 63.3907 55.8977C62.7827 56.9602 61.9418 57.7841 60.8679 58.3693C59.7997 58.9489 58.5725 59.2386 57.1861 59.2386C55.6407 59.2386 54.2827 58.875 53.1122 58.1477C51.9475 57.4205 51.0384 56.3864 50.385 55.0455C49.7372 53.7045 49.4134 52.1136 49.4134 50.2727C49.4134 48.892 49.598 47.6506 49.9674 46.5483C50.3424 45.4403 50.8708 44.4972 51.5526 43.7188C52.2344 42.9403 53.0412 42.3438 53.973 41.929C54.9049 41.5142 55.9304 41.3068 57.0497 41.3068C57.9702 41.3068 58.8282 41.446 59.6236 41.7244C60.4247 41.9972 61.1378 42.3864 61.7628 42.892C62.3935 43.392 62.9191 43.9915 63.3395 44.6903C63.76 45.3835 64.0497 46.1534 64.2088 47H62.027ZM84.0984 50.2727C84.0984 52.1136 83.766 53.7045 83.1012 55.0455C82.4365 56.3864 81.5245 57.4205 80.3655 58.1477C79.2064 58.875 77.8825 59.2386 76.3939 59.2386C74.9052 59.2386 73.5814 58.875 72.4223 58.1477C71.2632 57.4205 70.3512 56.3864 69.6865 55.0455C69.0217 53.7045 68.6893 52.1136 68.6893 50.2727C68.6893 48.4318 69.0217 46.8409 69.6865 45.5C70.3512 44.1591 71.2632 43.125 72.4223 42.3977C73.5814 41.6705 74.9052 41.3068 76.3939 41.3068C77.8825 41.3068 79.2064 41.6705 80.3655 42.3977C81.5245 43.125 82.4365 44.1591 83.1012 45.5C83.766 46.8409 84.0984 48.4318 84.0984 50.2727ZM82.053 50.2727C82.053 48.7614 81.8001 47.4858 81.2944 46.446C80.7944 45.4062 80.1155 44.6193 79.2575 44.0852C78.4052 43.5511 77.4507 43.2841 76.3939 43.2841C75.337 43.2841 74.3797 43.5511 73.5217 44.0852C72.6694 44.6193 71.9905 45.4062 71.4848 46.446C70.9848 47.4858 70.7348 48.7614 70.7348 50.2727C70.7348 51.7841 70.9848 53.0597 71.4848 54.0994C71.9905 55.1392 72.6694 55.9261 73.5217 56.4602C74.3797 56.9943 75.337 57.2614 76.3939 57.2614C77.4507 57.2614 78.4052 56.9943 79.2575 56.4602C80.1155 55.9261 80.7944 55.1392 81.2944 54.0994C81.8001 53.0597 82.053 51.7841 82.053 50.2727Z" fill="white"/>
</svg>
