<svg xmlns="http://www.w3.org/2000/svg" width="50" height="50" viewBox="0 0 50 50">
  <path d="M33.226562 8.34375 A 1.0001 1.0001 0 0 0 32.685547 8.4921875L28.849609 10.787109C28.409011 10.950022 27.924706 10.95253 27.488281 10.775391 A 1.0001 1.0001 0 0 0 27.488281 10.773438L27.298828 10.697266C24.818478 9.6901747 21.984768 10.087164 19.875 11.734375L19.080078 12.355469 A 1.0001 1.0001 0 0 0 18.826172 12.421875C14.266697 14.245665 10.736328 11.976563 10.736328 11.976562 A 1.000803 1.000803 0 1 0 9.6660156 13.667969C9.6660156 13.667969 12.116194 15.165717 15.578125 15.085938L13.314453 16.853516C11.632122 18.166162 11.328263 20.624674 12.640625 22.306641C13.953272 23.988972 16.411784 24.290878 18.09375 22.978516L22.839844 19.271484C23.158445 19.454048 23.550638 19.665833 24.431641 19.994141L26.416016 22.482422L34.439453 32.552734 A 1.0001 1.0001 0 0 0 34.449219 32.5625C35.033788 33.27506 34.880583 34.294411 34.111328 34.802734C33.452206 35.23828 32.595632 35.108741 32.09375 34.498047L31.632812 33.939453 A 1.0001 1.0001 0 0 0 31.632812 33.9375L31.408203 33.664062 A 1.0001 1.0001 0 0 0 31.40625 33.662109 A 1.0001 1.0001 0 0 0 31.339844 33.587891 A 1.0001 1.0001 0 0 0 31.1875 33.460938 A 1.0001 1.0001 0 0 0 31.101562 33.408203 A 1.0001 1.0001 0 0 0 31.013672 33.365234 A 1.0001 1.0001 0 0 0 31.011719 33.365234 A 1.0001 1.0001 0 0 0 30.521484 33.292969 A 1.0001 1.0001 0 0 0 30.423828 33.306641 A 1.0001 1.0001 0 0 0 30.142578 33.410156 A 1.0001 1.0001 0 0 0 30.058594 33.462891 A 1.0001 1.0001 0 0 0 29.978516 33.523438 A 1.0001 1.0001 0 0 0 29.90625 33.591797 A 1.0001 1.0001 0 0 0 29.652344 34.517578 A 1.0001 1.0001 0 0 0 29.679688 34.613281 A 1.0001 1.0001 0 0 0 29.763672 34.794922 A 1.0001 1.0001 0 0 0 29.818359 34.876953 A 1.0001 1.0001 0 0 0 29.818359 34.878906 A 1.0001 1.0001 0 0 0 29.861328 34.933594L30.087891 35.207031C30.672541 35.919554 30.515825 36.940669 29.746094 37.447266C29.088312 37.879888 28.232076 37.751436 27.732422 37.142578 A 1.0001 1.0001 0 0 0 27.732422 37.140625L27.279297 36.587891L27.275391 36.585938L27.048828 36.310547 A 1.0001 1.0001 0 0 0 27.048828 36.308594 A 1.0001 1.0001 0 0 0 26.982422 36.234375 A 1.0001 1.0001 0 0 0 26.744141 36.054688 A 1.0001 1.0001 0 0 0 26.654297 36.011719 A 1.0001 1.0001 0 0 0 26.462891 35.953125 A 1.0001 1.0001 0 0 0 26.269531 35.933594 A 1.0001 1.0001 0 0 0 26.263672 35.933594 A 1.0001 1.0001 0 0 0 25.875 36.013672 A 1.0001 1.0001 0 0 0 25.548828 36.240234 A 1.0001 1.0001 0 0 0 25.482422 36.3125 A 1.0001 1.0001 0 0 0 25.482422 36.314453 A 1.0001 1.0001 0 0 0 25.423828 36.394531 A 1.0001 1.0001 0 0 0 25.423828 36.396484 A 1.0001 1.0001 0 0 0 25.375 36.482422 A 1.0001 1.0001 0 0 0 25.375 36.484375 A 1.0001 1.0001 0 0 0 25.333984 36.572266 A 1.0001 1.0001 0 0 0 25.333984 36.574219 A 1.0001 1.0001 0 0 0 25.302734 36.667969 A 1.0001 1.0001 0 0 0 25.302734 36.669922 A 1.0001 1.0001 0 0 0 25.28125 36.765625 A 1.0001 1.0001 0 0 0 25.28125 36.767578 A 1.0001 1.0001 0 0 0 25.269531 36.865234 A 1.0001 1.0001 0 0 0 25.269531 36.867188 A 1.0001 1.0001 0 0 0 25.267578 36.964844 A 1.0001 1.0001 0 0 0 25.267578 36.974609 A 1.0001 1.0001 0 0 0 25.314453 37.230469 A 1.0001 1.0001 0 0 0 25.322266 37.257812 A 1.0001 1.0001 0 0 0 25.322266 37.259766 A 1.0001 1.0001 0 0 0 25.359375 37.351562 A 1.0001 1.0001 0 0 0 25.382812 37.398438 A 1.0001 1.0001 0 0 0 25.404297 37.439453 A 1.0001 1.0001 0 0 0 25.40625 37.441406 A 1.0001 1.0001 0 0 0 25.458984 37.523438 A 1.0001 1.0001 0 0 0 25.460938 37.525391 A 1.0001 1.0001 0 0 0 25.503906 37.578125 A 1.0001 1.0001 0 0 0 25.503906 37.580078L25.630859 37.732422L25.730469 37.855469C26.312652 38.56416 26.161306 39.582735 25.396484 40.091797C24.739421 40.528823 23.87625 40.399466 23.375 39.789062L22.923828 39.240234 A 1.0001 1.0001 0 0 0 22.923828 39.238281L22.691406 38.955078 A 1.0001 1.0001 0 0 0 22.669922 38.929688L22.560547 38.798828 A 1.0001 1.0001 0 1 0 21.017578 40.070312L21.144531 40.224609L21.378906 40.511719C21.952387 41.213996 21.810038 42.217731 21.0625 42.732422C20.402898 43.184371 19.530785 43.061212 19.023438 42.443359L17.134766 40.146484L17.476562 39.865234 A 1.0001 1.0001 0 0 0 17.478516 39.865234C18.818481 38.763356 19.015182 36.752918 17.914062 35.412109C17.382469 34.7648 16.637103 34.397628 15.859375 34.300781C15.915485 33.519089 15.700069 32.715433 15.167969 32.068359C14.636375 31.42105 13.891009 31.053878 13.113281 30.957031C13.169871 30.175023 12.955707 29.372267 12.423828 28.724609C11.892206 28.077264 11.144961 27.710102 10.367188 27.613281C10.423298 26.831852 10.20887 26.028313 9.6777344 25.380859C8.5767215 24.04018 6.5680615 23.842866 5.2265625 24.943359L4.8847656 25.224609L2.7734375 22.654297 A 1.0001 1.0001 0 1 0 1.2265625 23.921875L3.4667969 26.652344C2.7766911 27.771473 2.7980872 29.243021 3.6738281 30.310547C4.205846 30.958373 4.9520652 31.325404 5.7304688 31.421875C5.6743618 32.203301 5.8868354 33.006847 6.4179688 33.654297 A 1.0001 1.0001 0 0 0 6.4199219 33.654297C6.9515153 34.301607 7.6968816 34.668778 8.4746094 34.765625C8.4184994 35.547055 8.6329264 36.350593 9.1640625 36.998047C9.695685 37.645392 10.442929 38.012554 11.220703 38.109375C11.164553 38.890847 11.37899 39.694306 11.910156 40.341797C12.786468 41.408862 14.226508 41.717215 15.458984 41.257812L17.476562 43.712891C18.631215 45.119038 20.692962 45.410864 22.193359 44.382812C23.003352 43.82644 23.48466 42.980794 23.642578 42.082031C24.604523 42.35309 25.621537 42.342741 26.503906 41.755859 A 1.0001 1.0001 0 0 0 26.505859 41.755859C27.337386 41.2024 27.83183 40.347584 27.994141 39.435547C28.951476 39.706546 29.964694 39.69858 30.845703 39.119141C31.685278 38.566577 32.188016 37.706543 32.351562 36.789062C33.312277 37.062708 34.328993 37.05478 35.212891 36.470703C36.541614 35.592682 37.056177 33.961087 36.632812 32.523438 A 1.0007268 1.0007268 0 0 0 36.720703 32.476562L49.044922 24.923828L39.927734 10.119141L25.939453 18.679688 A 1.0001 1.0001 0 0 0 25.84375 18.583984 A 1.0001 1.0001 0 0 0 25.841797 18.582031 A 1.0001 1.0001 0 0 0 25.337891 18.220703C24.030805 17.791442 23.232422 17.277344 23.232422 17.277344 A 1.0001 1.0001 0 0 0 22.078125 17.330078L16.863281 21.402344C16.033248 22.049981 14.866103 21.905841 14.21875 21.076172C13.571112 20.246138 13.715253 19.077041 14.544922 18.429688L21.105469 13.310547C22.6537 12.101758 24.727225 11.811919 26.546875 12.550781L26.736328 12.626953C27.651138 12.998258 28.675305 13.009167 29.597656 12.652344 A 1.0001 1.0001 0 0 0 29.75 12.578125L33.710938 10.208984 A 1.0001 1.0001 0 0 0 33.226562 8.34375 z M 39.269531 12.867188L46.291016 24.265625L35.675781 30.769531 A 1.0007268 1.0007268 0 0 0 35.613281 30.8125L35.087891 30.154297C37.397076 28.639029 37.801253 25.286057 36.193359 22.722656C34.981232 20.735804 32.874384 19.566477 30.880859 19.728516C30.220344 19.782206 29.573402 19.985256 28.974609 20.349609C28.579479 20.577367 28.239062 20.86825 27.947266 21.195312L27.197266 20.253906L39.269531 12.867188 z M 39.894531 18.652344C39.601457 18.638363 39.300875 18.709172 39.03125 18.873047L39.029297 18.873047C38.310297 19.310047 38.082531 20.247797 38.519531 20.966797C38.956531 21.685797 39.894281 21.913563 40.613281 21.476562C41.332281 21.039562 41.560047 20.101813 41.123047 19.382812C40.849922 18.933437 40.382988 18.675645 39.894531 18.652344 z M 31.087891 21.726562C32.259361 21.65241 33.623806 22.347189 34.488281 23.767578L34.492188 23.773438L34.496094 23.78125C35.632164 25.586848 35.214564 27.738836 33.931641 28.525391L33.929688 28.527344L33.927734 28.527344C33.894293 28.548048 33.864869 28.562586 33.833984 28.580078L29.228516 22.802734C29.419306 22.50158 29.658453 22.258879 29.978516 22.076172L29.992188 22.068359L30.005859 22.058594C30.327527 21.86138 30.6974 21.75128 31.087891 21.726562 z M 7.3476562 26.224609C7.6419605 26.253509 7.925319 26.39773 8.1328125 26.650391C8.5468702 27.1568 8.475496 27.872556 7.9707031 28.287109L6.8574219 29.201172C6.3509208 29.616678 5.6337371 29.546336 5.21875 29.041016C4.8115987 28.544699 4.8833162 27.853867 5.3613281 27.435547 A 1.0001 1.0001 0 0 0 5.5078125 27.298828L6.4941406 26.488281C6.7473911 26.280528 7.0533521 26.195708 7.3476562 26.224609 z M 10.09375 29.568359C10.388054 29.597259 10.671413 29.74148 10.878906 29.994141C11.293787 30.499332 11.222831 31.214738 10.716797 31.630859L9.6035156 32.544922C9.0970146 32.960428 8.3798307 32.890086 7.9648438 32.384766C7.5507842 31.878356 7.6202064 31.162601 8.125 30.748047L9.2402344 29.833984C9.4934849 29.626231 9.7994458 29.539458 10.09375 29.568359 z M 12.837891 32.912109C13.132195 32.941009 13.415553 33.08523 13.623047 33.337891C14.038618 33.843256 13.969791 34.558227 13.462891 34.974609L12.347656 35.890625C11.841906 36.305515 11.1262 36.233754 10.710938 35.730469L10.710938 35.728516C10.296878 35.222106 10.3663 34.506351 10.871094 34.091797L11.984375 33.177734C11.984375 33.177734 11.986328 33.177734 11.986328 33.177734C12.239269 32.970921 12.5442 32.883268 12.837891 32.912109 z M 15.583984 36.255859C15.878289 36.284759 16.161647 36.42898 16.369141 36.681641C16.784021 37.186832 16.713066 37.904191 16.207031 38.320312L15.226562 39.125 A 1.0001 1.0001 0 0 0 15.058594 39.246094C14.55478 39.632878 13.863581 39.567755 13.457031 39.074219C13.041525 38.567718 13.111866 37.850534 13.617188 37.435547L14.730469 36.521484C14.730469 36.521484 14.732422 36.521484 14.732422 36.521484C14.985362 36.314671 15.290294 36.227018 15.583984 36.255859 z" fill="#FFFFFF" />
</svg>