<svg xmlns="http://www.w3.org/2000/svg" viewBox="0 0 50 50">
  <path d="M16.5 3C14.578125 3 13 4.578125 13 6.5L13 27L12.5 27C11.671875 27 11 27.671875 11 28.5C11 29.328125 11.671875 30 12.5 30L37.5 30C38.328125 30 39 29.328125 39 28.5C39 27.671875 38.328125 27 37.5 27L37 27L37 6.5C37 4.578125 35.421875 3 33.5 3 Z M 16.5 5L18 5L18 28L15 28L15 6.5C15 5.660156 15.660156 5 16.5 5 Z M 21 5L33.5 5C34.339844 5 35 5.660156 35 6.5L35 28L21 28 Z M 5 11C3.355469 11 2 12.355469 2 14L2 35.6875C1.941406 35.882813 1.941406 36.085938 2 36.28125L2 38C2 39.644531 3.355469 41 5 41L18.8125 41L18.15625 45L16 45C15.96875 45 15.9375 45 15.90625 45C15.355469 45.027344 14.925781 45.496094 14.953125 46.046875C14.980469 46.597656 15.449219 47.027344 16 47L34 47C34.359375 47.003906 34.695313 46.816406 34.878906 46.503906C35.058594 46.191406 35.058594 45.808594 34.878906 45.496094C34.695313 45.183594 34.359375 44.996094 34 45L31.84375 45L31.1875 41L45 41C46.644531 41 48 39.644531 48 38L48 36.1875C48.027344 36.054688 48.027344 35.914063 48 35.78125L48 14C48 12.355469 46.644531 11 45 11L38 11L38 13L45 13C45.566406 13 46 13.433594 46 14L46 35L4 35L4 14C4 13.433594 4.433594 13 5 13L12 13L12 11 Z M 4 37L46 37L46 38C46 38.566406 45.566406 39 45 39L5 39C4.433594 39 4 38.566406 4 38 Z M 20.875 41L29.125 41L29.8125 45L20.1875 45Z" fill="#FFFFFF" />
</svg>