<svg width="368" height="152" viewBox="0 0 368 152" fill="none" xmlns="http://www.w3.org/2000/svg">
<rect width="368" height="152" rx="19" fill="#232C79"/>
<path d="M58.402 64H47.1009V29.0909H58.7599C62.1804 29.0909 65.1179 29.7898 67.5724 31.1875C70.027 32.5739 71.9077 34.5682 73.2145 37.1705C74.5327 39.7614 75.1918 42.8693 75.1918 46.4943C75.1918 50.1307 74.527 53.2557 73.1974 55.8693C71.8793 58.483 69.9702 60.4943 67.4702 61.9034C64.9702 63.3011 61.9474 64 58.402 64ZM52.3679 59.3977H58.1122C60.7713 59.3977 62.9815 58.8977 64.7429 57.8977C66.5043 56.8864 67.8224 55.4261 68.6974 53.517C69.5724 51.5966 70.0099 49.2557 70.0099 46.4943C70.0099 43.7557 69.5724 41.4318 68.6974 39.5227C67.8338 37.6136 66.544 36.1648 64.8281 35.1761C63.1122 34.1875 60.9815 33.6932 58.4361 33.6932H52.3679V59.3977ZM92.6165 64.5284C90.0369 64.5284 87.8153 63.9773 85.9517 62.875C84.0994 61.7614 82.6676 60.1989 81.6562 58.1875C80.6562 56.1648 80.1562 53.7955 80.1562 51.0795C80.1562 48.3977 80.6562 46.0341 81.6562 43.9886C82.6676 41.9432 84.0767 40.3466 85.8835 39.1989C87.7017 38.0511 89.8267 37.4773 92.2585 37.4773C93.7358 37.4773 95.1676 37.7216 96.554 38.2102C97.9403 38.6989 99.1847 39.4659 100.287 40.5114C101.389 41.5568 102.259 42.9148 102.895 44.5852C103.531 46.2443 103.849 48.2614 103.849 50.6364V52.4432H83.0369V48.625H98.8551C98.8551 47.2841 98.5824 46.0966 98.0369 45.0625C97.4915 44.017 96.7244 43.1932 95.7358 42.5909C94.7585 41.9886 93.6108 41.6875 92.2926 41.6875C90.8608 41.6875 89.6108 42.0398 88.5426 42.7443C87.4858 43.4375 86.6676 44.3466 86.0881 45.4716C85.5199 46.5852 85.2358 47.7955 85.2358 49.1023V52.0852C85.2358 53.8352 85.5426 55.3239 86.1562 56.5511C86.7812 57.7784 87.6506 58.7159 88.7642 59.3636C89.8778 60 91.179 60.3182 92.6676 60.3182C93.6335 60.3182 94.5142 60.1818 95.3097 59.9091C96.1051 59.625 96.7926 59.2045 97.3722 58.6477C97.9517 58.0909 98.3949 57.4034 98.7017 56.5852L103.526 57.4545C103.139 58.875 102.446 60.1193 101.446 61.1875C100.457 62.2443 99.2131 63.0682 97.7131 63.6591C96.2244 64.2386 94.5256 64.5284 92.6165 64.5284ZM129.124 44.2102L124.504 45.0284C124.311 44.4375 124.004 43.875 123.584 43.3409C123.175 42.8068 122.618 42.3693 121.913 42.0284C121.209 41.6875 120.328 41.517 119.271 41.517C117.828 41.517 116.624 41.8409 115.658 42.4886C114.692 43.125 114.209 43.9489 114.209 44.9602C114.209 45.8352 114.533 46.5398 115.18 47.0739C115.828 47.608 116.874 48.0455 118.317 48.3864L122.476 49.3409C124.885 49.8977 126.68 50.7557 127.862 51.9148C129.044 53.0739 129.635 54.5795 129.635 56.4318C129.635 58 129.18 59.3977 128.271 60.625C127.374 61.8409 126.118 62.7955 124.504 63.4886C122.902 64.1818 121.044 64.5284 118.93 64.5284C115.999 64.5284 113.607 63.9034 111.754 62.6534C109.902 61.392 108.766 59.6023 108.345 57.2841L113.271 56.5341C113.578 57.8182 114.209 58.7898 115.163 59.4489C116.118 60.0966 117.362 60.4205 118.896 60.4205C120.567 60.4205 121.902 60.0739 122.902 59.3807C123.902 58.6761 124.402 57.8182 124.402 56.8068C124.402 55.9886 124.095 55.3011 123.482 54.7443C122.879 54.1875 121.953 53.767 120.703 53.483L116.271 52.5114C113.828 51.9545 112.021 51.0682 110.851 49.8523C109.692 48.6364 109.112 47.0966 109.112 45.233C109.112 43.6875 109.544 42.3352 110.408 41.1761C111.271 40.017 112.464 39.1136 113.987 38.4659C115.51 37.8068 117.254 37.4773 119.22 37.4773C122.05 37.4773 124.277 38.0909 125.902 39.3182C127.527 40.5341 128.601 42.1648 129.124 44.2102ZM146.267 64.5284C143.733 64.5284 141.551 63.9545 139.722 62.8068C137.903 61.6477 136.506 60.0511 135.528 58.017C134.551 55.983 134.062 53.6534 134.062 51.0284C134.062 48.3693 134.562 46.0227 135.562 43.9886C136.562 41.9432 137.972 40.3466 139.79 39.1989C141.608 38.0511 143.75 37.4773 146.216 37.4773C148.205 37.4773 149.977 37.8466 151.534 38.5852C153.091 39.3125 154.347 40.3352 155.301 41.6534C156.267 42.9716 156.841 44.5114 157.023 46.2727H152.062C151.79 45.0455 151.165 43.9886 150.188 43.1023C149.222 42.2159 147.926 41.7727 146.301 41.7727C144.881 41.7727 143.636 42.1477 142.568 42.8977C141.511 43.6364 140.688 44.6932 140.097 46.0682C139.506 47.4318 139.21 49.0455 139.21 50.9091C139.21 52.8182 139.5 54.4659 140.08 55.8523C140.659 57.2386 141.477 58.3125 142.534 59.0739C143.602 59.8352 144.858 60.2159 146.301 60.2159C147.267 60.2159 148.142 60.0398 148.926 59.6875C149.722 59.3239 150.386 58.8068 150.92 58.1364C151.466 57.4659 151.847 56.6591 152.062 55.7159H157.023C156.841 57.4091 156.29 58.9205 155.369 60.25C154.449 61.5795 153.216 62.625 151.67 63.3864C150.136 64.1477 148.335 64.5284 146.267 64.5284ZM179.058 53.142V37.8182H184.172V64H179.161V59.4659H178.888C178.286 60.8636 177.32 62.0284 175.99 62.9602C174.672 63.8807 173.03 64.3409 171.064 64.3409C169.382 64.3409 167.893 63.9716 166.598 63.233C165.314 62.483 164.303 61.375 163.564 59.9091C162.837 58.4432 162.473 56.6307 162.473 54.4716V37.8182H167.57V53.858C167.57 55.642 168.064 57.0625 169.053 58.1193C170.041 59.1761 171.325 59.7045 172.905 59.7045C173.859 59.7045 174.808 59.4659 175.751 58.9886C176.706 58.5114 177.496 57.7898 178.121 56.8239C178.757 55.858 179.07 54.6307 179.058 53.142ZM191.429 64V29.0909H196.526V42.0625H196.832C197.128 41.517 197.554 40.8864 198.111 40.1705C198.668 39.4545 199.44 38.8295 200.429 38.2955C201.418 37.75 202.724 37.4773 204.349 37.4773C206.463 37.4773 208.349 38.0114 210.009 39.0795C211.668 40.1477 212.969 41.6875 213.912 43.6989C214.866 45.7102 215.344 48.1307 215.344 50.9602C215.344 53.7898 214.872 56.2159 213.929 58.2386C212.986 60.25 211.69 61.8011 210.043 62.892C208.395 63.9716 206.514 64.5114 204.401 64.5114C202.81 64.5114 201.509 64.2443 200.497 63.7102C199.497 63.1761 198.713 62.5511 198.145 61.8352C197.577 61.1193 197.139 60.483 196.832 59.9261H196.406V64H191.429ZM196.423 50.9091C196.423 52.75 196.69 54.3636 197.224 55.75C197.759 57.1364 198.531 58.2216 199.543 59.0057C200.554 59.7784 201.793 60.1648 203.259 60.1648C204.781 60.1648 206.054 59.7614 207.077 58.9545C208.099 58.1364 208.872 57.0284 209.395 55.6307C209.929 54.233 210.196 52.6591 210.196 50.9091C210.196 49.1818 209.935 47.6307 209.412 46.2557C208.901 44.8807 208.128 43.7955 207.094 43C206.071 42.2045 204.793 41.8068 203.259 41.8068C201.781 41.8068 200.531 42.1875 199.509 42.9489C198.497 43.7102 197.73 44.7727 197.207 46.1364C196.685 47.5 196.423 49.0909 196.423 50.9091ZM221.067 64V37.8182H225.993V41.9773H226.266C226.743 40.5682 227.584 39.4602 228.788 38.6534C230.004 37.8352 231.379 37.4261 232.913 37.4261C233.232 37.4261 233.607 37.4375 234.038 37.4602C234.482 37.483 234.828 37.5114 235.078 37.5455V42.4205C234.874 42.3636 234.51 42.3011 233.987 42.233C233.464 42.1534 232.942 42.1136 232.419 42.1136C231.214 42.1136 230.141 42.3693 229.197 42.8807C228.266 43.3807 227.527 44.0795 226.982 44.9773C226.436 45.8636 226.163 46.875 226.163 48.0114V64H221.067ZM239.489 64V37.8182H244.585V64H239.489ZM239.966 34.3239L243.955 26.4659H249.324L244.04 34.3239H239.966ZM269.241 29.0909V64H264.145V29.0909H269.241ZM283.717 64.5795C282.058 64.5795 280.558 64.2727 279.217 63.6591C277.876 63.0341 276.814 62.1307 276.03 60.9489C275.257 59.767 274.871 58.3182 274.871 56.6023C274.871 55.125 275.155 53.9091 275.723 52.9545C276.291 52 277.058 51.2443 278.024 50.6875C278.99 50.1307 280.07 49.7102 281.263 49.4261C282.456 49.142 283.672 48.9261 284.911 48.7784C286.479 48.5966 287.751 48.4489 288.729 48.3352C289.706 48.2102 290.416 48.0114 290.859 47.7386C291.303 47.4659 291.524 47.0227 291.524 46.4091V46.2898C291.524 44.8011 291.104 43.6477 290.263 42.8295C289.433 42.0114 288.195 41.6023 286.547 41.6023C284.831 41.6023 283.479 41.983 282.49 42.7443C281.513 43.4943 280.837 44.3295 280.462 45.25L275.672 44.1591C276.24 42.5682 277.07 41.2841 278.161 40.3068C279.263 39.3182 280.53 38.6023 281.962 38.1591C283.393 37.7045 284.899 37.4773 286.479 37.4773C287.524 37.4773 288.632 37.6023 289.803 37.8523C290.984 38.0909 292.087 38.5341 293.109 39.1818C294.143 39.8295 294.99 40.7557 295.649 41.9602C296.308 43.1534 296.638 44.7045 296.638 46.6136V64H291.661V60.4205H291.456C291.126 61.0795 290.632 61.7273 289.973 62.3636C289.314 63 288.467 63.5284 287.433 63.9489C286.399 64.3693 285.161 64.5795 283.717 64.5795ZM284.825 60.4886C286.234 60.4886 287.439 60.2102 288.439 59.6534C289.45 59.0966 290.217 58.3693 290.74 57.4716C291.274 56.5625 291.541 55.5909 291.541 54.5568V51.1818C291.359 51.3636 291.007 51.5341 290.484 51.6932C289.973 51.8409 289.388 51.9716 288.729 52.0852C288.07 52.1875 287.428 52.2841 286.803 52.375C286.178 52.4545 285.655 52.5227 285.234 52.5795C284.246 52.7045 283.342 52.9148 282.524 53.2102C281.717 53.5057 281.07 53.9318 280.581 54.4886C280.104 55.0341 279.865 55.7614 279.865 56.6705C279.865 57.9318 280.331 58.8864 281.263 59.5341C282.195 60.1705 283.382 60.4886 284.825 60.4886ZM323.045 44.2102L318.426 45.0284C318.233 44.4375 317.926 43.875 317.506 43.3409C317.097 42.8068 316.54 42.3693 315.835 42.0284C315.131 41.6875 314.25 41.517 313.193 41.517C311.75 41.517 310.545 41.8409 309.58 42.4886C308.614 43.125 308.131 43.9489 308.131 44.9602C308.131 45.8352 308.455 46.5398 309.102 47.0739C309.75 47.608 310.795 48.0455 312.239 48.3864L316.398 49.3409C318.807 49.8977 320.602 50.7557 321.784 51.9148C322.966 53.0739 323.557 54.5795 323.557 56.4318C323.557 58 323.102 59.3977 322.193 60.625C321.295 61.8409 320.04 62.7955 318.426 63.4886C316.824 64.1818 314.966 64.5284 312.852 64.5284C309.92 64.5284 307.528 63.9034 305.676 62.6534C303.824 61.392 302.688 59.6023 302.267 57.2841L307.193 56.5341C307.5 57.8182 308.131 58.7898 309.085 59.4489C310.04 60.0966 311.284 60.4205 312.818 60.4205C314.489 60.4205 315.824 60.0739 316.824 59.3807C317.824 58.6761 318.324 57.8182 318.324 56.8068C318.324 55.9886 318.017 55.3011 317.403 54.7443C316.801 54.1875 315.875 53.767 314.625 53.483L310.193 52.5114C307.75 51.9545 305.943 51.0682 304.773 49.8523C303.614 48.6364 303.034 47.0966 303.034 45.233C303.034 43.6875 303.466 42.3352 304.33 41.1761C305.193 40.017 306.386 39.1136 307.909 38.4659C309.432 37.8068 311.176 37.4773 313.142 37.4773C315.972 37.4773 318.199 38.0909 319.824 39.3182C321.449 40.5341 322.523 42.1648 323.045 44.2102ZM109.839 104.545C109.839 108.273 109.157 111.477 107.793 114.159C106.43 116.83 104.56 118.886 102.185 120.33C99.8217 121.761 97.1342 122.477 94.1229 122.477C91.1001 122.477 88.4013 121.761 86.0263 120.33C83.6626 118.886 81.799 116.824 80.4354 114.142C79.0717 111.46 78.3899 108.261 78.3899 104.545C78.3899 100.818 79.0717 97.6193 80.4354 94.9489C81.799 92.267 83.6626 90.2102 86.0263 88.7784C88.4013 87.3352 91.1001 86.6136 94.1229 86.6136C97.1342 86.6136 99.8217 87.3352 102.185 88.7784C104.56 90.2102 106.43 92.267 107.793 94.9489C109.157 97.6193 109.839 100.818 109.839 104.545ZM104.623 104.545C104.623 101.705 104.163 99.3125 103.242 97.3693C102.333 95.4148 101.083 93.9375 99.4922 92.9375C97.9126 91.9261 96.1229 91.4205 94.1229 91.4205C92.1115 91.4205 90.3161 91.9261 88.7365 92.9375C87.157 93.9375 85.907 95.4148 84.9865 97.3693C84.0774 99.3125 83.6229 101.705 83.6229 104.545C83.6229 107.386 84.0774 109.784 84.9865 111.739C85.907 113.682 87.157 115.159 88.7365 116.17C90.3161 117.17 92.1115 117.67 94.1229 117.67C96.1229 117.67 97.9126 117.17 99.4922 116.17C101.083 115.159 102.333 113.682 103.242 111.739C104.163 109.784 104.623 107.386 104.623 104.545ZM116.406 122V87.0909H138.053V91.625H121.673V102.261H136.502V106.778H121.673V122H116.406ZM144.531 122V87.0909H166.417V91.625H149.798V102.261H165.275V106.778H149.798V117.466H166.621V122H144.531ZM173.452 122V87.0909H185.896C188.6 87.0909 190.844 87.5568 192.629 88.4886C194.424 89.4205 195.765 90.7102 196.651 92.358C197.538 93.9943 197.981 95.8864 197.981 98.0341C197.981 100.17 197.532 102.051 196.634 103.676C195.748 105.29 194.407 106.545 192.612 107.443C190.827 108.341 188.583 108.79 185.879 108.79H176.452V104.256H185.401C187.106 104.256 188.492 104.011 189.56 103.523C190.64 103.034 191.43 102.324 191.93 101.392C192.43 100.46 192.68 99.3409 192.68 98.0341C192.68 96.7159 192.424 95.5739 191.913 94.608C191.413 93.642 190.623 92.9034 189.543 92.392C188.475 91.8693 187.072 91.608 185.333 91.608H178.719V122H173.452ZM190.685 106.25L199.31 122H193.31L184.856 106.25H190.685ZM202.668 91.625V87.0909H229.685V91.625H218.793V122H213.543V91.625H202.668ZM234.479 122H228.888L241.451 87.0909H247.536L260.099 122H254.508L244.638 93.4318H244.366L234.479 122ZM235.417 108.33H253.553V112.761H235.417V108.33ZM283.898 96.2614C283.717 94.6477 282.967 93.3977 281.648 92.5114C280.33 91.6136 278.671 91.1648 276.671 91.1648C275.239 91.1648 274.001 91.392 272.955 91.8466C271.91 92.2898 271.097 92.9034 270.518 93.6875C269.95 94.4602 269.665 95.3409 269.665 96.3295C269.665 97.1591 269.859 97.875 270.245 98.4773C270.643 99.0795 271.16 99.5852 271.796 99.9943C272.444 100.392 273.137 100.727 273.876 101C274.614 101.261 275.325 101.477 276.006 101.648L279.415 102.534C280.529 102.807 281.671 103.176 282.842 103.642C284.012 104.108 285.097 104.722 286.097 105.483C287.097 106.244 287.904 107.188 288.518 108.312C289.143 109.438 289.455 110.784 289.455 112.352C289.455 114.33 288.944 116.085 287.921 117.619C286.91 119.153 285.438 120.364 283.506 121.25C281.586 122.136 279.262 122.58 276.535 122.58C273.921 122.58 271.66 122.165 269.751 121.335C267.842 120.506 266.347 119.33 265.268 117.807C264.188 116.273 263.592 114.455 263.478 112.352H268.762C268.864 113.614 269.273 114.665 269.989 115.506C270.717 116.335 271.643 116.955 272.768 117.364C273.904 117.761 275.148 117.96 276.501 117.96C277.989 117.96 279.313 117.727 280.472 117.261C281.643 116.784 282.563 116.125 283.234 115.284C283.904 114.432 284.239 113.437 284.239 112.301C284.239 111.267 283.944 110.42 283.353 109.761C282.773 109.102 281.984 108.557 280.984 108.125C279.995 107.693 278.876 107.312 277.626 106.983L273.501 105.858C270.705 105.097 268.489 103.977 266.853 102.5C265.228 101.023 264.415 99.0682 264.415 96.6364C264.415 94.625 264.961 92.8693 266.052 91.3693C267.143 89.8693 268.62 88.7045 270.484 87.875C272.347 87.0341 274.45 86.6136 276.79 86.6136C279.154 86.6136 281.239 87.0284 283.046 87.858C284.864 88.6875 286.296 89.8295 287.342 91.2841C288.387 92.7273 288.933 94.3864 288.978 96.2614H283.898ZM301.766 87.0909L301.323 111.96H296.602L296.158 87.0909H301.766ZM298.971 122.324C298.028 122.324 297.221 121.994 296.55 121.335C295.88 120.665 295.55 119.858 295.562 118.915C295.55 117.983 295.88 117.187 296.55 116.528C297.221 115.858 298.028 115.523 298.971 115.523C299.891 115.523 300.687 115.858 301.357 116.528C302.028 117.187 302.369 117.983 302.38 118.915C302.369 119.54 302.204 120.114 301.886 120.636C301.579 121.148 301.17 121.557 300.658 121.864C300.147 122.17 299.585 122.324 298.971 122.324Z" fill="white"/>
</svg>
