<svg width="512" height="414" viewBox="0 0 512 414" fill="none" xmlns="http://www.w3.org/2000/svg">
<path d="M35.3672 288.248V8.968C35.3672 4.144 39.5032 0 44.3352 0H467.735C472.559 0 476.703 4.136 476.703 8.968V288.248H35.3672Z" fill="black"/>
<path d="M476.695 288.246V324.102C476.695 328.926 472.559 333.07 467.727 333.07H44.3274C39.5034 333.07 35.3594 328.934 35.3594 324.102V288.246H476.695Z" fill="#CFDCE5"/>
<path d="M350.544 396.512H161.6V405.48H350.544V396.512Z" fill="#CFDCE5"/>
<path d="M318.783 396.51H193.279L202.247 333.07H309.815L318.783 396.51Z" fill="#AAC1CE"/>
<path d="M458.769 17.9336H53.2969V270.318H458.769V17.9336Z" fill="white"/>
<path d="M309.816 333.07H202.248L197.24 368.478L311.432 344.47L309.816 333.07Z" fill="#8BA0AE"/>
<path d="M512 405.125H0V413.125H512V405.125Z" fill="#8BA0AE"/>
<path d="M121.657 89.0143C121.657 101.102 114.305 107.518 105.345 107.518C96.0649 107.518 89.5449 100.326 89.5449 89.6863C89.5449 78.5343 96.4809 71.2383 105.857 71.2383C115.457 71.2383 121.657 78.5903 121.657 89.0143ZM94.4009 89.5903C94.4009 97.0943 98.4649 103.814 105.601 103.814C112.793 103.814 116.857 97.1983 116.857 89.2223C116.857 82.2383 113.209 74.9423 105.657 74.9423C98.1529 74.9423 94.4009 81.8703 94.4009 89.5903Z" fill="#232C79"/>
<path d="M127.353 88.5408C127.353 85.9328 127.297 83.7968 127.145 81.7088H131.217L131.473 85.8768H131.577C132.833 83.4768 135.745 81.1328 139.921 81.1328C143.417 81.1328 148.833 83.2208 148.833 91.8688V106.933H144.241V92.3888C144.241 88.3248 142.729 84.9328 138.401 84.9328C135.385 84.9328 133.033 87.0688 132.249 89.6208C132.049 90.1968 131.937 90.9728 131.937 91.7568V106.925H127.353V88.5408Z" fill="#232C79"/>
<path d="M156.248 69.9336H160.832V106.942H156.248V69.9336Z" fill="#232C79"/>
<path d="M173.649 74.6297C173.705 76.1897 172.553 77.4457 170.729 77.4457C169.113 77.4457 167.969 76.1977 167.969 74.6297C167.969 73.0137 169.161 71.7657 170.833 71.7657C172.553 71.7577 173.649 73.0057 173.649 74.6297ZM168.537 106.942V81.7177H173.121V106.942H168.537Z" fill="#232C79"/>
<path d="M180.722 88.5408C180.722 85.9328 180.666 83.7968 180.514 81.7088H184.586L184.842 85.8768H184.946C186.202 83.4768 189.114 81.1328 193.29 81.1328C196.786 81.1328 202.202 83.2208 202.202 91.8688V106.933H197.618V92.3888C197.618 88.3248 196.106 84.9328 191.778 84.9328C188.762 84.9328 186.41 87.0688 185.626 89.6208C185.426 90.1968 185.314 90.9728 185.314 91.7568V106.925H180.722V88.5408Z" fill="#232C79"/>
<path d="M212.177 95.1644C212.281 101.364 216.241 103.924 220.833 103.924C224.113 103.924 226.089 103.348 227.817 102.62L228.601 105.908C226.985 106.636 224.217 107.468 220.201 107.468C212.433 107.468 207.801 102.364 207.801 94.7564C207.801 87.1404 212.281 81.1484 219.633 81.1484C227.865 81.1484 230.057 88.3964 230.057 93.0284C230.057 93.9644 229.953 94.6924 229.897 95.1644H212.177ZM225.617 91.8764C225.673 88.9564 224.425 84.4204 219.257 84.4204C214.625 84.4204 212.585 88.7004 212.225 91.8764H225.617Z" fill="#232C79"/>
<path d="M246.897 72.2788C248.881 71.8628 252.009 71.5508 255.185 71.5508C259.713 71.5508 262.641 72.3348 264.825 74.1028C266.657 75.4548 267.745 77.5428 267.745 80.3028C267.745 83.6948 265.505 86.6628 261.801 88.0148V88.1188C265.137 88.9508 269.049 91.7188 269.049 96.9268C269.049 99.9508 267.849 102.247 266.073 103.959C263.625 106.199 259.665 107.247 253.929 107.247C250.793 107.247 248.409 107.039 246.889 106.831L246.897 72.2788ZM251.441 86.6708H255.561C260.353 86.6708 263.169 84.1748 263.169 80.7828C263.169 76.6628 260.033 75.0548 255.449 75.0548C253.361 75.0548 252.169 75.2148 251.441 75.3668V86.6708ZM251.441 103.503C252.321 103.663 253.625 103.711 255.249 103.711C259.937 103.711 264.265 101.991 264.265 96.8788C264.265 92.0788 260.145 90.1028 255.193 90.1028H251.441V103.503Z" fill="#232C79"/>
<path d="M288.929 106.941L288.561 103.765H288.401C286.993 105.749 284.281 107.517 280.689 107.517C275.577 107.517 272.977 103.917 272.977 100.269C272.977 94.1726 278.393 90.8366 288.145 90.8846V90.3646C288.145 88.2766 287.577 84.5246 282.409 84.5246C280.065 84.5246 277.609 85.2526 275.841 86.4046L274.801 83.3806C276.889 82.0286 279.913 81.1406 283.089 81.1406C290.801 81.1406 292.673 86.4046 292.673 91.4606V100.893C292.673 103.085 292.785 105.221 293.097 106.941H288.929ZM288.249 94.0686C283.249 93.9646 277.569 94.8526 277.569 99.7486C277.569 102.717 279.545 104.125 281.889 104.125C285.177 104.125 287.265 102.045 287.993 99.9086C288.153 99.4366 288.249 98.9166 288.249 98.4446V94.0686Z" fill="#232C79"/>
<path d="M300.058 88.5408C300.058 85.9328 300.002 83.7968 299.85 81.7088H303.922L304.178 85.8768H304.282C305.538 83.4768 308.45 81.1328 312.626 81.1328C316.122 81.1328 321.538 83.2208 321.538 91.8688V106.933H316.954V92.3888C316.954 88.3248 315.442 84.9328 311.114 84.9328C308.098 84.9328 305.746 87.0688 304.962 89.6208C304.762 90.1968 304.65 90.9728 304.65 91.7568V106.925H300.066L300.058 88.5408Z" fill="#232C79"/>
<path d="M333.489 93.2856H333.601C334.225 92.3976 335.105 91.3016 335.841 90.4216L343.241 81.7176H348.761L339.017 92.0856L350.121 106.942H344.545L335.841 94.8456L333.489 97.4536V106.942H328.961V69.9336H333.489C333.489 69.9336 333.489 93.2856 333.489 93.2856Z" fill="#232C79"/>
<path d="M359.369 74.6297C359.425 76.1897 358.273 77.4457 356.449 77.4457C354.833 77.4457 353.689 76.1977 353.689 74.6297C353.689 73.0137 354.881 71.7657 356.553 71.7657C358.273 71.7577 359.369 73.0057 359.369 74.6297ZM354.257 106.942V81.7177H358.841V106.942H354.257Z" fill="#232C79"/>
<path d="M366.44 88.5408C366.44 85.9328 366.384 83.7968 366.232 81.7088H370.304L370.56 85.8768H370.664C371.92 83.4768 374.832 81.1328 379.008 81.1328C382.504 81.1328 387.92 83.2208 387.92 91.8688V106.933H383.336V92.3888C383.336 88.3248 381.824 84.9328 377.496 84.9328C374.48 84.9328 372.128 87.0688 371.344 89.6208C371.144 90.1968 371.032 90.9728 371.032 91.7568V106.925H366.448L366.44 88.5408Z" fill="#232C79"/>
<path d="M417.073 81.7166C416.969 83.5406 416.873 85.5726 416.873 88.6446V103.293C416.873 109.077 415.721 112.621 413.273 114.813C410.825 117.109 407.281 117.837 404.105 117.837C401.081 117.837 397.745 117.109 395.713 115.749L396.865 112.253C398.529 113.293 401.137 114.237 404.265 114.237C408.953 114.237 412.401 111.789 412.401 105.429V102.613H412.289C410.881 104.957 408.169 106.837 404.265 106.837C398.009 106.837 393.529 101.517 393.529 94.5326C393.529 85.9886 399.097 81.1406 404.889 81.1406C409.265 81.1406 411.665 83.4366 412.753 85.5166H412.865L413.065 81.7086L417.073 81.7166ZM412.329 91.6686C412.329 90.8846 412.273 90.2126 412.073 89.5886C411.241 86.9246 408.993 84.7406 405.657 84.7406C401.281 84.7406 398.153 88.4366 398.153 94.2766C398.153 99.2286 400.657 103.349 405.609 103.349C408.433 103.349 410.985 101.581 411.969 98.6606C412.233 97.8766 412.337 96.9966 412.337 96.2126L412.329 91.6686Z" fill="#232C79"/>
<path d="M412.816 405.477H310.232C299.336 405.477 290.416 396.557 290.416 385.661V169.293C290.416 158.397 299.328 149.477 310.232 149.477H412.824C423.72 149.477 432.64 158.397 432.64 169.293V385.661C432.632 396.557 423.712 405.477 412.816 405.477Z" fill="black"/>
<path d="M423.249 169.68H299.793V371.52H423.249V169.68Z" fill="white"/>
<path d="M380.039 161.687H354.775C353.639 161.687 352.711 160.759 352.711 159.623C352.711 158.487 353.639 157.559 354.775 157.559H380.039C381.175 157.559 382.103 158.487 382.103 159.623C382.103 160.759 381.175 161.687 380.039 161.687Z" fill="#CFDCE5"/>
<path d="M343.007 161.687C344.147 161.687 345.071 160.763 345.071 159.623C345.071 158.483 344.147 157.559 343.007 157.559C341.867 157.559 340.943 158.483 340.943 159.623C340.943 160.763 341.867 161.687 343.007 161.687Z" fill="#CFDCE5"/>
<path d="M361.52 398.262C356.136 398.262 351.76 393.878 351.76 388.502C351.76 383.126 356.144 378.742 361.52 378.742C366.896 378.742 371.28 383.126 371.28 388.502C371.28 393.878 366.904 398.262 361.52 398.262ZM361.52 380.734C357.24 380.734 353.76 384.214 353.76 388.494C353.76 392.774 357.24 396.254 361.52 396.254C365.8 396.254 369.28 392.774 369.28 388.494C369.28 384.214 365.8 380.734 361.52 380.734Z" fill="#CFDCE5"/>
<path d="M361.521 265.639C382.671 265.639 399.817 248.493 399.817 227.343C399.817 206.193 382.671 189.047 361.521 189.047C340.37 189.047 323.225 206.193 323.225 227.343C323.225 248.493 340.37 265.639 361.521 265.639Z" fill="black"/>
<path d="M341.768 241.208C341.768 241.208 341.768 240.904 341.768 237.592C341.768 233.184 346.696 226.624 356.4 226.176V223.104C353.248 221.312 351.12 217.936 351.12 214.056C351.12 208.312 355.776 203.648 361.528 203.648C367.272 203.648 371.936 208.304 371.936 214.056C371.936 217.936 369.808 221.312 366.656 223.104V226.168C376.352 226.624 381.288 233.176 381.288 237.584C381.288 240.904 381.288 241.2 381.288 241.2H341.768V241.208Z" fill="white"/>
<path d="M399.783 288.75H323.199V318.374H399.783V288.75Z" fill="#232C79"/>
<g opacity="0.35">
<path d="M323.232 307.494V288.742H341.976L323.232 307.494Z" fill="white"/>
</g>
<path d="M348.72 303.882H344.368V307.913H349.216V309.121H342.928V297.938H348.968V299.145H344.368V302.673H348.72V303.882Z" fill="white"/>
<path d="M351.072 303.262C351.072 302.43 351.056 301.758 351.008 301.086H352.296L352.384 302.414H352.416C352.816 301.654 353.744 300.91 355.072 300.91C356.192 300.91 357.912 301.574 357.912 304.334V309.134H356.448V304.486C356.448 303.19 355.96 302.11 354.592 302.11C353.624 302.11 352.88 302.79 352.632 303.614C352.56 303.79 352.528 304.046 352.528 304.294V309.126H351.064L351.072 303.262Z" fill="white"/>
<path d="M360.312 303.59C360.312 302.646 360.296 301.83 360.248 301.086H361.52L361.576 302.662H361.64C362.008 301.582 362.88 300.902 363.864 300.902C364.032 300.902 364.144 300.918 364.28 300.958V302.334C364.128 302.302 363.984 302.286 363.784 302.286C362.76 302.286 362.024 303.062 361.824 304.158C361.792 304.35 361.76 304.59 361.76 304.838V309.118H360.312V303.59Z" fill="white"/>
<path d="M372.864 305.038C372.864 308.014 370.8 309.302 368.864 309.302C366.688 309.302 365.016 307.71 365.016 305.166C365.016 302.478 366.776 300.902 369 300.902C371.304 300.902 372.864 302.582 372.864 305.038ZM366.496 305.118C366.496 306.878 367.512 308.206 368.936 308.206C370.336 308.206 371.384 306.894 371.384 305.086C371.384 303.718 370.704 301.99 368.968 301.99C367.24 301.998 366.496 303.59 366.496 305.118Z" fill="white"/>
<path d="M374.736 297.336H376.2V309.128H374.736V297.336Z" fill="white"/>
<path d="M378.664 297.336H380.128V309.128H378.664V297.336Z" fill="white"/>
<path d="M376.489 329.215H346.561V333.215H376.489V329.215Z" fill="#AAC1CE"/>
<path d="M400.561 342.727H322.561V346.727H400.561V342.727Z" fill="#AAC1CE"/>
<path d="M241.857 158.648H92.793V162.648H241.857V158.648Z" fill="#8BA0AE"/>
<path d="M241.857 185.074H92.793V189.074H241.857V185.074Z" fill="#8BA0AE"/>
<path d="M241.857 213.93H92.793V217.93H241.857V213.93Z" fill="#8BA0AE"/>
</svg>
