<svg id="Capa_1" data-name="Capa 1" xmlns="http://www.w3.org/2000/svg" viewBox="0 0 272.34 207.18"><defs><style>.cls-1{fill:#333;stroke:#333;stroke-miterlimit:10;}</style></defs><title>packing</title><path class="cls-1" d="M308.07-595.13a5.35,5.35,0,0,0-2.37,1.19l-55.44,42.56-0.17.17h-0.17a5.78,5.78,0,0,0-1.19.85l-0.17.17a2.53,2.53,0,0,0-.34.17v0.17a5.15,5.15,0,0,0-.51.68,2.53,2.53,0,0,0-.17.34l-0.17.17a5.89,5.89,0,0,0-.34.85l-21.36,42.56a5.45,5.45,0,0,0,1,6.29,5.45,5.45,0,0,0,6.29,1l13.9-7v110.55a5.44,5.44,0,0,0,5.43,5.43H415.23a5.66,5.66,0,0,0,1-.17,4.77,4.77,0,0,0,.51-0.17,5.35,5.35,0,0,0,1.87-1,2.56,2.56,0,0,0,.34-0.34,2.56,2.56,0,0,0,.34-0.34l0.34-.51a2.56,2.56,0,0,0,.34-0.34l42.73-53.41a5.46,5.46,0,0,0,1.19-3.39v-51.88l31-31a5.41,5.41,0,0,0,.68-6.61l-31.71-52.73a5.35,5.35,0,0,0-1.19-2.37,2.53,2.53,0,0,0-.17-0.34h-0.17a2.53,2.53,0,0,0-.17-0.34H462a2.56,2.56,0,0,0-.34-0.34,5.89,5.89,0,0,0-1.19-.51,2.53,2.53,0,0,0-.34-0.17H460a2.53,2.53,0,0,0-.34-0.17H308.07Zm2.71,10.85H445.24l-32.55,32.55H268.23Zm146.66,3.39,26.79,44.42-35.61,35.61-26.79-44.42Zm-199.73,40H409.63V-399.8H257.72V-513.07a3.63,3.63,0,0,0,0-.68v-27.13ZM420.49-527L443-489.33a5.44,5.44,0,0,0,3.94,2.67,5.45,5.45,0,0,0,4.54-1.48l1.53-1.53v39.17l-32.55,40.69V-527Zm-173.62,3.73v6.1l-4.07,2ZM305-519.17a5.49,5.49,0,0,0-4.66,6.19,5.49,5.49,0,0,0,6.19,4.66H360.8a5.46,5.46,0,0,0,4.77-2.69,5.48,5.48,0,0,0,0-5.47,5.46,5.46,0,0,0-4.77-2.69H305Z" transform="translate(-224.58 595.63)"/></svg>