<svg id="Capa_1" data-name="Capa 1" xmlns="http://www.w3.org/2000/svg" viewBox="0 0 97.95 97.07"><defs><style>.cls-1{fill:none;stroke:#232c79;stroke-miterlimit:10;stroke-width:4px;}.cls-2{fill:#232c79;}</style></defs><title>pago-seguro</title><path class="cls-1" d="M476.07,94.47a44.7,44.7,0,0,1-2.68,15.32,18.57,18.57,0,0,0-25.82,26.61A45.08,45.08,0,1,1,476.07,94.47Z" transform="translate(-383.93 -47.4)"/><path class="cls-1" d="M479.88,123.89a18.6,18.6,0,1,1-6.49-14.1A18.58,18.58,0,0,1,479.88,123.89Z" transform="translate(-383.93 -47.4)"/><path class="cls-2" d="M449.36,125.83l8.17,6.11a2.25,2.25,0,0,0,2.73-.35l12.17-13.17c2-2.12-1.21-5.31-3.18-3.18l-12.17,13.17,2.73-.35-8.17-6.11c-2.32-1.74-4.57,2.17-2.27,3.89h0Z" transform="translate(-383.93 -47.4)"/><path class="cls-2" d="M428.45,125.2v-7.56c-4.34-.08-8.84-1.42-11.45-3.3l1.8-5a20,20,0,0,0,10.78,3.22c5.32,0,8.91-3.07,8.91-7.34s-2.92-6.66-8.46-8.91c-7.64-3-12.35-6.44-12.35-13,0-6.22,4.42-10.93,11.31-12.06V63.73h4.64V71a20,20,0,0,1,9.74,2.62l-1.87,4.94A18.07,18.07,0,0,0,432,76c-5.77,0-7.94,3.44-7.94,6.44,0,3.89,2.77,5.84,9.28,8.53,7.71,3.15,11.6,7,11.6,13.7,0,5.92-4.12,11.45-11.83,12.73v7.78h-4.72Z" transform="translate(-383.93 -47.4)"/></svg>