<svg width="16" height="16" viewBox="0 0 16 16" fill="none" xmlns="http://www.w3.org/2000/svg">
<path d="M14.1544 15.9945H14.0499C1.96168 15.2994 0.245347 5.0998 0.0054286 1.98701C-0.0320687 1.49903 0.125808 1.01613 0.444333 0.644534C0.762857 0.272941 1.21594 0.0430895 1.70393 0.00553704C1.75273 0.00184599 1.80174 5.76783e-07 1.85095 5.76783e-07H5.09292C5.33934 -0.000237966 5.58014 0.0735198 5.78415 0.21172C5.98816 0.34992 6.14598 0.546195 6.23715 0.775121L7.17221 3.07587C7.26224 3.29952 7.28459 3.54469 7.23647 3.78092C7.18834 4.01715 7.07188 4.23405 6.90154 4.40465L5.59121 5.72728C5.79506 6.89077 6.35181 7.96343 7.18595 8.79977C8.0201 9.63612 9.09128 10.1957 10.2542 10.4026L11.5892 9.07998C11.7623 8.91152 11.9813 8.79777 12.2187 8.75291C12.4561 8.70806 12.7014 8.73409 12.9241 8.82776L15.2433 9.75667C15.4688 9.85072 15.6611 10.0098 15.7959 10.2135C15.9307 10.4173 16.0017 10.6566 16 10.9009V14.149C16 14.6385 15.8055 15.1079 15.4594 15.454C15.1133 15.8001 14.6439 15.9945 14.1544 15.9945V15.9945ZM1.85095 1.23035C1.77017 1.23011 1.69012 1.24578 1.61539 1.27647C1.54067 1.30716 1.47271 1.35227 1.41542 1.40922C1.35812 1.46618 1.3126 1.53386 1.28147 1.6084C1.25033 1.68295 1.23417 1.76289 1.23393 1.84368C1.23393 1.8609 1.23393 1.87751 1.23578 1.89474C1.51876 5.53657 3.33352 14.149 14.1175 14.7642C14.2804 14.7739 14.4404 14.7186 14.5624 14.6104C14.6845 14.5022 14.7586 14.35 14.7684 14.1872L14.7696 14.149V10.9009L12.4504 9.97198L10.6849 11.7252L10.3896 11.6883C5.03756 11.0178 4.31165 5.66576 4.31165 5.61039L4.27474 5.31511L6.02184 3.54956L5.09907 1.23035H1.85095Z" fill="#333333"/>
</svg>
