<svg id="Capa_1" data-name="Capa 1" xmlns="http://www.w3.org/2000/svg" viewBox="0 0 288.33 305.86"><defs><style>.cls-1{fill:#2f3a96;}.cls-2{fill:#cb5b4a;}.cls-3{fill:#fe725c;}.cls-4{fill:#da624f;}.cls-5{fill:#ef6b57;}</style></defs><title>regalo-bodas</title><path class="cls-1" d="M-691.06-193.3q0,72.12-.05,144.23c0,13.46-8.09,24.45-20.72,28.15a19.53,19.53,0,0,1-5.29,1q-35,.07-70,0c-1.51-1.73-1-3.85-1-5.82q0-66,0-132c0-10.23,0-20.46,0-30.69,0-1.69-.2-3.44.91-4.93,1.34-1.13,3-1,4.57-1q43.58,0,87.15,0C-694-194.37-692.35-194.59-691.06-193.3Z" transform="translate(960.13 325.62)"/><path class="cls-1" d="M-844.81-19.9c-23,0-46.08.35-69.11-.06-15-.27-26.86-13.29-26.92-28.73-0.1-26.24,0-52.48,0-78.71q0-33,0-65.91c1.19-1.2,2.75-1,4.22-1q43.82,0,87.64,0c1.48,0,3-.08,4.29.91,1.13,1.35,1,3,1,4.58q0,82.22,0,164.43C-843.77-22.87-843.56-21.21-844.81-19.9Z" transform="translate(960.13 325.62)"/><path class="cls-1" d="M-691.06-193.3l-96-.05-0.48-.43c-0.81-1.36-.68-2.88-0.68-4.36q0-33.73,0-67.46c0-1.58-.16-3.22.81-4.65a4,4,0,0,1,2.67-.89c4.69-.13,9.37-0.11,14.06,0a4,4,0,0,1,2.67.89h69.27a29.26,29.26,0,0,1,26.9,30.14c-0.42,12.13-.08,24.28-0.09,36.42,0,6.53-3.77,10.33-10.21,10.37Z" transform="translate(960.13 325.62)"/><path class="cls-1" d="M-844.93-193.34h-96c-3.2,0-6.4.05-9.59,0A9.39,9.39,0,0,1-960-202.9c-0.08-13.21-.18-26.43,0-39.64s10.27-24.68,23.35-27.07l3.46-.62,69.19,0a3.6,3.6,0,0,1,2.34-.86q7.3-.2,14.6,0a3.93,3.93,0,0,1,2.38.77c1,1.28.89,2.81,0.89,4.28q0,34.13,0,68.27a10.51,10.51,0,0,1-.37,3.47A2.24,2.24,0,0,1-844.93-193.34Z" transform="translate(960.13 325.62)"/><path class="cls-2" d="M-844.81-19.9q0-85.28,0-170.56c0-1-.08-1.91-0.12-2.87h0.24a3.41,3.41,0,0,1,2.62-.95c8.06-.08,16.12-0.17,24.17,0a4.21,4.21,0,0,1,1.54.39,2.14,2.14,0,0,1,.89.89,11.68,11.68,0,0,1,.52,4.73q0,81.57,0,163.13c0,1.77.36,3.67-1,5.19h-28.83Z" transform="translate(960.13 325.62)"/><path class="cls-2" d="M-816-19.9q0-86.71,0-173.41c1-1,2.29-1,3.54-1q10.79-.08,21.58,0c1.26,0,2.57,0,3.55,1l0.26,0c0,1-.13,1.91-0.13,2.87q0,85.29,0,170.58H-816Z" transform="translate(960.13 325.62)"/><path class="cls-2" d="M-816-270.19l28.86,0q0,36.35-.06,72.71c0,1.38-.08,2.76-0.12,4.14H-816l0,0c-1.1-1.23-1-2.76-1-4.24q0-34.17,0-68.34c0-1.48-.08-3,1-4.24Z" transform="translate(960.13 325.62)"/><path class="cls-2" d="M-816-270.17q0,38.41,0,76.81l-28.68,0q-0.06-27-.12-54.09,0-11.36-.06-22.73Z" transform="translate(960.13 325.62)"/><path class="cls-3" d="M-799.52-303.52l6.42-4.69c9.4-6.16,18.82-12.3,30-14.82,14.34-3.24,24,1.85,29.71,15.49a69.11,69.11,0,0,1-.53,44.05c-6.08,14.33-17.56,17.93-32.31,15.31l-4.86-.89c-4.65.4-8.49-2.07-12.36-3.91-6.5-3.07-12.88-6.52-17.73-12.12a3.59,3.59,0,0,1-.42-1.35c-0.37-11.41,0-22.82.33-34.23A2.85,2.85,0,0,1-799.52-303.52Z" transform="translate(960.13 325.62)"/><path class="cls-4" d="M-800-264.49c7,5.36,14.37,10.22,22.78,13.22l6.19,2.2,22.32,35.82c-5.55-1.24-10.5-2.33-15.44-3.45-3.45-.78-6.92-1.49-10.33-2.44-2.18-.61-2.95.23-3.42,2.21-1.7,7.11-3.51,14.2-5.29,21.29-0.16.66-.41,1.29-0.88,2.74l-10.32-20.82-22.78-43.88c1.38-1.3,3.11-.85,4.72-0.9,4.08-.11,7.73-1,10-4.88C-802-264.24-801.41-265.32-800-264.49Z" transform="translate(960.13 325.62)"/><path class="cls-3" d="M-901-265.81a73,73,0,0,1,.5-43.56c3.54-8.1,8.79-14.33,18-15.89,6.39-1.08,12.45.41,18.35,2.73,8.2,3.24,15.56,8,22.67,13.09,0.67,0.48,1.18,1.16,2.11,1.07l4.93,4.35c1.68,0.84,1.74,2.44,1.72,4-0.13,11.07,0,22.15-.55,33.21a5.21,5.21,0,0,1-2.29,3.41,74.8,74.8,0,0,1-25.3,13,5,5,0,0,1-3.46.12A48,48,0,0,1-880-249.16c-8.46-.9-14.83-5-18.86-12.57C-899.58-263.08-900.26-264.45-901-265.81Z" transform="translate(960.13 325.62)"/><path class="cls-4" d="M-864.22-250.35a76.93,76.93,0,0,0,30.08-15.27c1.28-.16,1.52.93,1.93,1.7,2,3.73,5.24,5.15,9.28,5.32,1.71,0.07,3.57-.4,5,1-7,13.37-14.22,26.64-21.78,39.71l-12.91,24.24c-1.95-8.56-3.84-16.14-5.32-23.8-0.56-2.88-1.5-3.26-4.21-2.65-8.14,1.83-16.35,3.32-25.25,5.08,2.75-4.16,5.15-7.74,7.49-11.35C-874.7-234.39-869-242-864.22-250.35Z" transform="translate(960.13 325.62)"/><path class="cls-5" d="M-817.91-257.6c-2.1,0-4.2,0-6.29-.11-5.19-.26-8.12-3.4-9.94-7.92q0.22-17,.45-33.92c0-1.52.21-3.07-.65-4.47,1.46-2.61,1.19-5.89,3.61-8.2a9.92,9.92,0,0,1,7.57-3c4.24,0.13,8.49.11,12.73,0.19,6.48,0.13,9.58,3.07,10.22,9.65a2.29,2.29,0,0,0,.7,1.9,6.26,6.26,0,0,0-.77,3.4q-0.19,16.11-.43,32.22a6.33,6.33,0,0,0,.68,3.41,0.67,0.67,0,0,0-.34.06c-3.66,7.09-10.09,7.32-16.82,6.83h-0.71Z" transform="translate(960.13 325.62)"/></svg>