<svg xmlns="http://www.w3.org/2000/svg" viewBox="0 0 50 50">
  <path d="M12.3125 1C10.382813 1 8.945313 1.644531 8.09375 2.65625C7.242188 3.667969 7 4.925781 7 6C7 8.554688 8.382813 10.628906 10.28125 11.96875C10.867188 12.382813 11.488281 12.710938 12.15625 13L1 13L1 24L3 24L3 49L47 49L47 24L49 24L49 13L37.84375 13C38.511719 12.710938 39.132813 12.382813 39.71875 11.96875C41.617188 10.628906 43 8.554688 43 6C43 4.925781 42.757813 3.667969 41.90625 2.65625C41.054688 1.644531 39.617188 1 37.6875 1C35.691406 1 34.078125 1.84375 32.875 3C31.671875 4.15625 30.808594 5.613281 30 7C29.191406 8.386719 28.429688 9.71875 27.625 10.625C26.820313 11.53125 26.085938 12 25 12C23.914063 12 23.179688 11.53125 22.375 10.625C21.570313 9.71875 20.808594 8.386719 20 7C19.191406 5.613281 18.328125 4.15625 17.125 3C15.921875 1.84375 14.308594 1 12.3125 1 Z M 12.3125 3C13.777344 3 14.777344 3.53125 15.71875 4.4375C16.660156 5.34375 17.488281 6.636719 18.28125 8C19.074219 9.363281 19.851563 10.78125 20.875 11.9375C20.894531 11.960938 20.917969 11.976563 20.9375 12L17 12C14.984375 12 12.902344 11.398438 11.40625 10.34375C9.910156 9.289063 9 7.863281 9 6C9 5.246094 9.179688 4.5 9.625 3.96875C10.070313 3.4375 10.800781 3 12.3125 3 Z M 37.6875 3C39.199219 3 39.929688 3.4375 40.375 3.96875C40.820313 4.5 41 5.246094 41 6C41 7.863281 40.089844 9.289063 38.59375 10.34375C37.097656 11.398438 35.015625 12 33 12L29.0625 12C29.082031 11.976563 29.105469 11.960938 29.125 11.9375C30.148438 10.78125 30.925781 9.363281 31.71875 8C32.511719 6.636719 33.339844 5.34375 34.28125 4.4375C35.222656 3.53125 36.222656 3 37.6875 3 Z M 3 15L19 15L19 22L3 22 Z M 21 15L29 15L29 22.8125C29 22.84375 29 22.875 29 22.90625C29 22.9375 29 22.96875 29 23C28.992188 23.074219 28.992188 23.144531 29 23.21875L29 47L21 47L21 23.1875C21.007813 23.125 21.007813 23.0625 21 23C21.003906 22.957031 21.003906 22.917969 21 22.875C21 22.84375 21 22.8125 21 22.78125 Z M 31 15L47 15L47 22L31 22 Z M 5 24L19 24L19 47L5 47 Z M 31 24L45 24L45 47L31 47Z" fill="#FFFFFF" />
</svg>