<?xml version="1.0" encoding="iso-8859-1"?>
<!-- Generator: Adobe Illustrator 21.0.0, SVG Export Plug-In . SVG Version: 6.00 Build 0)  -->
<svg version="1.1" id="Capa_1" xmlns="http://www.w3.org/2000/svg" xmlns:xlink="http://www.w3.org/1999/xlink" x="0px" y="0px"
	 viewBox="0 0 512.049 512.049" style="enable-background:new 0 0 512.049 512.049;" xml:space="preserve">
<g>
	<g>
		<path d="M486.424,136.582H372.453c24.393-19.618,34.425-52.085,25.352-82.044c-9.073-29.959-35.434-51.404-66.612-54.192
			s-60.925,13.641-75.169,41.516c-14.235-27.893-43.99-44.34-75.182-41.557c-31.192,2.783-57.565,24.239-66.636,54.212
			c-9.072,29.973,0.977,62.452,25.39,82.065H25.624c-14.138,0-25.6,11.462-25.6,25.6v51.2c0,14.138,11.461,25.6,25.6,25.6v230.4
			c0.028,23.552,19.114,42.638,42.667,42.667h375.467c23.552-0.028,42.638-19.114,42.667-42.667v-230.4
			c14.138,0,25.6-11.461,25.6-25.6v-51.2C512.024,148.044,500.563,136.582,486.424,136.582z M264.558,76.849
			c0.038-32.974,26.759-59.696,59.733-59.733c32.99,0,59.733,26.744,59.733,59.733s-26.744,59.733-59.733,59.733h-59.733V76.849z
			 M307.224,153.649v68.267h-102.4v-68.267H307.224z M290.158,238.982v43.383h-0.427c-13.177,2.249-25.125,9.112-33.707,19.362
			c-8.588-10.234-20.535-17.081-33.707-19.319h-0.427v-43.426H290.158z M128.024,76.849c0-32.99,26.744-59.733,59.733-59.733
			s59.733,26.744,59.733,59.733v59.733h-59.733C154.783,136.544,128.062,109.823,128.024,76.849z M25.624,221.915
			c-4.713,0-8.533-3.821-8.533-8.533v-51.2c0-4.713,3.82-8.533,8.533-8.533h162.133v68.267H25.624z M204.824,494.982H68.291
			c-14.138,0-25.6-11.461-25.6-25.6v-230.4h162.133v43.29c-9.75,1.355-18.899,5.504-26.342,11.947
			c-11.56,10.797-17.57,26.274-16.324,42.044c0.814,16.885,5.754,33.313,14.387,47.846c3.081,5.723,6.759,11.103,10.974,16.051
			c5.31,6.278,11.095,12.138,17.306,17.527V494.982z M290.158,494.982h-68.267V431.46c9.592,7.058,19.538,13.623,29.798,19.669
			c2.675,1.577,5.995,1.577,8.67,0c10.262-6.044,20.207-12.609,29.798-19.669V494.982z M256.024,433.832
			c-20.62-11.963-39.293-27.004-55.373-44.604c-3.495-4.096-6.545-8.553-9.096-13.295c-7.327-12.15-11.561-25.913-12.331-40.081
			c-0.939-10.705,2.918-21.275,10.53-28.86c6.546-5.479,14.846-8.418,23.381-8.277c2.136,0.002,4.268,0.179,6.374,0.529
			c12.531,2.219,23.298,10.181,29.09,21.513c1.64,2.504,4.431,4.012,7.424,4.012c2.993,0,5.784-1.509,7.424-4.012
			c5.792-11.331,16.559-19.293,29.09-21.513c10.584-2.466,21.705,0.426,29.748,7.734s11.982,18.102,10.538,28.874v0.085
			c-0.79,14.218-5.056,28.024-12.424,40.209c-2.534,4.682-5.554,9.084-9.011,13.133
			C295.308,406.861,276.638,421.884,256.024,433.832z M469.358,469.382c0,14.138-11.462,25.6-25.6,25.6H307.224v-77.286
			c6.188-5.378,11.953-11.224,17.246-17.485c4.189-4.896,7.847-10.222,10.914-15.889c8.697-14.575,13.678-31.065,14.507-48.017
			c1.277-15.778-4.718-31.276-16.282-42.086c-7.455-6.452-16.619-10.604-26.385-11.955v-43.281h162.133V469.382z M494.958,213.382
			c0,4.713-3.82,8.533-8.533,8.533H324.291v-68.267h162.133c4.713,0,8.533,3.82,8.533,8.533V213.382z" fill="#232c79"/>
	</g>
</g>
<g>
</g>
<g>
</g>
<g>
</g>
<g>
</g>
<g>
</g>
<g>
</g>
<g>
</g>
<g>
</g>
<g>
</g>
<g>
</g>
<g>
</g>
<g>
</g>
<g>
</g>
<g>
</g>
<g>
</g>
</svg>
