<?xml version="1.0"?>
<svg xmlns="http://www.w3.org/2000/svg" xmlns:xlink="http://www.w3.org/1999/xlink" xmlns:svgjs="http://svgjs.com/svgjs" version="1.1" width="512" height="512" x="0" y="0" viewBox="0 0 53 53" style="enable-background:new 0 0 512 512" xml:space="preserve" class=""><g>
<g xmlns="http://www.w3.org/2000/svg">
	<g>
		<path d="M23.577,18.062c0.134,0.063,0.279,0.094,0.423,0.094c0.139,0,0.277-0.028,0.406-0.086c0.258-0.115,6.322-2.85,7.836-6.797    c0.744-1.939,0.901-3.981,0.441-5.755c-0.491-1.894-1.619-3.266-3.176-3.863c-1.742-0.669-3.75-0.239-5.489,1.14    c-1.217-0.651-3.65-1.754-5.245-1.14c-1.557,0.598-2.685,1.97-3.176,3.863c-0.459,1.773-0.303,3.816,0.442,5.755    C17.551,15.209,23.332,17.946,23.577,18.062z M17.535,6.02c0.325-1.251,1.02-2.139,1.956-2.498    c0.101-0.039,0.227-0.057,0.371-0.057c0.938,0,2.682,0.753,3.762,1.404c0.386,0.231,0.88,0.18,1.206-0.132    c1.284-1.221,2.765-1.677,3.961-1.216c0.937,0.359,1.632,1.247,1.956,2.498c0.356,1.373,0.224,2.983-0.373,4.536    c-0.929,2.421-4.579,4.615-6.361,5.488c-1.265-0.659-5.088-2.832-6.107-5.488C17.311,9.003,17.179,7.393,17.535,6.02z" fill="#b8b8b8" data-original="#000000" style="" class=""/>
		<path d="M36,17.655c-9.374,0-17,7.626-17,17c0,3.317,0.956,6.531,2.765,9.297c0.302,0.462,0.921,0.591,1.384,0.289    c0.462-0.303,0.592-0.922,0.29-1.385C21.843,40.418,21,37.582,21,34.655c0-8.271,6.729-15,15-15s15,6.729,15,15s-6.729,15-15,15    c-2.666,0-5.284-0.708-7.57-2.048c-0.477-0.278-1.088-0.119-1.368,0.357c-0.279,0.477-0.119,1.09,0.357,1.369    c2.593,1.519,5.56,2.321,8.581,2.321c9.374,0,17-7.626,17-17S45.374,17.655,36,17.655z" fill="#b8b8b8" data-original="#000000" style="" class=""/>
		<path d="M27.799,25.721c-0.336-0.438-0.965-0.521-1.402-0.184c-0.438,0.336-0.52,0.964-0.184,1.402    C28.036,29.313,29,32.154,29,35.155c0,7.444-6.056,13.5-13.5,13.5S2,42.6,2,35.155s6.056-13.5,13.5-13.5    c1.83,0,3.604,0.359,5.274,1.068c0.51,0.219,1.096-0.021,1.312-0.529s-0.021-1.095-0.529-1.31    c-1.918-0.815-3.956-1.229-6.056-1.229c-8.547,0-15.5,6.953-15.5,15.5s6.953,15.5,15.5,15.5S31,43.702,31,35.156    C31,31.709,29.893,28.447,27.799,25.721z" fill="#b8b8b8" data-original="#000000" style="" class=""/>
	</g>
</g>
<g xmlns="http://www.w3.org/2000/svg">
</g>
<g xmlns="http://www.w3.org/2000/svg">
</g>
<g xmlns="http://www.w3.org/2000/svg">
</g>
<g xmlns="http://www.w3.org/2000/svg">
</g>
<g xmlns="http://www.w3.org/2000/svg">
</g>
<g xmlns="http://www.w3.org/2000/svg">
</g>
<g xmlns="http://www.w3.org/2000/svg">
</g>
<g xmlns="http://www.w3.org/2000/svg">
</g>
<g xmlns="http://www.w3.org/2000/svg">
</g>
<g xmlns="http://www.w3.org/2000/svg">
</g>
<g xmlns="http://www.w3.org/2000/svg">
</g>
<g xmlns="http://www.w3.org/2000/svg">
</g>
<g xmlns="http://www.w3.org/2000/svg">
</g>
<g xmlns="http://www.w3.org/2000/svg">
</g>
<g xmlns="http://www.w3.org/2000/svg">
</g>
</g></svg>
