<svg id="Layer_1" enable-background="new 0 0 511.94 511.94" height="512" viewBox="0 0 511.94 511.94" width="512" xmlns="http://www.w3.org/2000/svg"><g><path d="m149.612 224.733c-.803-4.822-4.976-8.356-9.864-8.356h-51.114c-2.909 0-5.673 1.266-7.572 3.469-1.9 2.202-2.747 5.123-2.319 8l15.986 107.696c.728 4.902 4.936 8.532 9.892 8.532h53.077c2.939 0 5.73-1.293 7.63-3.536s2.717-5.208 2.233-8.108zm-36.367 99.34-13.018-87.696h31.05l14.615 87.696z"/><path d="m267.162 216.378h-79.566c-2.939 0-5.73 1.293-7.63 3.536s-2.717 5.208-2.233 8.108l17.948 107.696c.803 4.822 4.976 8.356 9.864 8.356h43.67c4.888 0 9.061-3.534 9.864-8.356l17.948-107.696c.483-2.899-.333-5.865-2.233-8.108-1.902-2.243-4.692-3.536-7.632-3.536zm-26.419 107.695h-26.728l-14.615-87.695h55.957z"/><path d="m142.095 109.408 85.284-85.29 85.284 85.29c3.905 3.906 10.237 3.905 14.142 0s3.906-10.237 0-14.142l-92.355-92.361c-3.724-3.874-10.419-3.874-14.143 0l-92.355 92.361c-9.007 9.756 4.398 23.147 14.143 14.142z"/><path d="m494.682 414.688c12.693-14.7 12.666-26.47-.001-41.142-1.95-2.435-4.378-5.466-4.83-7.155-.509-1.906.065-5.731.571-9.106.993-6.615 2.229-14.848-1.976-22.116-4.254-7.354-12.064-10.405-18.338-12.857-3.13-1.223-6.679-2.609-8.001-3.932-1.322-1.322-2.708-4.871-3.931-8.001-2.452-6.275-5.502-14.085-12.855-18.34-7.27-4.205-15.501-2.969-22.117-1.977-3.374.507-7.197 1.081-9.104.571-1.204-.322-3.09-1.651-4.956-3.093l13.76-92.7h14.105c5.523 0 10-4.477 10-10v-49.249c0-5.523-4.477-10-10-10h-419.26c-5.523 0-10 4.477-10 10v49.249c0 5.523 4.477 10 10 10h14.105l27.052 182.236c.728 4.902 4.936 8.532 9.892 8.532h201.465c-4.885 11.182 1.302 21.499 7.805 29.078 1.951 2.436 4.379 5.467 4.83 7.155.509 1.906-.064 5.731-.571 9.105-.993 6.615-2.229 14.849 1.977 22.117 4.254 7.354 12.064 10.405 18.339 12.856 8.483 3.232 8.702 3.455 11.932 11.933 2.451 6.275 5.502 14.085 12.855 18.34 7.269 4.205 15.501 2.969 22.117 1.977 3.375-.507 7.198-1.081 9.104-.572 1.688.452 4.719 2.879 7.154 4.831 14.693 12.691 26.473 12.668 41.141 0 2.436-1.951 5.466-4.378 7.154-4.83 1.903-.509 5.729.064 9.104.572 18.884 3.549 28.66-2.297 34.972-20.316 3.23-8.484 3.454-8.702 11.932-11.933 6.275-2.452 14.084-5.502 18.339-12.856 4.205-7.268 2.969-15.501 1.976-22.116-.506-3.375-1.081-7.2-.571-9.106.451-1.689 2.878-4.72 4.83-7.155zm-466.933-269.095h399.26v29.249h-399.26zm24.325 49.248h350.611l-12.149 81.841c-8.589-2.007-17.227 2.937-22.908 7.672l8.389-56.509c.427-2.877-.419-5.797-2.319-8-1.899-2.203-4.664-3.469-7.572-3.469h-51.116c-4.888 0-9.061 3.534-9.864 8.356l-17.722 106.336c-1.164 1.202-2.225 2.551-3.121 4.1-4.205 7.268-2.969 15.501-1.977 22.117.445 2.963.94 6.27.711 8.324h-205.614zm294.55 94.801c-6.022-.812-12.961-1.208-19.194 2.398-7.354 4.255-10.404 12.065-12.855 18.34-1.223 3.13-2.609 6.679-3.931 8-.241.241-.577.485-.95.729l13.788-82.733h31.049zm132.448 112.542c-3.284 4.1-7.006 8.747-8.542 14.495-1.584 5.925-.682 11.936.114 17.239.416 2.769 1.189 7.924.491 9.132-.747 1.29-5.478 3.138-8.305 4.243-4.959 1.938-10.581 4.134-14.866 8.419s-6.48 9.906-8.417 14.866c-1.105 2.828-2.953 7.56-4.243 8.306-1.206.699-6.361-.075-9.13-.491-5.303-.795-11.313-1.697-17.238-.114-5.749 1.537-10.395 5.259-14.494 8.543-2.562 2.053-6.435 5.155-8.066 5.155s-5.503-3.102-8.065-5.155c-4.1-3.284-8.746-7.006-14.494-8.543-5.625-1.54-11.78-.731-17.238.114-2.769.417-7.924 1.191-9.131.491-1.29-.747-3.138-5.479-4.243-8.307-1.938-4.959-4.133-10.581-8.418-14.866s-9.906-6.481-14.865-8.418c-2.827-1.104-7.559-2.953-8.305-4.243-.699-1.208.075-6.364.491-9.133.796-5.303 1.698-11.313.115-17.238-1.537-5.749-5.259-10.396-8.543-14.496-2.052-2.562-5.154-6.435-5.154-8.066 0-1.632 3.102-5.505 5.155-8.067 3.284-4.1 7.006-8.746 8.542-14.495 1.583-5.924.681-11.935-.115-17.237-.416-2.77-1.189-7.925-.491-9.133.746-1.29 5.478-3.139 8.305-4.243 13.262-4.767 18.52-10.031 23.283-23.284 1.104-2.828 2.953-7.56 4.243-8.306 1.209-.7 6.362.075 9.131.491 5.303.796 11.314 1.699 17.238.114 5.749-1.536 10.396-5.259 14.495-8.543 2.562-2.053 6.434-5.155 8.065-5.155s5.503 3.102 8.066 5.155c4.1 3.284 8.746 7.007 14.494 8.543 5.926 1.585 11.937.682 17.238-.114 2.77-.415 7.924-1.188 9.132-.49 1.29.746 3.138 5.478 4.242 8.306 1.938 4.959 4.133 10.581 8.417 14.865 4.285 4.286 9.906 6.482 14.866 8.419 2.827 1.104 7.559 2.953 8.305 4.243.699 1.208-.075 6.363-.491 9.132-.796 5.303-1.698 11.314-.115 17.239 1.537 5.749 5.259 10.395 8.542 14.495 2.053 2.562 5.155 6.435 5.155 8.067-.001 1.63-3.103 5.503-5.156 8.065z"/><path d="m413.375 396.158c-8.751 0-16.561 4.512-21.635 11.533l24.494-58.368c2.137-5.093-.259-10.954-5.352-13.091s-10.953.259-13.091 5.352l-11.7 27.881c4.926-18.28-8.628-38.881-26.718-38.451-36.698 1.657-36.688 59.411.001 61.063 9.441 0 17.788-5.249 22.783-13.237l-24.35 58.026c-2.137 5.093.259 10.954 5.352 13.091 4.967 2.12 10.953-.207 13.091-5.352l9.973-23.766c-3.538 17.997 9.851 36.714 27.152 36.383 36.697-1.657 36.689-59.413 0-61.064zm-54-24.082c-4.156 0-7.667-4.823-7.667-10.532 0-5.708 3.511-10.531 7.667-10.531s7.667 4.823 7.667 10.531c0 5.709-3.512 10.532-7.667 10.532zm54 65.145c-4.156 0-7.667-4.823-7.667-10.532s3.511-10.532 7.667-10.532 7.667 4.823 7.667 10.532-3.511 10.532-7.667 10.532z"/></g></svg>