<svg width="13" height="21" viewBox="0 0 13 21" fill="none" xmlns="http://www.w3.org/2000/svg">
<path d="M10.195 1.27437C10.533 1.27437 10.8571 1.40864 11.0961 1.64763C11.3351 1.88662 11.4694 2.21076 11.4694 2.54875V17.8412C11.4694 18.1792 11.3351 18.5034 11.0961 18.7424C10.8571 18.9814 10.533 19.1156 10.195 19.1156H2.54875C2.21076 19.1156 1.88662 18.9814 1.64763 18.7424C1.40864 18.5034 1.27437 18.1792 1.27437 17.8412V2.54875C1.27437 2.21076 1.40864 1.88662 1.64763 1.64763C1.88662 1.40864 2.21076 1.27437 2.54875 1.27437H10.195ZM2.54875 0C1.87278 0 1.22449 0.268528 0.746511 0.746512C0.268528 1.22449 0 1.87278 0 2.54875V17.8412C0 18.5172 0.268528 19.1655 0.746511 19.6435C1.22449 20.1215 1.87278 20.39 2.54875 20.39H10.195C10.871 20.39 11.5193 20.1215 11.9972 19.6435C12.4752 19.1655 12.7437 18.5172 12.7437 17.8412V2.54875C12.7437 1.87278 12.4752 1.22449 11.9972 0.746512C11.5193 0.268528 10.871 0 10.195 0L2.54875 0Z" fill="#333333"/>
<path d="M6.37179 17.8412C6.70977 17.8412 7.03391 17.707 7.27291 17.468C7.5119 17.229 7.64616 16.9048 7.64616 16.5669C7.64616 16.2289 7.5119 15.9047 7.27291 15.6657C7.03391 15.4267 6.70977 15.2925 6.37179 15.2925C6.0338 15.2925 5.70966 15.4267 5.47067 15.6657C5.23168 15.9047 5.09741 16.2289 5.09741 16.5669C5.09741 16.9048 5.23168 17.229 5.47067 17.468C5.70966 17.707 6.0338 17.8412 6.37179 17.8412Z" fill="#333333"/>
</svg>
