<svg width="94" height="93" viewBox="0 0 94 93" fill="none" xmlns="http://www.w3.org/2000/svg">
<path d="M51.5713 3.306L59.7613 10.796C60.6267 11.5848 61.7415 12.0449 62.9113 12.096L74.0013 12.566C75.1707 12.6185 76.2846 13.0796 77.149 13.8691C78.0133 14.6585 78.5733 15.7261 78.7313 16.886L80.1913 27.736C80.3551 28.8909 80.9176 29.9521 81.7813 30.736L89.9413 38.146C90.809 38.9386 91.3698 40.0115 91.5252 41.1764C91.6806 42.3412 91.4208 43.5236 90.7913 44.516L84.8613 53.826C84.2296 54.8177 83.9676 56.0003 84.1213 57.166L85.5813 68.166C85.7327 69.3279 85.4712 70.5061 84.8425 71.4949C84.2137 72.4837 83.2577 73.2202 82.1413 73.576L71.5713 76.916C70.4518 77.2697 69.4924 78.006 68.8613 78.996L62.9113 88.306C62.28 89.2922 61.3227 90.0257 60.2061 90.3784C59.0895 90.7311 57.8845 90.6807 56.8013 90.236L46.5513 85.996C45.4674 85.5476 44.2604 85.4945 43.1413 85.846L32.5613 89.196C31.4438 89.5454 30.2392 89.4915 29.1573 89.0438C28.0755 88.5961 27.1851 87.7829 26.6413 86.746L21.5113 76.916C20.9669 75.8776 20.075 75.0635 18.9913 74.616L8.74129 70.386C7.65373 69.9424 6.75706 69.1301 6.20851 68.0915C5.65996 67.0529 5.49455 65.8543 5.74129 64.706L8.13129 53.876C8.38196 52.7314 8.2227 51.5351 7.68129 50.496L2.56129 40.686C2.01928 39.6408 1.86353 38.4378 2.12146 37.289C2.37939 36.1401 3.03446 35.1192 3.97128 34.406L12.7013 27.786C13.6396 27.0711 14.2948 26.0474 14.5513 24.896L16.9213 14.226C17.1778 13.0842 17.8267 12.0685 18.7549 11.3559C19.6832 10.6433 20.832 10.2788 22.0013 10.326L33.1013 10.806C34.2682 10.8626 35.418 10.5088 36.3513 9.806L45.1413 3.046C46.0722 2.32549 47.2275 1.95652 48.4037 2.00409C49.5799 2.05165 50.7016 2.51268 51.5713 3.306V3.306Z" stroke="#232C79" stroke-width="4" stroke-miterlimit="10"/>
<path d="M22.9607 49.7367C27.5807 53.1867 32.1107 56.7867 36.8207 60.1067C41.2507 63.2267 45.1507 62.1767 48.6407 58.4067L71.7507 33.4067C73.7507 31.2867 70.5407 28.0967 68.5707 30.2267L47.5207 53.0067C44.5707 56.1967 42.3807 58.6867 38.0907 55.4767L25.2307 45.8567C22.9107 44.1167 20.6607 48.0267 22.9607 49.7467V49.7367Z" fill="#232C79"/>
</svg>
