<svg id="Capa_1" data-name="Capa 1" xmlns="http://www.w3.org/2000/svg" viewBox="0 0 181.29 206.06"><title>usuario</title><path d="M581.86-163.4c-0.51-12.09-3-24.35-8.87-35-14.86-27.06-37.6-42.14-68.69-43.3-8-.3-16.1-0.2-24.15-0.23a84.91,84.91,0,0,0-14.21,1.08c-36.41,6-64.66,40.22-65.36,77.26-0.07,3.81.9,7.56,4.46,9.56H577.41C580.84-156,582-159.63,581.86-163.4Zm-13.53-4c-0.4,0-.8,1.37-1.21,1.37H491.24c-25.36,0-50.72-1.41-76.09-1.33-2,0-2.22-1.31-2-3,3.55-28.52,24.71-52,52.79-57.93a57.92,57.92,0,0,1,11.78-1.48c9,0,18-.19,27-0.08,30.29,0.39,57.47,23,63.47,52.68,0.49,2.43.79,5.56,1.21,8C569.52-168.29,569.24-167.26,568.33-167.37Z" transform="translate(-400.58 360.06)"/><path d="M505.94-359.44c-3.13-.86-6.37.44-9.48-0.56H485.59c-2.83,0-5.69-.32-8.47.47-27.46,7.73-43.87,32.69-39.46,61,4.44,28.45,32.7,48.71,61.19,44.28,25.22-3.92,43.81-22.84,46.46-48.08C548-328.27,531-352.55,505.94-359.44Zm-14.79,93.22a42.35,42.35,0,0,1-42.21-42.46,42.35,42.35,0,0,1,42.36-42.11,42.34,42.34,0,0,1,42.21,42.46A42.36,42.36,0,0,1,491.15-266.22Z" transform="translate(-400.58 360.06)"/></svg>