<?xml version="1.0" standalone="no"?>
<!DOCTYPE svg PUBLIC "-//W3C//DTD SVG 20010904//EN"
 "http://www.w3.org/TR/2001/REC-SVG-20010904/DTD/svg10.dtd">
<svg version="1.0" xmlns="http://www.w3.org/2000/svg"
 width="992.000000pt" height="992.000000pt" viewBox="0 0 992.000000 992.000000"
 preserveAspectRatio="xMidYMid meet">
<metadata>
Created by potrace 1.11, written by Peter Selinger 2001-2013
</metadata>
<g transform="translate(0.000000,992.000000) scale(0.100000,-0.100000)"
fill="#000000" stroke="none">
<path d="M2480 8423 c-122 -40 -219 -100 -282 -174 -33 -39 -124 -176 -222
-334 -17 -27 -34 -54 -39 -60 -21 -26 -137 -209 -137 -217 0 -4 -4 -8 -10 -8
-5 0 -10 -4 -10 -10 0 -5 -17 -35 -39 -67 -21 -32 -61 -94 -90 -138 -28 -44
-55 -84 -59 -90 -4 -5 -57 -86 -117 -180 -60 -93 -133 -205 -162 -248 -29 -43
-53 -80 -53 -82 0 -2 -23 -38 -50 -78 -28 -41 -50 -79 -50 -85 0 -5 -4 -12 -8
-14 -5 -1 -51 -68 -102 -148 -51 -80 -125 -194 -165 -255 -39 -60 -88 -137
-109 -170 -20 -33 -68 -109 -107 -168 -38 -60 -69 -111 -69 -114 0 -2 -6 -11
-12 -18 -7 -8 -39 -56 -71 -107 -170 -274 -251 -396 -290 -438 -8 -8 -23 -28
-33 -45 -20 -32 -40 -58 -62 -81 -7 -8 -11 -14 -8 -14 2 0 -10 -22 -28 -49
-18 -27 -47 -83 -65 -124 -27 -66 -31 -87 -31 -169 l0 -93 250 1 c168 0 250
-3 251 -10 1 -6 2 -717 3 -1581 l1 -1570 4338 -3 c2385 -1 4337 1 4338 5 0 5
2 720 2 1590 1 870 4 1584 7 1586 3 3 66 8 140 11 74 4 169 9 210 11 41 2 140
7 220 10 79 4 146 8 149 10 3 4 -89 112 -159 187 -14 14 -38 43 -55 63 -16 20
-34 42 -40 48 -5 7 -28 35 -50 62 -21 28 -42 52 -46 55 -3 3 -50 64 -104 135
-54 72 -101 132 -104 135 -7 5 -78 112 -222 335 -46 72 -105 160 -131 196 -27
37 -48 71 -48 77 0 6 -4 12 -8 14 -4 2 -43 55 -87 118 -43 63 -96 138 -117
166 -21 28 -38 56 -38 62 0 5 -5 12 -10 14 -6 2 -29 31 -53 64 -39 58 -381
527 -400 549 -4 6 -29 39 -55 75 -26 36 -53 72 -60 80 -14 16 -171 232 -187
257 -5 9 -17 24 -25 33 -8 10 -31 40 -50 68 -19 28 -38 51 -42 52 -5 0 -8 5
-8 10 0 6 -5 16 -11 23 -5 7 -44 59 -85 117 -42 58 -82 114 -90 125 -35 49
-119 170 -201 290 -126 186 -197 250 -328 295 -58 20 -81 20 -2329 19 -1249 0
-2278 -3 -2286 -6z m4336 -447 c8 -8 14 -17 14 -21 0 -3 5 -11 10 -18 27 -32
110 -147 110 -152 0 -4 6 -13 13 -20 22 -26 32 -39 81 -110 93 -133 171 -240
179 -243 4 -2 7 -8 7 -13 0 -5 7 -17 14 -26 8 -10 53 -72 99 -138 47 -66 91
-127 98 -135 8 -9 28 -36 44 -60 17 -24 73 -104 125 -176 52 -73 113 -158 135
-189 22 -32 46 -63 53 -71 6 -7 12 -15 12 -19 0 -4 6 -12 13 -20 24 -25 42
-50 56 -78 8 -15 18 -27 23 -27 4 0 8 -4 8 -10 0 -5 7 -18 15 -27 8 -10 58
-79 111 -153 53 -74 110 -152 125 -172 16 -20 29 -41 29 -47 0 -5 4 -11 8 -13
4 -1 23 -25 42 -53 19 -27 40 -55 47 -62 6 -7 26 -35 44 -63 18 -27 36 -50 41
-50 4 0 8 -5 8 -11 0 -6 9 -23 20 -37 81 -106 100 -133 100 -141 0 -5 4 -11 8
-13 10 -4 197 -262 232 -321 37 -60 70 -145 78 -197 4 -25 7 -754 7 -1620 l0
-1575 -3980 -3 -3981 -2 0 1370 c0 753 3 1370 6 1371 3 0 754 2 1670 3 1703 2
1697 1 1780 38 92 40 169 93 222 152 15 17 33 38 41 46 8 8 16 22 20 30 4 12
148 222 174 255 5 6 31 44 58 85 28 41 52 77 56 80 3 3 21 27 40 55 18 27 38
54 42 60 4 5 58 82 119 170 62 88 116 162 120 163 4 2 8 8 8 13 0 5 15 28 33
52 17 24 39 54 47 67 8 12 27 38 43 58 15 19 37 51 49 71 22 35 31 48 53 74
10 11 129 177 165 231 20 30 113 159 123 171 4 6 25 35 47 65 22 30 44 60 50
67 5 7 10 15 10 18 0 3 7 13 16 23 9 9 72 96 140 192 69 96 131 184 139 195
107 148 156 216 188 259 20 28 42 61 49 74 6 12 15 22 20 22 4 0 8 7 8 15 0 8
3 15 8 15 4 0 22 21 39 48 57 83 94 135 109 149 8 8 14 18 14 23 0 5 6 15 13
22 12 12 149 207 172 245 13 22 39 53 43 53 2 0 10 -6 18 -14z"/>
</g>
</svg>
